<svg width="445" height="455" viewBox="0 0 445 455" fill="none" xmlns="http://www.w3.org/2000/svg">
<g opacity="0.2">
<path d="M0 453.83H445" stroke="#263238" stroke-linejoin="round"/>
<path d="M185.621 305.741C185.621 305.741 185.934 351.308 185.934 363.345C185.934 375.381 185.621 427.673 185.621 427.673" stroke="#263238" stroke-width="3" stroke-linecap="round" stroke-linejoin="round"/>
<path d="M208.931 317.411L199.296 307.933L226.333 311.582L202.407 302.46L226.959 297.354H199.296L220.738 278.397L196.499 292.615L210.486 264.547L191.842 289.7L198.367 252.877L186.247 287.152L185.005 248.872L182.52 287.875L169.296 253.417L178.48 291.157L158.695 265.853L175.996 296.997L151.508 276.508L174.441 302.46L148.481 285.824L172.26 304.651L150.754 301.359L171.643 308.3L154.913 311.571L172.26 310.848L162.008 318.868L186.247 311.215L208.931 317.411Z" fill="#4ADE80"/>
<path d="M176.29 351.675C176.29 351.675 175.37 361.153 175.987 364.802C176.639 369.011 176.947 373.284 176.907 377.562C176.907 382.301 177.22 382.668 177.22 385.95C177.22 389.232 176.907 417.105 176.907 419.652V428.397" stroke="#263238" stroke-width="3" stroke-linecap="round" stroke-linejoin="round"/>
<path d="M177.21 382.301C177.21 382.301 178.453 374.28 179.695 370.631C180.937 366.983 181.867 368.084 182.18 363.712C182.493 359.34 182.493 357.515 183.1 356.047C183.597 354.75 184.012 353.411 184.342 352.042L184.968 349.127" stroke="#263238" stroke-width="3" stroke-linecap="round" stroke-linejoin="round"/>
<path d="M199.296 361.153L189.661 351.675L216.698 355.324L192.772 346.213L217.324 341.107H189.661L211.112 322.15L186.873 336.367L200.851 308.3L182.207 333.453L188.732 296.63L176.612 330.894L175.37 292.615L172.885 331.628L163.25 296.263L168.846 334.91L151.757 306.109L166.361 340.74L143.935 323.554L164.806 346.213L141.671 335.104L162.625 348.393L140.916 346.191L162.008 352.042L147.349 355.961L162.625 354.59L152.373 362.611L176.612 354.957L199.296 361.153Z" fill="#4ADE80"/>
<path d="M167.787 418.076L161.134 431.031C160.63 432.021 160.301 433.119 160.165 434.262C160.029 435.404 160.089 436.566 160.342 437.68L163.296 450.635C163.508 451.549 163.971 452.356 164.613 452.932C165.255 453.508 166.04 453.819 166.848 453.819H197.143C197.949 453.817 198.732 453.504 199.373 452.929C200.013 452.353 200.474 451.547 200.686 450.635L203.649 437.68C203.901 436.565 203.96 435.403 203.822 434.26C203.685 433.118 203.353 432.02 202.848 431.031L196.204 418.076C195.98 417.638 195.663 417.276 195.284 417.024C194.905 416.773 194.477 416.64 194.041 416.641H169.94C169.506 416.64 169.079 416.772 168.702 417.024C168.324 417.276 168.009 417.638 167.787 418.076Z" fill="white" stroke="#263238" stroke-linejoin="round"/>
<path d="M19.325 99.7368H141.496C141.764 99.7368 142.022 99.8619 142.212 100.085C142.402 100.307 142.508 100.609 142.508 100.924V451.854C142.508 452.378 142.331 452.881 142.015 453.251C141.699 453.622 141.271 453.83 140.824 453.83H19.9968C19.5501 453.83 19.1218 453.622 18.806 453.251C18.4902 452.881 18.3127 452.378 18.3127 451.854V100.924C18.3127 100.609 18.4194 100.307 18.6092 100.085C18.7991 99.8619 19.0565 99.7368 19.325 99.7368Z" stroke="#263238" stroke-linejoin="round"/>
<path d="M80.4105 278.203V453.463" stroke="#263238" stroke-linejoin="round"/>
<path d="M80.4105 99.3698V271.953" stroke="#263238" stroke-linejoin="round"/>
<path d="M26.5397 278.095H136.72C137.384 278.095 138.02 277.786 138.49 277.235C138.959 276.684 139.223 275.937 139.223 275.159C139.223 274.773 139.158 274.391 139.032 274.035C138.907 273.679 138.722 273.355 138.49 273.082C138.257 272.81 137.982 272.593 137.678 272.446C137.374 272.298 137.049 272.222 136.72 272.222H26.5397C26.211 272.222 25.8855 272.298 25.5819 272.446C25.2782 272.593 25.0022 272.81 24.7698 273.082C24.5374 273.355 24.353 273.679 24.2272 274.035C24.1014 274.391 24.0367 274.773 24.0367 275.159C24.0367 275.937 24.3004 276.684 24.7698 277.235C25.2392 277.786 25.8759 278.095 26.5397 278.095Z" stroke="#263238" stroke-linejoin="round"/>
<path d="M129.496 133.774H94.1129V214.328H129.496V133.774Z" stroke="#263238" stroke-linejoin="round"/>
<path d="M126.726 140.089H96.8918V184.112H126.726V140.089Z" stroke="#263238" stroke-linejoin="round"/>
<path d="M101.364 188.981H97.1219V194.119H101.364V188.981Z" stroke="#263238" stroke-linejoin="round"/>
<path d="M107.742 188.981H103.499V194.119H107.742V188.981Z" stroke="#263238" stroke-linejoin="round"/>
<path d="M114.11 188.981H109.867V194.119H114.11V188.981Z" stroke="#263238" stroke-linejoin="round"/>
<path d="M120.478 188.981H116.235V194.119H120.478V188.981Z" stroke="#263238" stroke-linejoin="round"/>
<path d="M126.846 188.981H122.603V194.119H126.846V188.981Z" stroke="#263238" stroke-linejoin="round"/>
<path d="M101.364 197.239H97.1219V202.378H101.364V197.239Z" stroke="#263238" stroke-linejoin="round"/>
<path d="M107.742 197.239H103.499V202.378H107.742V197.239Z" stroke="#263238" stroke-linejoin="round"/>
<path d="M114.11 197.239H109.867V202.378H114.11V197.239Z" stroke="#263238" stroke-linejoin="round"/>
<path d="M120.478 197.239H116.235V202.378H120.478V197.239Z" stroke="#263238" stroke-linejoin="round"/>
<path d="M126.846 197.239H122.603V202.378H126.846V197.239Z" stroke="#263238" stroke-linejoin="round"/>
<path d="M63.2849 194.324H31.7299V247.653H63.2849V194.324Z" stroke="#263238" stroke-linejoin="round"/>
<path d="M57.561 194.324H37.4537V247.653H57.561V194.324Z" stroke="#263238" stroke-linejoin="round"/>
<path d="M57.561 194.324H37.4537V210.83H57.561V194.324Z" stroke="#263238" stroke-linejoin="round"/>
<path d="M340.461 66.9302H168.238C165.355 56.8739 163.861 46.3417 163.812 35.7321L163.729 17.974C163.731 16.6435 164.183 15.3684 164.985 14.4276C165.787 13.4869 166.874 12.9571 168.008 12.9542H340.682C341.246 12.9542 341.805 13.0851 342.326 13.3394C342.847 13.5937 343.32 13.9663 343.717 14.4359C344.115 14.9055 344.43 15.4627 344.643 16.0754C344.857 16.6882 344.965 17.3444 344.961 18.0064L344.86 36.0236C344.802 46.168 343.418 56.242 340.755 65.8939L340.461 66.9302Z" stroke="#263238" stroke-linejoin="round"/>
<path d="M329.335 58.7258H179.364V66.9734H329.335V58.7258Z" stroke="#263238" stroke-linejoin="round"/>
<path d="M298.378 84.2996C299.94 84.3013 301.484 83.9178 302.911 83.1738C304.338 82.4299 305.615 81.3423 306.66 79.9816L304.185 76.743C303.444 77.7891 302.507 78.62 301.446 79.1707C300.386 79.7214 299.232 79.9769 298.073 79.9173C296.915 79.8577 295.784 79.4847 294.769 78.8272C293.754 78.1698 292.882 77.2459 292.222 76.1277L289.618 79.2475C290.658 80.8113 291.986 82.0783 293.503 82.9533C295.021 83.8284 296.688 84.2887 298.378 84.2996Z" fill="#4ADE80"/>
<path d="M298.378 77.4663C299.219 77.4638 300.047 77.2301 300.797 76.7839C301.546 76.3377 302.196 75.6914 302.694 74.8971L300.044 71.4642C299.981 71.9622 299.759 72.4135 299.424 72.727C299.088 73.0405 298.663 73.1928 298.235 73.153C297.808 73.1133 297.409 72.8845 297.119 72.5128C296.83 72.1412 296.671 71.6545 296.676 71.1511C296.662 71.0185 296.662 70.8843 296.676 70.7517L293.694 74.3249C294.17 75.2857 294.854 76.0821 295.677 76.6337C296.499 77.1853 297.431 77.4725 298.378 77.4663Z" fill="#4ADE80"/>
<path d="M298.157 69.0137L297.992 69.2188C298.085 69.1903 298.181 69.1722 298.277 69.1648L298.157 69.0137Z" fill="#4ADE80"/>
<path d="M312.154 87.1604C310.29 89.3824 308.055 91.1295 305.589 92.2923C303.123 93.4551 300.479 94.0087 297.823 93.9186C295.166 93.8284 292.554 93.0964 290.149 91.7682C287.745 90.4401 285.6 88.5444 283.848 86.1996L281.262 89.3087C283.348 92.0334 285.885 94.2316 288.719 95.7693C291.552 97.307 294.623 98.1521 297.744 98.2531C300.864 98.3541 303.97 97.7089 306.872 96.3568C309.773 95.0046 312.41 92.9739 314.621 90.3882L312.154 87.1604Z" fill="#4ADE80"/>
<path d="M298.378 91.6296C300.701 91.6307 303 91.0858 305.14 90.0271C307.28 88.9684 309.218 87.4173 310.838 85.4655L308.363 82.227C307.028 83.8888 305.407 85.199 303.608 86.0707C301.809 86.9424 299.873 87.3556 297.927 87.2832C295.982 87.2107 294.072 86.6541 292.323 85.6503C290.575 84.6465 289.029 83.2184 287.786 81.4605L285.21 84.5479C286.843 86.7675 288.865 88.5488 291.137 89.7707C293.409 90.9926 295.879 91.6266 298.378 91.6296Z" fill="#4ADE80"/>
<path d="M394.562 379.073H302.188V392.524H394.562V379.073Z" stroke="#263238" stroke-linejoin="round"/>
<path d="M434.739 392.502H262.001V453.83H434.739V392.502Z" stroke="#263238" stroke-linejoin="round"/>
<path d="M430.138 396.421H266.602V449.911H430.138V396.421Z" stroke="#263238" stroke-linejoin="round"/>
<path d="M321.209 396.173V449.879" stroke="#263238" stroke-linejoin="round"/>
<path d="M374.786 396.173V449.879" stroke="#263238" stroke-linejoin="round"/>
<path d="M297.716 354.212H274.388V392.524H297.716V354.212Z" stroke="#263238" stroke-linejoin="round"/>
<path d="M421.93 354.212H398.602V392.524H421.93V354.212Z" stroke="#263238" stroke-linejoin="round"/>
<path d="M350.123 361.801C348.562 361.801 347.018 362.186 345.592 362.93C344.165 363.673 342.888 364.76 341.841 366.119L344.317 369.358C345.057 368.31 345.995 367.478 347.056 366.927C348.117 366.376 349.272 366.121 350.431 366.181C351.59 366.242 352.721 366.617 353.736 367.277C354.751 367.936 355.621 368.863 356.28 369.984L358.884 366.853C357.844 365.29 356.515 364.023 354.998 363.148C353.48 362.273 351.814 361.813 350.123 361.801Z" fill="#4ADE80"/>
<path d="M350.123 368.645C349.282 368.646 348.453 368.878 347.702 369.323C346.951 369.767 346.299 370.411 345.798 371.204L348.448 374.636C348.511 374.138 348.733 373.687 349.069 373.374C349.405 373.06 349.829 372.908 350.257 372.948C350.685 372.987 351.084 373.216 351.373 373.588C351.663 373.959 351.821 374.446 351.817 374.949C351.831 375.082 351.831 375.216 351.817 375.349L354.798 371.776C354.322 370.819 353.639 370.025 352.818 369.476C351.998 368.926 351.068 368.64 350.123 368.645Z" fill="#4ADE80"/>
<path d="M350.335 377.087L350.501 376.893C350.406 376.904 350.31 376.904 350.215 376.893L350.335 377.087Z" fill="#4ADE80"/>
<path d="M336.347 358.94C338.212 356.72 340.446 354.974 342.911 353.813C345.376 352.651 348.019 352.098 350.675 352.188C353.33 352.278 355.941 353.01 358.345 354.337C360.749 355.664 362.893 357.558 364.645 359.901L367.231 356.792C365.141 354.074 362.603 351.882 359.769 350.349C356.936 348.815 353.867 347.973 350.748 347.872C347.629 347.771 344.526 348.414 341.625 349.762C338.724 351.109 336.086 353.134 333.872 355.712L336.347 358.94Z" fill="#4ADE80"/>
<path d="M350.123 354.471C347.799 354.472 345.498 355.018 343.356 356.079C341.215 357.139 339.276 358.692 337.654 360.646L340.13 363.884C341.464 362.222 343.085 360.911 344.885 360.039C346.684 359.167 348.621 358.754 350.567 358.828C352.513 358.901 354.424 359.46 356.172 360.465C357.92 361.471 359.465 362.902 360.706 364.662L363.283 361.574C361.652 359.352 359.633 357.568 357.362 356.342C355.092 355.116 352.623 354.478 350.123 354.471Z" fill="#4ADE80"/>
<path d="M429.761 36.5849C429.761 37.8233 429.448 39.0338 428.861 40.0635C428.275 41.0931 427.441 41.8956 426.466 42.3695C425.491 42.8434 424.418 42.9674 423.382 42.7258C422.347 42.4842 421.396 41.8879 420.649 41.0123C419.903 40.1366 419.395 39.021 419.189 37.8064C418.983 36.5919 419.088 35.3329 419.492 34.1889C419.896 33.0448 420.58 32.0669 421.458 31.3789C422.336 30.6909 423.368 30.3237 424.423 30.3237C425.839 30.3237 427.197 30.9834 428.198 32.1576C429.198 33.3318 429.761 34.9243 429.761 36.5849Z" stroke="#263238" stroke-linejoin="round"/>
<path d="M437.638 82.9287H411.135V58.3912C411.135 56.3498 411.478 54.3284 412.144 52.4424C412.81 50.5563 413.786 48.8427 415.016 47.3992C416.247 45.9557 417.708 44.8106 419.315 44.0294C420.923 43.2482 422.646 42.8461 424.387 42.8461C426.127 42.8461 427.85 43.2482 429.458 44.0294C431.065 44.8106 432.526 45.9557 433.757 47.3992C434.987 48.8427 435.963 50.5563 436.629 52.4424C437.295 54.3284 437.638 56.3498 437.638 58.3912V82.9287Z" stroke="#263238" stroke-linejoin="round"/>
<path d="M424.423 30.3237V0" stroke="#263238" stroke-width="2" stroke-linejoin="round"/>
<path d="M73.7019 36.5849C73.7019 37.8233 73.3889 39.0338 72.8024 40.0635C72.2159 41.0931 71.3824 41.8956 70.4071 42.3695C69.4318 42.8434 68.3586 42.9674 67.3233 42.7258C66.2879 42.4842 65.3369 41.8879 64.5904 41.0123C63.844 40.1366 63.3357 39.021 63.1297 37.8064C62.9238 36.5919 63.0295 35.3329 63.4334 34.1889C63.8374 33.0448 64.5215 32.0669 65.3993 31.3789C66.277 30.6909 67.3089 30.3237 68.3645 30.3237C69.7801 30.3237 71.1377 30.9834 72.1387 32.1576C73.1396 33.3318 73.7019 34.9243 73.7019 36.5849Z" stroke="#263238" stroke-linejoin="round"/>
<path d="M81.616 82.9287H55.1132V58.3912C55.1132 56.3498 55.4559 54.3284 56.1219 52.4424C56.7878 50.5563 57.7639 48.8427 58.9944 47.3992C60.2249 45.9557 61.6858 44.8106 63.2935 44.0294C64.9012 43.2482 66.6244 42.8461 68.3646 42.8461C70.1048 42.8461 71.828 43.2482 73.4357 44.0294C75.0435 44.8106 76.5043 45.9557 77.7348 47.3992C78.9653 48.8427 79.9414 50.5563 80.6073 52.4424C81.2733 54.3284 81.616 56.3498 81.616 58.3912V82.9287Z" stroke="#263238" stroke-linejoin="round"/>
<path d="M68.3646 30.3237V0" stroke="#263238" stroke-width="2" stroke-linejoin="round"/>
<path d="M99.7539 78.0816C99.7536 76.2503 99.4259 74.4393 98.7918 72.7658C98.1578 71.0923 97.2316 69.5934 96.073 68.366L93.3123 71.2699C94.2057 72.138 94.9156 73.2372 95.3861 74.4811C95.8566 75.7251 96.075 77.0801 96.0242 78.4397C95.9734 79.7994 95.6547 81.1267 95.0932 82.3176C94.5316 83.5085 93.7425 84.5306 92.7877 85.3036L95.4472 88.3479C96.7796 87.1295 97.8593 85.5728 98.6052 83.7947C99.3511 82.0166 99.7438 80.0633 99.7539 78.0816Z" fill="#4ADE80"/>
<path d="M93.9196 78.0817C93.9174 77.0941 93.7182 76.1209 93.3379 75.2398C92.9576 74.3588 92.4067 73.5944 91.7294 73.0079L88.803 76.117C89.2183 76.2051 89.5909 76.4711 89.8484 76.8633C90.106 77.2555 90.2302 77.7459 90.197 78.2395C90.1637 78.733 89.9754 79.1945 89.6685 79.5343C89.3617 79.8742 88.9581 80.0682 88.5362 80.0788C88.4229 80.0894 88.309 80.0894 88.1957 80.0788L91.2509 83.5656C92.0675 83.0075 92.7442 82.2067 93.2127 81.2439C93.6812 80.281 93.9251 79.1903 93.9196 78.0817Z" fill="#4ADE80"/>
<path d="M86.7142 78.3299L86.8882 78.5242C86.8743 78.4133 86.8743 78.3005 86.8882 78.1896L86.7142 78.3299Z" fill="#4ADE80"/>
<path d="M102.193 61.9212C104.085 64.1088 105.572 66.7306 106.562 69.6228C107.551 72.515 108.022 75.6154 107.944 78.7305C107.866 81.8457 107.242 84.9085 106.11 87.7279C104.978 90.5472 103.362 93.0624 101.364 95.1165L104.015 98.1607C106.332 95.7083 108.201 92.7297 109.508 89.4053C110.815 86.0809 111.533 82.4798 111.619 78.8202C111.705 75.1605 111.157 71.5185 110.008 68.1146C108.859 64.7107 107.133 61.6158 104.935 59.0173L102.193 61.9212Z" fill="#4ADE80"/>
<path d="M106.002 78.0817C106.002 75.3547 105.536 72.6556 104.632 70.1433C103.728 67.6311 102.404 65.3567 100.739 63.4542L97.9779 66.3581C99.3955 67.9248 100.513 69.8272 101.256 71.9391C101.999 74.051 102.351 76.3242 102.289 78.6078C102.226 80.8914 101.75 83.1333 100.893 85.1847C100.035 87.2362 98.8159 89.0504 97.3153 90.5069L99.9472 93.5188C101.842 91.6068 103.364 89.2383 104.409 86.5745C105.454 83.9106 105.997 81.014 106.002 78.0817Z" fill="#4ADE80"/>
<path d="M427.838 143.09H273.937V264.148H427.838V143.09Z" stroke="#263238" stroke-linejoin="round"/>
<path d="M423.66 148.196H278.115V259.031H423.66V148.196Z" stroke="#263238" stroke-linejoin="round"/>
<path d="M350.123 126.466C348.562 126.466 347.018 126.85 345.592 127.594C344.165 128.338 342.888 129.425 341.841 130.784L344.317 134.022C345.057 132.975 345.995 132.143 347.056 131.592C348.117 131.041 349.272 130.785 350.431 130.846C351.59 130.907 352.721 131.282 353.736 131.941C354.751 132.601 355.621 133.528 356.28 134.648L358.884 131.518C357.844 129.955 356.515 128.688 354.998 127.813C353.48 126.938 351.814 126.477 350.123 126.466Z" fill="#4ADE80"/>
<path d="M350.123 133.31C349.282 133.311 348.453 133.543 347.702 133.987C346.951 134.432 346.299 135.076 345.798 135.868L348.448 139.301C348.511 138.803 348.733 138.352 349.069 138.038C349.405 137.725 349.829 137.573 350.257 137.612C350.685 137.652 351.084 137.881 351.373 138.253C351.663 138.624 351.821 139.111 351.817 139.614C351.831 139.747 351.831 139.881 351.817 140.014L354.798 136.44C354.322 135.483 353.639 134.69 352.818 134.14C351.998 133.591 351.068 133.304 350.123 133.31Z" fill="#4ADE80"/>
<path d="M350.335 141.752L350.501 141.557H350.215L350.335 141.752Z" fill="#4ADE80"/>
<path d="M336.347 123.605C338.212 121.385 340.446 119.639 342.911 118.477C345.376 117.316 348.019 116.762 350.675 116.853C353.33 116.943 355.941 117.674 358.345 119.001C360.749 120.328 362.893 122.223 364.645 124.566L367.231 121.457C365.141 118.739 362.603 116.547 359.769 115.013C356.936 113.48 353.867 112.638 350.748 112.537C347.629 112.436 344.526 113.079 341.625 114.426C338.724 115.774 336.086 117.798 333.872 120.377L336.347 123.605Z" fill="#4ADE80"/>
<path d="M350.123 119.136C347.799 119.136 345.498 119.683 343.356 120.744C341.215 121.804 339.276 123.357 337.654 125.311L340.13 128.549C341.464 126.886 343.085 125.576 344.885 124.704C346.684 123.832 348.621 123.419 350.567 123.493C352.513 123.566 354.424 124.124 356.172 125.13C357.92 126.136 359.465 127.566 360.706 129.326L363.283 126.239C361.652 124.017 359.633 122.232 357.362 121.007C355.092 119.781 352.623 119.143 350.123 119.136Z" fill="#4ADE80"/>
<path d="M209.097 117.646L208.848 194.346L170.079 135.156" stroke="#263238" stroke-miterlimit="10" stroke-dasharray="2 2"/>
<path d="M151.821 212.493L207.035 195.037L151.526 170.348" stroke="#263238" stroke-miterlimit="10" stroke-dasharray="2 2"/>
<path d="M207.026 195.037L174.717 244.371" stroke="#263238" stroke-miterlimit="10" stroke-dasharray="2 2"/>
<path d="M210.339 120.474H209.419" stroke="#263238" stroke-miterlimit="10"/>
<path d="M207.578 120.496C206.281 120.496 204.965 120.626 203.649 120.766C191.382 122.096 179.766 127.842 170.391 137.217C161.016 146.593 154.34 159.139 151.279 173.137C148.218 187.135 148.921 201.901 153.291 215.413C157.662 228.924 165.486 240.52 175.692 248.613" stroke="#263238" stroke-miterlimit="10" stroke-dasharray="2.01 2.01"/>
<path d="M176.465 249.207L177.238 249.801" stroke="#263238" stroke-miterlimit="10"/>
<path d="M165.045 171.525C165.047 168.51 164.286 165.562 162.859 163.053C161.433 160.545 159.404 158.59 157.03 157.435C154.656 156.279 152.043 155.976 149.522 156.563C147.001 157.15 144.684 158.601 142.866 160.732C141.048 162.863 139.81 165.579 139.308 168.536C138.805 171.493 139.062 174.559 140.045 177.345C141.029 180.131 142.694 182.512 144.831 184.187C146.968 185.863 149.481 186.757 152.051 186.757C153.757 186.76 155.447 186.368 157.024 185.603C158.601 184.839 160.034 183.717 161.241 182.303C162.448 180.888 163.405 179.207 164.058 177.358C164.711 175.509 165.046 173.526 165.045 171.525Z" fill="#4ADE80"/>
<path d="M152.198 181.187C151.413 181.179 150.647 180.904 149.993 180.394C149.34 179.884 148.827 179.161 148.517 178.315C148.517 178.229 148.453 178.11 148.416 177.991L148.352 177.764C147.91 176.167 147.349 174.526 147.257 174.299C146.799 173.407 146.526 172.401 146.457 171.363C146.388 170.325 146.525 169.282 146.859 168.317C147.193 167.352 147.713 166.491 148.379 165.803C149.046 165.114 149.839 164.617 150.697 164.35C151.555 164.084 152.455 164.055 153.324 164.266C154.193 164.477 155.009 164.923 155.706 165.567C156.403 166.212 156.963 167.038 157.341 167.98C157.72 168.922 157.906 169.955 157.885 170.996C157.869 172.007 157.675 173.003 157.315 173.921C157.168 174.332 157.002 174.72 156.836 175.12C156.614 175.595 156.423 176.089 156.266 176.599C156.204 176.815 156.149 177.03 156.1 177.246C155.984 177.774 155.817 178.285 155.603 178.768C155.275 179.494 154.784 180.102 154.185 180.528C153.586 180.954 152.899 181.181 152.198 181.187ZM152.198 165.739C151.019 165.756 149.892 166.317 149.062 167.3C148.232 168.284 147.765 169.612 147.763 170.996C147.767 171.919 147.973 172.826 148.361 173.63V173.705C148.361 173.781 149.014 175.519 149.52 177.343C149.52 177.419 149.52 177.473 149.567 177.527C149.585 177.59 149.606 177.651 149.631 177.711C149.843 178.31 150.202 178.823 150.662 179.184C151.122 179.545 151.663 179.739 152.217 179.74C152.705 179.743 153.185 179.588 153.602 179.29C154.02 178.993 154.359 178.566 154.582 178.056C154.748 177.672 154.875 177.266 154.959 176.847C155.014 176.609 155.079 176.372 155.152 176.124C155.328 175.552 155.541 174.996 155.787 174.461C155.935 174.105 156.091 173.738 156.229 173.382C156.518 172.638 156.678 171.834 156.698 171.017C156.701 170.324 156.586 169.638 156.362 168.996C156.137 168.355 155.806 167.773 155.389 167.282C154.972 166.792 154.476 166.403 153.93 166.138C153.384 165.873 152.798 165.737 152.208 165.739H152.198Z" fill="#263238"/>
<path d="M152.217 163.893C152.052 163.893 151.895 163.817 151.777 163.681C151.66 163.546 151.593 163.362 151.591 163.169V159.769C151.591 159.577 151.656 159.393 151.772 159.257C151.887 159.122 152.044 159.046 152.208 159.046C152.371 159.046 152.528 159.122 152.643 159.257C152.759 159.393 152.824 159.577 152.824 159.769V163.126C152.829 163.224 152.817 163.322 152.789 163.414C152.761 163.506 152.717 163.59 152.66 163.662C152.603 163.734 152.535 163.791 152.459 163.831C152.382 163.87 152.3 163.891 152.217 163.893Z" fill="#263238"/>
<path d="M145.324 171.698H143.088C142.936 171.676 142.797 171.59 142.695 171.456C142.594 171.321 142.538 171.148 142.538 170.969C142.538 170.79 142.594 170.616 142.695 170.482C142.797 170.348 142.936 170.262 143.088 170.24H145.333C145.421 170.228 145.51 170.237 145.595 170.268C145.68 170.299 145.758 170.35 145.824 170.419C145.89 170.488 145.943 170.573 145.98 170.668C146.016 170.762 146.035 170.865 146.035 170.969C146.035 171.073 146.016 171.175 145.98 171.27C145.943 171.365 145.89 171.45 145.824 171.518C145.758 171.587 145.68 171.639 145.595 171.67C145.51 171.701 145.421 171.71 145.333 171.698H145.324Z" fill="#263238"/>
<path d="M161.18 171.708H158.935C158.771 171.708 158.614 171.632 158.499 171.497C158.383 171.361 158.318 171.177 158.318 170.985C158.318 170.793 158.383 170.609 158.499 170.474C158.614 170.338 158.771 170.262 158.935 170.262H161.18C161.343 170.262 161.5 170.338 161.616 170.474C161.732 170.609 161.796 170.793 161.796 170.985C161.794 171.176 161.728 171.358 161.613 171.493C161.498 171.629 161.343 171.706 161.18 171.708Z" fill="#263238"/>
<path d="M146.953 165.706C146.873 165.707 146.793 165.69 146.719 165.654C146.645 165.619 146.577 165.567 146.52 165.501L144.735 163.407C144.67 163.339 144.618 163.256 144.583 163.163C144.547 163.07 144.529 162.969 144.529 162.867C144.529 162.765 144.547 162.664 144.583 162.571C144.618 162.478 144.67 162.395 144.735 162.327C144.852 162.193 145.009 162.119 145.172 162.119C145.336 162.119 145.493 162.193 145.609 162.327L147.385 164.422C147.471 164.523 147.529 164.652 147.552 164.793C147.575 164.933 147.562 165.078 147.514 165.21C147.467 165.341 147.388 165.454 147.286 165.532C147.185 165.611 147.066 165.653 146.944 165.652L146.953 165.706Z" fill="#263238"/>
<path d="M157.628 165.717C157.462 165.715 157.304 165.638 157.186 165.501C157.072 165.364 157.008 165.18 157.008 164.988C157.008 164.797 157.072 164.613 157.186 164.476L158.971 162.392C159.087 162.256 159.244 162.18 159.408 162.18C159.572 162.18 159.73 162.256 159.846 162.392C159.961 162.528 160.027 162.713 160.027 162.905C160.027 163.097 159.961 163.282 159.846 163.418L158.06 165.501C157.946 165.637 157.791 165.715 157.628 165.717Z" fill="#263238"/>
<path d="M185.161 137.93C185.183 134.915 184.442 131.96 183.032 129.439C181.622 126.918 179.606 124.944 177.24 123.768C174.874 122.591 172.263 122.263 169.738 122.827C167.213 123.391 164.887 124.821 163.055 126.935C161.223 129.05 159.966 131.754 159.445 134.707C158.923 137.659 159.159 140.727 160.124 143.522C161.089 146.316 162.738 148.713 164.864 150.408C166.99 152.103 169.496 153.02 172.066 153.043C175.511 153.075 178.825 151.501 181.281 148.667C183.736 145.833 185.132 141.971 185.161 137.93Z" fill="#4ADE80"/>
<path d="M172.149 146.404C170.485 146.34 168.888 145.616 167.62 144.35C166.352 143.084 165.487 141.351 165.167 139.435C164.846 137.518 165.089 135.53 165.856 133.796C166.623 132.062 167.868 130.684 169.388 129.888C169.516 129.809 169.657 129.763 169.801 129.751C169.945 129.74 170.09 129.764 170.226 129.822C170.361 129.88 170.485 129.97 170.59 130.087C170.694 130.204 170.777 130.346 170.832 130.502C170.887 130.659 170.914 130.827 170.91 130.997C170.907 131.166 170.874 131.333 170.812 131.486C170.751 131.64 170.663 131.777 170.554 131.888C170.445 131.999 170.318 132.083 170.18 132.133C169.07 132.666 168.149 133.627 167.57 134.858C166.99 136.089 166.787 137.515 166.994 138.9C167.2 140.286 167.804 141.546 168.705 142.473C169.607 143.4 170.751 143.938 171.949 143.997C173.147 144.056 174.325 143.633 175.29 142.798C176.254 141.963 176.946 140.766 177.251 139.406C177.556 138.046 177.455 136.605 176.966 135.321C176.476 134.038 175.628 132.989 174.56 132.349C174.355 132.181 174.209 131.933 174.147 131.649C174.086 131.365 174.114 131.065 174.225 130.803C174.337 130.541 174.525 130.335 174.756 130.223C174.986 130.11 175.243 130.098 175.48 130.19C176.896 131.108 178.015 132.547 178.664 134.285C179.313 136.023 179.455 137.964 179.07 139.807C178.684 141.65 177.792 143.292 176.531 144.481C175.271 145.67 173.711 146.338 172.094 146.383L172.149 146.404Z" fill="#263238"/>
<path d="M172.214 136.365C171.939 136.359 171.678 136.227 171.487 135.996C171.296 135.766 171.19 135.456 171.192 135.134V127.772C171.192 127.448 171.302 127.138 171.497 126.909C171.692 126.681 171.956 126.552 172.232 126.552C172.508 126.552 172.772 126.681 172.967 126.909C173.162 127.138 173.272 127.448 173.272 127.772L173.217 135.145C173.217 135.461 173.112 135.765 172.925 135.993C172.738 136.22 172.483 136.354 172.214 136.365Z" fill="#263238"/>
<path d="M180.541 259.873C186.959 256.106 189.559 246.949 186.348 239.42C183.137 231.892 175.331 228.842 168.913 232.609C162.496 236.376 159.896 245.532 163.107 253.061C166.318 260.59 174.124 263.639 180.541 259.873Z" fill="#4ADE80"/>
<path d="M178.996 242.093H174.68V239.178C174.68 238.1 174.316 237.065 173.668 236.301C173.019 235.536 172.139 235.103 171.22 235.098H171.026C170.571 235.095 170.12 235.197 169.699 235.4C169.278 235.602 168.894 235.899 168.571 236.275C168.248 236.651 167.991 237.098 167.816 237.591C167.64 238.084 167.549 238.612 167.548 239.146V242.838C167.548 243.03 167.613 243.214 167.729 243.349C167.844 243.485 168.001 243.561 168.165 243.561C168.328 243.561 168.485 243.485 168.601 243.349C168.716 243.214 168.781 243.03 168.781 242.838V239.146C168.786 238.454 169.024 237.792 169.443 237.305C169.861 236.818 170.427 236.544 171.017 236.544H171.22C171.81 236.55 172.374 236.829 172.789 237.32C173.204 237.812 173.438 238.476 173.437 239.168V242.082H171.496C171.122 242.082 170.764 242.256 170.5 242.566C170.236 242.876 170.088 243.296 170.088 243.734V252.521C170.087 252.738 170.122 252.953 170.191 253.154C170.261 253.355 170.364 253.538 170.494 253.692C170.624 253.847 170.778 253.97 170.948 254.054C171.119 254.138 171.302 254.182 171.487 254.184H178.987C179.36 254.184 179.718 254.01 179.982 253.7C180.246 253.39 180.395 252.97 180.395 252.532V243.745C180.392 243.309 180.244 242.893 179.983 242.584C179.721 242.275 179.367 242.099 178.996 242.093ZM179.134 252.543C179.134 252.569 179.129 252.595 179.12 252.62C179.111 252.644 179.098 252.666 179.082 252.684C179.066 252.702 179.046 252.716 179.025 252.726C179.004 252.735 178.981 252.739 178.959 252.737H171.468C171.423 252.737 171.38 252.717 171.348 252.681C171.315 252.645 171.296 252.595 171.293 252.543V243.745C171.296 243.692 171.315 243.643 171.348 243.607C171.38 243.57 171.423 243.55 171.468 243.55H178.968C179.012 243.55 179.054 243.571 179.085 243.607C179.116 243.644 179.134 243.693 179.134 243.745V252.543Z" fill="#263238"/>
<path d="M175.232 246.022C174.993 246.027 174.763 246.126 174.579 246.305C174.395 246.483 174.268 246.73 174.22 247.004C174.172 247.279 174.204 247.564 174.313 247.813C174.422 248.063 174.6 248.261 174.818 248.376V250.448H175.628V248.419C175.85 248.309 176.034 248.111 176.147 247.861C176.26 247.61 176.295 247.321 176.248 247.043C176.2 246.765 176.072 246.515 175.885 246.335C175.698 246.155 175.464 246.056 175.223 246.055L175.232 246.022Z" fill="#263238"/>
<path d="M155.78 227.023C162.614 224.453 166.377 215.87 164.186 207.854C161.994 199.838 154.678 195.423 147.845 197.994C141.011 200.564 137.248 209.147 139.439 217.163C141.631 225.179 148.947 229.594 155.78 227.023Z" fill="#4ADE80"/>
<path d="M153.33 212.741L153.432 204.85C153.441 204.059 153.183 203.297 152.714 202.73C152.244 202.163 151.602 201.838 150.929 201.827C150.255 201.816 149.605 202.118 149.122 202.669C148.639 203.22 148.362 203.973 148.352 204.763V205.379H146.824C146.635 205.379 146.452 205.465 146.317 205.621C146.181 205.776 146.102 205.987 146.097 206.21C146.096 206.319 146.113 206.427 146.148 206.529C146.182 206.63 146.233 206.723 146.298 206.801C146.363 206.879 146.441 206.941 146.526 206.984C146.612 207.028 146.704 207.05 146.797 207.052H148.333V208.282H146.806C146.712 208.28 146.619 208.299 146.531 208.338C146.444 208.378 146.364 208.438 146.296 208.514C146.228 208.591 146.174 208.682 146.137 208.783C146.1 208.884 146.08 208.993 146.079 209.103C146.079 209.324 146.152 209.536 146.282 209.695C146.412 209.854 146.59 209.947 146.778 209.956H148.315V211.197H146.787C146.612 211.221 146.451 211.319 146.333 211.473C146.216 211.627 146.151 211.827 146.151 212.034C146.151 212.241 146.216 212.44 146.333 212.595C146.451 212.749 146.612 212.847 146.787 212.87H148.195C147.431 213.536 146.866 214.469 146.583 215.535C146.3 216.602 146.313 217.746 146.621 218.803C146.928 219.86 147.514 220.775 148.293 221.416C149.073 222.057 150.006 222.39 150.958 222.369C151.91 222.347 152.831 221.971 153.589 221.295C154.347 220.619 154.902 219.678 155.174 218.608C155.446 217.538 155.421 216.394 155.103 215.341C154.785 214.288 154.19 213.382 153.404 212.752L153.33 212.741ZM150.754 220.654C149.942 220.631 149.172 220.232 148.611 219.544C148.051 218.856 147.746 217.935 147.763 216.983C147.768 216.354 147.916 215.738 148.193 215.198C148.469 214.659 148.864 214.217 149.337 213.918L149.686 213.68L149.797 204.763C149.804 204.415 149.928 204.084 150.141 203.841C150.355 203.599 150.641 203.465 150.938 203.468C151.084 203.471 151.228 203.507 151.362 203.575C151.497 203.644 151.618 203.742 151.72 203.866C151.821 203.989 151.901 204.135 151.955 204.294C152.009 204.454 152.035 204.624 152.033 204.796L151.922 213.658L152.3 213.907C152.898 214.292 153.369 214.901 153.638 215.637C153.907 216.372 153.958 217.192 153.783 217.966C153.608 218.74 153.218 219.423 152.674 219.906C152.13 220.389 151.464 220.645 150.781 220.632L150.754 220.654Z" fill="#263238"/>
<path d="M157.434 203.878C156.872 203.87 156.321 204.057 155.85 204.416C155.378 204.775 155.008 205.289 154.786 205.895C154.564 206.5 154.5 207.17 154.602 207.818C154.703 208.466 154.967 209.065 155.358 209.538C155.75 210.011 156.252 210.337 156.802 210.475C157.351 210.613 157.923 210.557 158.446 210.315C158.968 210.072 159.417 209.653 159.737 209.11C160.057 208.568 160.232 207.927 160.241 207.268C160.247 206.829 160.179 206.393 160.042 205.985C159.904 205.576 159.698 205.204 159.438 204.889C159.177 204.574 158.866 204.323 158.522 204.149C158.178 203.976 157.809 203.884 157.434 203.878ZM157.37 208.887C157.086 208.885 156.81 208.783 156.576 208.596C156.341 208.408 156.16 208.143 156.055 207.833C155.95 207.524 155.926 207.186 155.986 206.86C156.046 206.535 156.187 206.238 156.391 206.008C156.596 205.777 156.854 205.623 157.134 205.566C157.413 205.508 157.701 205.55 157.96 205.685C158.219 205.82 158.438 206.043 158.588 206.325C158.739 206.607 158.815 206.935 158.806 207.268C158.791 207.703 158.634 208.115 158.366 208.417C158.098 208.719 157.741 208.887 157.37 208.887Z" fill="#263238"/>
<path d="M221.587 128.061C223.526 119.956 219.496 111.542 212.586 109.268C205.677 106.994 198.504 111.722 196.566 119.827C194.627 127.933 198.657 136.347 205.567 138.621C212.477 140.894 219.649 136.167 221.587 128.061Z" fill="#4ADE80"/>
<path d="M215.244 126.077V116.513V115.832C215.244 115.402 215.099 114.989 214.84 114.684C214.582 114.378 214.23 114.205 213.864 114.202H205.646C205.28 114.202 204.93 114.371 204.67 114.672C204.41 114.973 204.261 115.382 204.256 115.811V118.153V124.371C203.711 124.013 203.096 123.824 202.471 123.821C201.901 123.906 201.364 124.182 200.924 124.616C200.484 125.05 200.16 125.623 199.99 126.268C199.821 126.912 199.813 127.6 199.969 128.249C200.124 128.898 200.436 129.481 200.866 129.928C201.296 130.375 201.827 130.667 202.396 130.769C202.964 130.871 203.545 130.779 204.07 130.504C204.594 130.229 205.04 129.782 205.354 129.217C205.668 128.652 205.836 127.993 205.839 127.319C205.834 126.887 205.756 126.462 205.609 126.066V119.783L213.827 119.837V124.436C213.279 124.084 212.666 123.895 212.041 123.886C211.471 123.969 210.933 124.243 210.492 124.675C210.051 125.108 209.725 125.68 209.554 126.324C209.383 126.968 209.374 127.656 209.528 128.305C209.681 128.955 209.991 129.539 210.421 129.988C210.85 130.436 211.38 130.73 211.948 130.834C212.516 130.938 213.098 130.848 213.623 130.574C214.149 130.3 214.596 129.855 214.911 129.291C215.226 128.727 215.396 128.068 215.4 127.394C215.431 126.947 215.378 126.497 215.244 126.077ZM202.453 129.132C202.148 129.051 201.869 128.869 201.648 128.609C201.427 128.35 201.273 128.022 201.205 127.664C201.136 127.306 201.155 126.932 201.26 126.587C201.365 126.241 201.551 125.937 201.797 125.71C202.043 125.483 202.338 125.343 202.65 125.305C202.961 125.267 203.275 125.333 203.555 125.496C203.835 125.658 204.071 125.911 204.234 126.224C204.397 126.537 204.481 126.898 204.477 127.265C204.415 127.825 204.168 128.334 203.79 128.683C203.411 129.032 202.931 129.193 202.453 129.132ZM213.91 118.164L205.627 118.089V115.714L213.91 115.8V118.164ZM212.069 129.197C211.765 129.114 211.488 128.931 211.269 128.671C211.049 128.411 210.897 128.083 210.829 127.726C210.762 127.369 210.781 126.997 210.886 126.652C210.991 126.307 211.177 126.004 211.422 125.778C211.667 125.552 211.961 125.411 212.272 125.373C212.582 125.334 212.895 125.399 213.175 125.56C213.455 125.721 213.691 125.971 213.855 126.282C214.019 126.593 214.105 126.953 214.103 127.319C214.043 127.881 213.797 128.392 213.418 128.744C213.04 129.095 212.558 129.258 212.078 129.197H212.069Z" fill="#263238"/>
<path d="M278.593 181.683C278.593 181.683 283.01 183.982 284.731 188.873C286.452 193.763 301.167 238.088 301.654 241.542C302.142 244.997 285.955 276.087 285.955 276.087L281.29 270.905L286.443 245.58L279.817 226.872L276.136 220.826" fill="#4ADE80"/>
<path d="M278.593 181.683C278.593 181.683 283.01 183.982 284.731 188.873C286.452 193.763 301.167 238.088 301.654 241.542C302.142 244.997 285.955 276.087 285.955 276.087L281.29 270.905L286.443 245.58L279.817 226.872L276.136 220.826" stroke="#263238" stroke-linejoin="round"/>
<path d="M297.762 252.143C291.587 248.71 286.848 250.503 285.292 251.301L281.299 270.895L285.964 276.076C285.964 276.076 293.096 262.323 297.762 252.143Z" fill="white" stroke="#263238" stroke-linejoin="round"/>
<path d="M279.357 270.808C279.357 270.808 285.799 285.824 284.998 291.567C284.197 297.31 281.998 418.379 281.998 418.379L267.845 419.015L254.511 299.556L250.692 300.193L244.434 420.289L228.643 417.418L223.738 299.88L222.919 273.68L279.357 270.808Z" fill="#263238" stroke="#263238" stroke-linejoin="round"/>
<path d="M227.547 365.353C228.232 365.223 228.881 364.909 229.443 364.435C230.152 363.723 230.051 363.723 231.661 365.612C233.271 367.501 232.866 368.321 234.173 367.145C235.48 365.968 235.176 365.493 236.483 367.263C237.79 369.034 237.495 369.627 239.299 369.271C241.103 368.915 241.415 368.321 241.415 370.092C241.415 371.862 241.112 372.337 241.912 372.693C242.853 373.046 243.692 373.7 244.333 374.582C244.931 375.522 245.253 375.047 245.538 376.115C245.722 376.748 246.039 377.315 246.458 377.767L227.547 365.353Z" fill="#5E5E5E" stroke="#263238" stroke-linejoin="round"/>
<path d="M227.63 365.73C228.372 367.011 228.886 368.454 229.14 369.973C229.443 372.218 228.845 373.989 229.848 375.047C230.851 376.105 231.459 375.64 231.689 376.58C231.919 377.519 231.385 378.469 231.891 378.825C232.397 379.181 234.403 377.648 234.403 378.35C234.403 379.052 234.201 379.43 235.001 379.063C235.802 378.696 235.811 377.53 236.308 378.706C236.805 379.883 237.228 381.416 237.523 381.189C238.437 380.406 239.509 379.915 240.633 379.764C241.296 379.717 241.958 379.881 242.547 380.239C242.851 380.358 243.348 380.952 243.652 380.358C243.955 379.764 246.643 378.134 246.643 378.134L227.63 365.73Z" fill="#5E5E5E" stroke="#263238" stroke-linejoin="round"/>
<path d="M227.547 365.353L246.615 378.134C246.615 378.134 232.728 379.084 227.547 365.353Z" fill="white" stroke="#263238" stroke-linejoin="round"/>
<path d="M263.29 346.871C263.497 346.096 263.544 345.275 263.428 344.475C263.198 343.395 263.151 343.525 265.314 342.672C267.477 341.819 267.918 342.618 267.596 340.718C267.274 338.818 266.786 338.926 268.719 338.343C270.651 337.76 270.964 338.343 271.48 336.27C271.995 334.198 271.691 333.636 273.044 334.424C274.397 335.212 274.627 335.731 275.253 335.05C275.941 334.223 276.81 333.633 277.765 333.345C278.759 333.14 278.529 332.611 279.477 332.762C280.038 332.853 280.611 332.779 281.142 332.546L263.29 346.871Z" fill="#5E5E5E" stroke="#263238" stroke-linejoin="round"/>
<path d="M263.612 346.958C264.919 346.75 266.249 346.853 267.523 347.26C269.363 347.94 270.458 349.365 271.71 348.771C272.961 348.177 272.878 347.346 273.688 347.551C274.498 347.756 274.995 348.717 275.529 348.339C276.063 347.961 275.74 345.176 276.283 345.489C276.826 345.802 277.01 346.169 277.093 345.166C277.176 344.162 276.283 343.643 277.406 343.643C278.529 343.643 279.881 343.892 279.835 343.471C279.651 342.159 279.756 340.814 280.139 339.563C280.393 338.844 280.814 338.223 281.354 337.771C281.575 337.501 282.274 337.242 281.934 336.691C281.593 336.141 281.556 332.568 281.556 332.568L263.612 346.958Z" fill="#5E5E5E" stroke="#263238" stroke-linejoin="round"/>
<path d="M263.29 346.871L281.519 332.492C281.519 332.492 276.081 347.605 263.29 346.871Z" fill="white" stroke="#263238" stroke-linejoin="round"/>
<path d="M229.186 415.496C229.186 415.496 225.1 417.094 225.1 419.015C225.1 420.937 227.005 436.903 227.005 436.903C227.005 436.903 217.747 442.97 216.937 444.568C216.127 446.165 216.661 453.83 216.661 453.83H244.434C244.434 453.83 245.253 445.842 245.253 442.97C245.13 440.185 244.856 437.413 244.434 434.668L246.063 418.379C246.063 418.379 238.167 411.351 229.186 415.496Z" fill="white" stroke="#263238" stroke-linejoin="round"/>
<path d="M216.661 453.83H244.434C244.434 453.83 244.609 452.114 244.793 449.998H216.495C216.532 452.027 216.661 453.83 216.661 453.83Z" fill="white" stroke="#263238" stroke-linejoin="round"/>
<path d="M240.624 414.222C238.47 411.875 235.667 410.514 232.728 410.39C228.127 410.39 226.195 413.629 226.195 413.629L228.955 429.595H236.317L240.624 414.222Z" fill="white" stroke="#263238" stroke-linejoin="round"/>
<path d="M237.348 431.031H227.962C227.758 431.031 227.563 430.936 227.418 430.769C227.274 430.601 227.191 430.373 227.189 430.135C227.191 429.895 227.273 429.666 227.418 429.496C227.562 429.327 227.757 429.231 227.962 429.228H237.348C237.551 429.231 237.746 429.327 237.889 429.497C238.032 429.667 238.112 429.896 238.112 430.135C238.112 430.372 238.031 430.6 237.888 430.768C237.745 430.936 237.551 431.031 237.348 431.031Z" fill="white" stroke="#263238" stroke-linejoin="round"/>
<path d="M237.348 433.233H227.962C227.758 433.233 227.563 433.139 227.418 432.971C227.274 432.803 227.191 432.575 227.189 432.337C227.191 432.097 227.273 431.868 227.418 431.699C227.562 431.529 227.757 431.433 227.962 431.43H237.348C237.551 431.433 237.746 431.53 237.889 431.699C238.032 431.869 238.112 432.098 238.112 432.337C238.112 432.574 238.031 432.802 237.888 432.97C237.745 433.138 237.551 433.233 237.348 433.233Z" fill="white" stroke="#263238" stroke-linejoin="round"/>
<path d="M237.348 435.435H227.962C227.758 435.435 227.563 435.341 227.418 435.173C227.274 435.006 227.191 434.778 227.189 434.539C227.191 434.299 227.273 434.07 227.418 433.901C227.562 433.731 227.757 433.635 227.962 433.632H237.348C237.551 433.635 237.746 433.732 237.889 433.902C238.032 434.071 238.112 434.3 238.112 434.539C238.112 434.777 238.031 435.005 237.888 435.173C237.745 435.341 237.551 435.435 237.348 435.435Z" fill="white" stroke="#263238" stroke-linejoin="round"/>
<path d="M237.348 437.637H227.962C227.758 437.637 227.563 437.543 227.418 437.375C227.274 437.208 227.191 436.98 227.189 436.741C227.191 436.502 227.273 436.272 227.418 436.103C227.562 435.934 227.757 435.837 227.962 435.834H237.348C237.551 435.837 237.746 435.934 237.889 436.104C238.032 436.273 238.112 436.503 238.112 436.741C238.112 436.979 238.031 437.207 237.888 437.375C237.745 437.543 237.551 437.637 237.348 437.637Z" fill="white" stroke="#263238" stroke-linejoin="round"/>
<path d="M282.651 415.496C282.651 415.496 286.728 417.094 286.728 419.015C286.728 420.937 284.823 436.903 284.823 436.903C284.823 436.903 294.081 442.97 294.9 444.568C295.719 446.165 295.176 453.83 295.176 453.83H267.394C267.394 453.83 266.575 445.842 266.575 442.97C266.698 440.185 266.972 437.413 267.394 434.668L265.756 418.379C265.756 418.379 273.661 411.351 282.651 415.496Z" fill="white" stroke="#263238" stroke-linejoin="round"/>
<path d="M295.176 453.83H267.394C267.394 453.83 267.219 452.114 267.026 449.998H295.332C295.296 452.027 295.176 453.83 295.176 453.83Z" fill="white" stroke="#263238" stroke-linejoin="round"/>
<path d="M271.213 414.222C273.367 411.875 276.17 410.514 279.109 410.39C283.71 410.39 285.642 413.629 285.642 413.629L282.882 429.595H275.52L271.213 414.222Z" fill="white" stroke="#263238" stroke-linejoin="round"/>
<path d="M283.765 431.031H274.378C274.175 431.031 273.98 430.936 273.835 430.769C273.69 430.601 273.608 430.373 273.605 430.135C273.608 429.895 273.69 429.666 273.835 429.496C273.979 429.327 274.174 429.231 274.378 429.228H283.765C283.968 429.231 284.163 429.327 284.306 429.497C284.449 429.667 284.529 429.896 284.529 430.135C284.529 430.372 284.448 430.6 284.305 430.768C284.162 430.936 283.967 431.031 283.765 431.031Z" fill="white" stroke="#263238" stroke-linejoin="round"/>
<path d="M283.765 433.233H274.378C274.175 433.233 273.98 433.139 273.835 432.971C273.69 432.803 273.608 432.575 273.605 432.337C273.608 432.097 273.69 431.868 273.835 431.699C273.979 431.529 274.174 431.433 274.378 431.43H283.765C283.968 431.433 284.163 431.53 284.306 431.699C284.449 431.869 284.529 432.098 284.529 432.337C284.529 432.574 284.448 432.802 284.305 432.97C284.162 433.138 283.967 433.233 283.765 433.233Z" fill="white" stroke="#263238" stroke-linejoin="round"/>
<path d="M283.765 435.435H274.378C274.175 435.435 273.98 435.341 273.835 435.173C273.69 435.006 273.608 434.778 273.605 434.539C273.608 434.299 273.69 434.07 273.835 433.901C273.979 433.731 274.174 433.635 274.378 433.632H283.765C283.968 433.635 284.163 433.732 284.306 433.902C284.449 434.071 284.529 434.3 284.529 434.539C284.529 434.777 284.448 435.005 284.305 435.173C284.162 435.341 283.967 435.435 283.765 435.435Z" fill="white" stroke="#263238" stroke-linejoin="round"/>
<path d="M283.765 437.637H274.378C274.175 437.637 273.98 437.543 273.835 437.375C273.69 437.208 273.608 436.98 273.605 436.741C273.608 436.502 273.69 436.272 273.835 436.103C273.979 435.934 274.174 435.837 274.378 435.834H283.765C283.968 435.837 284.163 435.934 284.306 436.104C284.449 436.273 284.529 436.503 284.529 436.741C284.529 436.979 284.448 437.207 284.305 437.375C284.162 437.543 283.967 437.637 283.765 437.637Z" fill="white" stroke="#263238" stroke-linejoin="round"/>
<path d="M243.385 151.705C243.385 151.705 242.676 166.354 242.465 168.589C242.253 170.823 235.314 175.066 229.36 178.369C223.406 181.672 218.4 183.119 218.64 186.195C218.879 189.272 222.449 303.863 222.449 303.863C222.449 303.863 230.547 303.582 242.465 298.282C254.382 292.982 261.514 286.267 267.467 280.394C271.067 276.861 275.08 273.952 279.385 271.758C279.385 271.758 280.305 217.545 280.305 208.067C280.305 198.588 281.97 188.786 281.501 184.878C281.032 180.971 266.731 176.242 263.161 174.256L259.581 172.302C259.581 172.302 259.581 166.904 261.017 163.515L262.443 160.168L244.103 150.669L243.385 151.705Z" fill="#4ADE80" stroke="#263238" stroke-linejoin="round"/>
<path d="M267.44 280.362C271.039 276.829 275.053 273.92 279.357 271.726C279.357 271.726 279.357 271.413 279.357 270.83C275.731 271.035 272.253 273.216 256.995 279.261C245.597 283.611 233.843 286.556 221.925 288.048C222.219 297.634 222.413 303.852 222.413 303.852C222.413 303.852 230.511 303.572 242.428 298.271C254.345 292.971 261.486 286.235 267.44 280.362Z" fill="white" stroke="#263238" stroke-linejoin="round"/>
<path d="M221.676 280.103C221.676 280.103 264.118 273.194 279.329 267.44" stroke="#263238" stroke-linejoin="round"/>
<path d="M263.161 174.18L259.581 172.227C259.581 172.227 259.581 166.829 261.017 163.439L262.443 160.093L244.103 150.593L243.385 151.672C243.385 151.672 242.676 166.322 242.465 168.556C242.308 170.014 239.308 172.313 235.59 174.655C237.891 177.646 243.955 184.695 251.032 186.444C256.738 187.847 261.688 180.604 264.624 174.85C264.017 174.623 263.529 174.386 263.161 174.18Z" fill="white" stroke="#263238" stroke-linejoin="round"/>
<path d="M253.664 199.398L253.866 197.12C254.115 194.22 254.115 191.298 253.866 188.398L253.664 186.131C253.664 186.131 249.164 185.861 247.784 188.29C246.403 190.719 247.084 195.285 247.434 196.688C248.014 198.988 253.664 199.398 253.664 199.398Z" fill="#263238" stroke="#263238" stroke-linejoin="round"/>
<path d="M253.664 215.504L253.866 213.237C254.115 210.337 254.115 207.415 253.866 204.515L253.664 202.237C253.664 202.237 249.164 201.967 247.784 204.396C246.403 206.825 247.084 211.381 247.434 212.795C248.014 215.105 253.664 215.504 253.664 215.504Z" fill="#263238" stroke="#263238" stroke-linejoin="round"/>
<path d="M253.664 199.398V202.237" stroke="#263238" stroke-linejoin="round"/>
<path d="M252.284 199.398V201.967" stroke="#263238" stroke-linejoin="round"/>
<path d="M261.017 163.439L262.443 160.093L244.103 150.593L243.385 151.672L244.949 154.911C244.949 154.911 249.753 165.35 259.977 168.383C260.109 166.683 260.459 165.016 261.017 163.439Z" fill="#263238" stroke="#263238" stroke-linejoin="round"/>
<path d="M264.109 127.955C264.109 127.955 266.971 135.782 266.971 136.894C266.915 137.703 266.666 138.478 266.253 139.128C266.253 139.128 270.541 143.878 270.302 145.001C270.063 146.124 267.918 147.516 267.918 147.516C267.918 147.516 269.584 157.858 269.584 159.251C269.584 160.643 266.253 164.001 259.581 163.159C255.499 162.59 251.671 160.54 248.63 157.297C248.63 157.297 242.437 149.47 242.188 144.72C241.94 139.97 246.725 126.304 252.67 124.317C258.615 122.331 264.109 127.955 264.109 127.955Z" fill="white" stroke="#263238" stroke-linejoin="round"/>
<path d="M263.161 140.111C263.161 141.115 262.784 141.924 262.323 141.924C261.863 141.924 261.486 141.115 261.486 140.111C261.486 139.107 261.863 138.297 262.323 138.297C262.784 138.297 263.161 139.107 263.161 140.111Z" fill="#263238"/>
<path d="M259.581 137.736C259.581 137.736 261.964 134.098 264.826 136.063" stroke="#263238" stroke-linejoin="round"/>
<path d="M259.112 148.628C259.112 148.628 260.538 151.424 265.553 150.312" stroke="#263238" stroke-linejoin="round"/>
<path d="M241.958 127.113C241.958 127.113 234.339 130.471 233.621 135.75C232.903 141.028 239.336 148.326 240.293 149.438C241.25 150.55 246.734 150.517 248.152 148.358C249.569 146.199 247.434 142.486 248.86 141.093C250.287 139.701 252.201 140.251 252.679 136.063C253.158 131.874 251.483 130.19 253.866 128.797C256.25 127.405 259.342 130.471 264.109 127.955C268.875 125.44 267.44 115.66 262.204 112.033C256.968 108.405 248.63 113.425 248.4 115.379C248.17 117.333 249.826 119.848 248.4 120.129C246.974 120.41 243.873 119.298 243.394 122.083C243.086 123.82 242.604 125.509 241.958 127.113Z" fill="#263238" stroke="#263238" stroke-linejoin="round"/>
<path d="M248.391 150.312C248.391 150.312 245.768 144.159 242.198 144.72C238.627 145.282 239.575 154.501 242.198 156.455C244.82 158.409 248.391 154.501 248.391 154.501" fill="white"/>
<path d="M248.391 150.312C248.391 150.312 245.768 144.159 242.198 144.72C238.627 145.282 239.575 154.501 242.198 156.455C244.82 158.409 248.391 154.501 248.391 154.501" stroke="#263238" stroke-linejoin="round"/>
<path d="M221.584 182.568C221.584 182.568 214.673 185.915 213.486 190.384C212.299 194.853 197.52 235.659 196.094 238.962C194.667 242.266 196.333 248.181 198.956 249.304C201.578 250.427 203.005 249.304 205.618 247.07C208.232 244.835 221.584 218.57 221.584 218.57" fill="#4ADE80"/>
<path d="M221.584 182.568C221.584 182.568 214.673 185.915 213.486 190.384C212.299 194.853 197.52 235.659 196.094 238.962C194.667 242.266 196.333 248.181 198.956 249.304C201.578 250.427 203.005 249.304 205.618 247.07C208.232 244.835 221.584 218.57 221.584 218.57" stroke="#263238" stroke-linejoin="round"/>
<path d="M204.402 183.262L212.794 183.09C213.25 183.081 213.691 183.284 214.019 183.656C214.347 184.028 214.536 184.538 214.544 185.073L214.944 211.928C214.952 212.463 214.778 212.98 214.461 213.365C214.144 213.75 213.71 213.972 213.253 213.981L204.862 214.153C204.403 214.162 203.96 213.958 203.63 213.584C203.3 213.21 203.11 212.697 203.102 212.159L202.703 185.316C202.695 184.778 202.869 184.258 203.188 183.871C203.507 183.483 203.944 183.261 204.402 183.251L204.402 183.262Z" fill="#263238" stroke="#263238" stroke-linejoin="round"/>
<path d="M200.759 220.362C200.759 220.362 200.695 204.223 200.594 201.946C200.492 199.668 202.839 197.325 204.275 196.192C205.71 195.058 211.811 191.755 212.557 192.144C213.302 192.532 213.054 193.936 212.06 194.767C211.066 195.598 206.686 198.459 205.857 199.247C205.029 200.035 205.094 203.101 205.094 203.101C205.094 203.101 210.137 200.262 211.637 199.495C213.137 198.729 214.784 197.908 215.391 198.524C215.566 198.739 215.688 199.008 215.741 199.299C215.795 199.591 215.779 199.894 215.695 200.175C216.077 200.732 216.267 201.437 216.229 202.151C216.09 203.155 212.548 207.138 211.462 208.185C210.652 208.98 209.878 209.823 209.143 210.711C209.143 210.711 215.833 208.79 216.302 208.671C216.771 208.552 217.324 209.751 216.026 210.668C214.007 211.737 211.932 212.657 209.814 213.421C209.524 215.332 209.049 217.197 208.397 218.981C207.873 220.803 206.834 222.36 205.453 223.396C205.453 223.396 208.278 241.121 206.226 245.882C204.173 250.643 197.75 254.033 195.183 248.16C192.615 242.287 194.216 235.13 196.765 231.211C199.315 227.293 200.759 220.362 200.759 220.362Z" fill="white" stroke="#263238" stroke-linejoin="round"/>
<path d="M206.796 235.691C201.155 238.531 197.428 235.789 195.514 233.532C193.756 237.591 193.011 243.313 195.146 248.182C197.723 254.054 204.137 250.664 206.189 245.904C207.035 243.971 207.063 239.858 206.796 235.691Z" fill="#4ADE80" stroke="#263238" stroke-linejoin="round"/>
<path d="M215.667 200.175L206.456 206.976" stroke="#263238" stroke-linejoin="round"/>
<path d="M215.667 200.175L206.456 206.976" stroke="#263238" stroke-linejoin="round"/>
<path d="M283.443 266.523L275.768 268.433C274.949 268.628 269.4 274.748 268.747 275.904C268.093 277.059 269.888 277.814 270.707 277.814C271.526 277.814 275.924 273.993 275.924 273.993L274.756 277.437L283.572 286.44C283.572 286.44 285.937 281.463 287.078 278.203C287.879 275.537 288.426 272.774 288.707 269.966" fill="white"/>
<path d="M283.443 266.523L275.768 268.433C274.949 268.628 269.4 274.748 268.747 275.904C268.093 277.059 269.888 277.814 270.707 277.814C271.526 277.814 275.924 273.993 275.924 273.993L274.756 277.437L283.572 286.44C283.572 286.44 285.937 281.463 287.078 278.203C287.879 275.537 288.426 272.774 288.707 269.966" stroke="#263238" stroke-linejoin="round"/>
</g>
</svg>
