<svg width="577" height="554" viewBox="0 0 577 554" fill="none" xmlns="http://www.w3.org/2000/svg">
<g opacity="0.2">
<path d="M576.22 539.881C576.22 540.41 447.214 540.798 288.123 540.798C129.032 540.798 0 540.41 0 539.881C0 539.352 128.98 538.964 288.123 538.964C447.266 538.964 576.22 539.387 576.22 539.881Z" fill="#263238"/>
<path d="M503.138 539.863H525.534V456.709H503.138V539.863Z" fill="#263238"/>
<path d="M166.904 539.863H189.3V456.709H166.904V539.863Z" fill="#263238"/>
<path d="M119.126 257.725C124.152 249.437 173.567 224.555 173.567 224.555C173.567 224.555 182.656 183.995 206.805 176.367C218.591 172.7 486.326 180.035 486.326 180.035C497.207 186.287 504.66 224.555 504.66 224.555C523.917 229.175 569.153 254.204 571.656 264.582C574.159 274.961 574.679 464.868 571.348 475.228C555.711 481.444 540.536 482.269 525.631 476.658L170.467 475.173C170.467 475.173 125.558 491.272 119.126 474.293C116.103 466.573 114.004 265.994 119.126 257.725Z" fill="#FB923C"/>
<path d="M170.37 401.26C170.37 400.985 248.844 400.783 345.613 400.783C442.381 400.783 520.855 400.985 520.855 401.26C520.855 401.535 442.4 401.737 345.613 401.737C248.825 401.737 170.37 401.535 170.37 401.26Z" fill="#263238"/>
<path d="M544.445 473.449C544.445 473.449 544.445 473.028 544.445 472.184C544.445 471.341 544.445 470.076 544.445 468.517C544.445 465.18 544.31 460.302 544.214 453.958C544.041 441.214 543.79 422.622 543.482 399.17C543.174 375.718 542.866 347.333 542.462 315.062C542.462 311.046 542.462 306.921 542.462 302.777C542.462 298.633 542.712 294.415 542.462 290.18C542.242 285.89 541.373 281.654 539.881 277.601C538.253 273.477 536.051 269.579 533.334 266.013C527.656 258.615 520.56 252.306 512.42 247.42C503.966 242.263 495 237.908 485.652 234.419H485.479V234.254L477.468 215.918L473.385 206.585C472.692 205.027 472.018 203.468 471.325 201.891C470.691 200.329 469.85 198.85 468.821 197.49C467.26 195.442 465.263 193.731 462.96 192.467C460.657 191.203 458.101 190.416 455.457 190.156C453.685 189.991 451.817 189.954 450.007 189.844L427.822 188.744C397.954 187.314 367.027 185.957 335.387 184.802C319.352 184.227 303.516 183.751 287.879 183.372C272.242 183.042 256.855 182.767 241.757 183.023C237.906 183.023 234.228 183.188 230.492 183.39C228.566 183.39 226.775 183.647 224.946 183.812C223.128 183.952 221.333 184.284 219.592 184.802C216.192 186.006 213.156 187.99 210.753 190.578C208.301 193.105 206.162 195.892 204.379 198.884C200.901 204.833 198.074 211.106 195.944 217.605C193.798 223.937 192.074 230.392 190.783 236.932V237.207H190.494C185.662 238.467 181.022 240.316 176.687 242.707C172.388 245.005 168.275 247.604 164.381 250.482C160.531 253.233 157.074 256.451 154.098 260.053C152.692 261.837 151.611 263.833 150.901 265.958C150.259 268.084 149.833 270.263 149.63 272.467C148.917 281.323 150.458 289.996 150.805 298.486C150.959 302.777 150.805 306.921 150.708 311.065C150.612 315.209 150.708 319.242 150.574 323.258C150.304 355.291 150.574 383.456 150.728 406.761C150.882 430.066 150.728 448.512 150.728 461.146C150.631 467.435 150.554 472.276 150.497 475.576C150.497 477.208 150.497 478.437 150.497 479.244C150.497 480.05 150.497 480.49 150.497 480.49C150.497 480.49 150.497 480.069 150.497 479.244C150.497 478.419 150.497 477.153 150.497 475.576C150.497 472.276 150.497 467.435 150.497 461.128C150.497 448.512 150.497 430.066 150.285 406.761C150.073 383.456 149.707 355.31 149.919 323.258C149.919 319.236 149.957 315.166 150.034 311.046C150.034 306.939 150.265 302.722 150.034 298.523C149.688 290.088 148.109 281.415 148.821 272.412C149.023 270.141 149.455 267.893 150.111 265.701C150.852 263.493 151.971 261.418 153.424 259.558C156.45 255.9 159.958 252.628 163.861 249.822C167.789 246.907 171.941 244.278 176.282 241.956C180.686 239.5 185.405 237.595 190.321 236.29L189.974 236.638C191.261 230.056 192.984 223.558 195.135 217.183C197.282 210.62 200.134 204.285 203.647 198.279C205.47 195.227 207.647 192.379 210.137 189.789C212.656 187.1 215.83 185.041 219.38 183.793C221.182 183.247 223.042 182.896 224.926 182.748C226.852 182.565 228.662 182.4 230.53 182.327C234.286 182.106 238.06 181.996 241.834 181.941C256.971 181.685 272.357 181.941 288.052 182.29C303.747 182.638 319.538 183.133 335.579 183.702C367.277 184.857 398.205 186.232 428.015 187.662L450.2 188.781C452.125 188.891 453.839 188.928 455.707 189.093C457.567 189.268 459.39 189.7 461.118 190.376C464.572 191.707 467.567 193.93 469.765 196.794C470.821 198.217 471.694 199.756 472.365 201.378C473.058 202.955 473.732 204.513 474.425 206.072C475.773 209.207 477.141 212.306 478.489 215.405L486.481 233.741L486.23 233.503C495.64 237.034 504.669 241.424 513.191 246.613C521.429 251.57 528.615 257.958 534.374 265.444C537.121 269.077 539.349 273.042 540.998 277.234C542.503 281.374 543.384 285.695 543.617 290.07C543.868 294.36 543.713 298.596 543.617 302.74C543.521 306.884 543.463 310.973 543.617 315.007C543.925 347.26 544.214 375.626 544.426 399.096C544.638 422.567 544.792 441.159 544.888 453.885C544.888 460.247 544.888 465.125 544.985 468.444V472.111C544.465 473.046 544.445 473.449 544.445 473.449Z" fill="#263238"/>
<g opacity="0.4">
<path d="M543.001 480.582C546.005 421.063 543.463 365.651 543.001 306.077C542.808 285.907 545.543 270.798 521.356 252.022C508.068 241.717 486.038 232.678 486.038 232.678C479.76 224.261 478.855 209.446 472.943 200.791C464.123 187.846 445.096 186.599 428.882 186.709L258.146 187.937C244.569 188.029 229.51 188.689 219.862 197.784C210.907 206.237 209.463 219.366 208.943 231.376C208.262 246.558 208.192 261.746 208.731 276.941C209.001 284.422 209.713 292.6 215.125 298.028C219.611 302.538 226.332 304.629 232.841 305.215C280.985 309.451 421.044 308.663 481.262 308.663L525.072 347.92L525.458 476.713L543.001 480.582Z" fill="black"/>
</g>
<path d="M186.527 348.452C186.527 348.177 260.842 347.975 352.468 347.975C444.095 347.975 518.409 348.177 518.409 348.452C518.409 348.727 444.134 348.929 352.468 348.929C260.803 348.929 186.527 348.709 186.527 348.452Z" fill="#263238"/>
<path d="M170.37 475.173C170.37 475.173 170.37 474.366 170.37 472.789C170.37 471.212 170.37 468.865 170.37 465.84C170.37 459.697 170.37 450.749 170.274 439.308C170.274 416.369 170.274 383.474 170.178 343.593V343.428L170.293 343.318L206.17 308.351L206.305 308.222H206.497H339.989H481.628H481.801L481.917 308.332C492.027 316.822 501.636 325.055 510.629 333.105C515.097 337.157 519.488 341.081 523.416 345.243C523.898 345.793 524.379 346.307 524.803 346.893C525.035 347.189 525.241 347.501 525.419 347.828C525.524 348.029 525.589 348.247 525.612 348.47V353.073C525.612 355.786 525.612 358.445 525.612 361.086C525.612 382.08 525.612 400.453 525.612 415.654V451.043C525.612 455.113 525.612 458.249 525.612 460.394C525.612 461.439 525.612 462.228 525.612 462.796C525.628 463.065 525.628 463.334 525.612 463.603C525.612 463.603 525.612 463.328 525.612 462.796C525.612 462.264 525.612 461.439 525.612 460.394C525.612 458.249 525.612 455.113 525.515 451.043C525.515 442.828 525.361 430.873 525.246 415.709C525.13 400.545 525.053 382.135 524.938 361.141C524.938 358.5 524.938 355.841 524.938 353.128C524.938 351.789 524.938 350.414 524.938 349.039V348.525C524.905 348.413 524.866 348.303 524.822 348.195C524.652 347.917 524.465 347.647 524.264 347.388C523.859 346.838 523.378 346.325 522.916 345.793C519.064 341.686 514.635 337.762 510.167 333.746C501.174 325.715 491.526 317.501 481.435 309.029L481.724 309.139H340.086H206.593L206.921 308.993C194.153 321.388 182.04 333.16 170.967 343.831L171.083 343.575C170.986 383.456 170.909 416.351 170.852 439.289C170.852 450.731 170.755 459.679 170.717 465.822C170.717 468.847 170.717 471.176 170.717 472.771C170.717 474.366 170.37 475.173 170.37 475.173Z" fill="#263238"/>
<path d="M486.211 236.326C486.48 236.326 485.652 252.536 484.285 272.522C482.918 292.508 481.705 308.663 481.435 308.663C481.165 308.663 481.994 292.435 483.361 272.449C484.728 252.462 485.941 236.308 486.211 236.326Z" fill="#263238"/>
<path d="M122.824 260.2C127.1 259.848 131.407 260.039 135.63 260.769C139.906 261.183 144.103 262.146 148.109 263.629C148.109 263.886 142.466 262.639 135.495 261.704C128.524 260.769 122.804 260.494 122.824 260.2Z" fill="#263238"/>
<path d="M178.092 226.223C179.815 225.96 181.582 226.243 183.119 227.03C184.788 227.532 186.228 228.56 187.201 229.945C185.666 229.35 184.167 228.67 182.714 227.91C181.138 227.442 179.594 226.878 178.092 226.223Z" fill="#263238"/>
<path d="M545.485 270.798C551.496 266.1 558.669 262.944 566.322 261.63C566.322 261.905 561.43 263.281 555.692 265.848C549.953 268.415 545.659 271.037 545.485 270.798Z" fill="#263238"/>
<path d="M154.81 260.108C158.854 253.141 165.96 248.355 172.816 243.789C184.486 236.051 196.811 228.057 210.965 226.535C225.793 224.94 240.679 230.881 252.368 239.719C279.637 260.347 298.49 302.061 287.359 333.526C263.672 341.411 237.001 347.572 211.966 345.775C201.047 345.005 189.762 343.116 180.846 337.047C169.812 329.547 164.189 316.877 159.085 304.995C152.942 290.565 146.895 273.714 154.81 260.108Z" fill="#F5F5F5"/>
<path d="M209.039 338.99C209.202 338.754 209.396 338.538 209.617 338.349C210.04 337.945 210.637 337.34 211.543 336.643C213.884 334.617 216.396 332.777 219.053 331.142C227.867 325.824 237.601 322.037 247.804 319.957C257.977 317.911 268.32 316.726 278.712 316.419C282.679 316.254 285.895 316.162 288.129 316.144H290.69C290.99 316.099 291.296 316.099 291.596 316.144C290.456 316.329 289.304 316.433 288.148 316.455L278.751 317.024C268.392 317.536 258.091 318.811 247.939 320.838C237.834 322.901 228.162 326.558 219.323 331.656C216.638 333.222 214.064 334.956 211.62 336.845C210.808 337.611 209.946 338.328 209.039 338.99Z" fill="#FB923C"/>
<path d="M194.75 342.493C195.018 340.647 195.841 338.915 197.119 337.505C198.132 335.927 199.594 334.656 201.336 333.838C200.298 335.331 199.16 336.758 197.928 338.11C196.967 339.634 195.906 341.098 194.75 342.493Z" fill="#FB923C"/>
<path d="M271.375 288.566C273.557 287.152 276.036 286.208 278.641 285.8C281.245 285.391 283.911 285.528 286.454 286.201C286.454 286.494 282.968 286.054 278.751 286.732C274.534 287.411 271.51 288.841 271.375 288.566Z" fill="#FB923C"/>
<path d="M182.117 316.364C182.117 316.364 182.291 316.107 182.695 315.704L184.486 313.87C185.275 313.1 186.258 312.201 187.452 311.193C188.646 310.184 189.936 308.993 191.496 307.801C195.096 304.933 198.857 302.252 202.761 299.769C207.562 296.759 212.545 294.022 217.686 291.573C222.855 289.184 228.166 287.084 233.592 285.284C238.014 283.835 242.514 282.611 247.072 281.617C248.998 281.158 250.808 280.883 252.368 280.608C253.928 280.333 255.295 280.131 256.393 280.003L258.954 279.728C259.253 279.671 259.561 279.671 259.859 279.728C259.58 279.831 259.289 279.905 258.993 279.948L256.47 280.406C255.353 280.59 254.024 280.828 252.484 281.177C250.943 281.525 249.152 281.8 247.246 282.313C243.394 283.194 238.811 284.477 233.766 286.109C228.392 287.936 223.126 290.042 217.994 292.417C212.894 294.857 207.932 297.55 203.127 300.485C198.756 303.253 194.904 305.985 191.823 308.314C190.225 309.451 188.896 310.606 187.683 311.578C186.469 312.55 185.449 313.411 184.621 314.127L182.695 315.74C182.529 315.969 182.335 316.178 182.117 316.364Z" fill="#FB923C"/>
<path d="M163.129 313.907C163.973 311.606 165.539 309.609 167.616 308.186C169.599 306.648 172.036 305.738 174.588 305.582C174.703 305.894 171.41 306.701 168.233 308.956C165.055 311.211 163.418 314.108 163.129 313.907Z" fill="#FB923C"/>
<path d="M169.619 294.452C170.103 293.63 170.664 292.85 171.295 292.123C171.969 291.218 172.696 290.349 173.471 289.52C174.376 288.529 175.396 287.374 176.571 286.219C179.341 283.442 182.321 280.861 185.487 278.5C193.267 272.684 202.051 268.204 211.446 265.261C215.271 264.053 219.185 263.115 223.155 262.455C224.849 262.125 226.39 261.997 227.738 261.832C228.894 261.678 230.057 261.58 231.224 261.539C232.216 261.447 233.216 261.447 234.209 261.539C233.243 261.771 232.256 261.912 231.262 261.96C230.319 262.052 229.163 262.162 227.815 262.4C226.467 262.639 224.946 262.785 223.29 263.152C219.373 263.898 215.513 264.89 211.735 266.123C207.106 267.638 202.6 269.476 198.255 271.623C193.965 273.843 189.858 276.368 185.969 279.178C182.8 281.485 179.795 283.99 176.976 286.677C175.724 287.796 174.742 288.914 173.798 289.85C172.854 290.785 172.123 291.683 171.506 292.343C170.937 293.092 170.306 293.798 169.619 294.452Z" fill="#FB923C"/>
<path d="M153.019 290.876C154.015 288.833 155.51 287.046 157.38 285.664C159.249 284.283 161.438 283.348 163.765 282.937C163.861 283.212 160.934 284.202 157.988 286.421C155.041 288.639 153.27 291.041 153.019 290.876Z" fill="#FB923C"/>
<path d="M247.689 267.773C248.767 266.906 249.991 266.217 251.309 265.738C257.553 263.044 264.478 262.115 271.26 263.061C272.67 263.166 274.051 263.501 275.342 264.051C265.965 262.69 256.374 263.965 247.746 267.718L247.689 267.773Z" fill="#FB923C"/>
<path d="M210.83 253.911C211.273 253.501 211.772 253.149 212.313 252.866C213.295 252.224 214.759 251.38 216.627 250.409C221.521 247.922 226.687 245.954 232.032 244.541C237.354 243.126 242.825 242.277 248.343 242.011C250.018 241.921 251.696 241.921 253.37 242.011C254.018 241.975 254.668 242.037 255.295 242.194C255.295 242.341 252.676 242.359 248.497 242.707C237.564 243.616 226.902 246.444 217.05 251.05C213.16 252.774 210.926 254.057 210.83 253.911Z" fill="#FB923C"/>
<path d="M158.103 268.305C159.265 266.965 160.605 265.775 162.09 264.766C165.568 262.181 169.38 260.03 173.432 258.366C177.481 256.716 181.732 255.558 186.084 254.919C187.869 254.565 189.697 254.454 191.515 254.589C189.764 255.014 187.99 255.344 186.2 255.579C177.673 257.192 169.6 260.503 162.513 265.297C161.098 266.371 159.626 267.374 158.103 268.305Z" fill="#FB923C"/>
<path d="M151.594 267.094C151.44 266.874 152.557 265.921 154.059 264.967C155.561 264.014 156.929 263.391 157.083 263.611C157.237 263.831 156.12 264.802 154.618 265.756C153.116 266.709 151.748 267.314 151.594 267.094Z" fill="#FB923C"/>
<path d="M158.546 256.074C159.3 255.507 160.106 255.003 160.953 254.571C162.532 253.636 164.805 252.352 167.732 250.812C173.509 247.731 181.636 243.698 190.841 239.627C200.046 235.556 208.5 232.292 214.701 230.092C217.801 228.974 220.324 228.13 222.096 227.58C222.982 227.23 223.905 226.971 224.849 226.81C224.013 227.255 223.136 227.629 222.23 227.928L214.951 230.715C208.827 233.081 200.412 236.455 191.264 240.507C182.117 244.559 173.933 248.483 168.156 251.417L161.223 254.883C160.373 255.361 159.476 255.76 158.546 256.074Z" fill="#FB923C"/>
<path d="M226.621 345.793C227.391 345.526 228.193 345.353 229.009 345.28L235.557 344.18C241.103 343.263 248.729 341.924 257.125 340.237C265.521 338.55 273.051 336.808 278.501 335.525L284.952 333.985C285.737 333.761 286.543 333.608 287.359 333.526C286.625 333.866 285.857 334.136 285.067 334.333C283.565 334.81 281.389 335.433 278.674 336.167C273.263 337.634 265.733 339.485 257.317 341.172C248.902 342.859 241.237 344.106 235.672 344.84C232.88 345.206 230.627 345.481 229.067 345.628C228.258 345.753 227.44 345.808 226.621 345.793Z" fill="#263238"/>
<path d="M156.274 257.083C156.429 257.428 156.533 257.792 156.582 258.165L157.256 261.3C157.526 262.675 157.872 264.344 158.411 266.251C158.951 268.158 159.413 270.358 160.241 272.724C160.626 273.897 161.011 275.144 161.435 276.391C161.858 277.638 162.417 278.995 162.918 280.37C163.9 283.12 165.248 285.962 166.596 288.988C169.711 295.455 173.335 301.689 177.438 307.636C181.63 313.519 186.277 319.097 191.342 324.322C193.768 326.669 196.002 328.942 198.313 330.868C199.449 331.839 200.508 332.829 201.586 333.691L204.745 336.185C206.67 337.799 208.596 339.064 210.31 340.256C212.024 341.447 213.449 342.419 214.662 343.171L217.455 345.005C217.783 345.204 218.092 345.431 218.379 345.683C218.011 345.555 217.661 345.382 217.339 345.17L214.45 343.519C213.199 342.804 211.677 341.906 210.002 340.732C208.327 339.559 206.305 338.349 204.225 336.735L201.009 334.296C199.892 333.435 198.833 332.463 197.677 331.473C195.328 329.639 193.055 327.292 190.61 324.963C180.16 314.579 171.689 302.542 165.575 289.391C164.246 286.329 162.918 283.469 161.974 280.663C161.473 279.27 160.934 277.949 160.53 276.648C160.125 275.346 159.74 274.081 159.394 272.98C158.604 270.597 158.161 268.378 157.699 266.434C157.237 264.491 156.909 262.767 156.697 261.447C156.486 260.127 156.351 259.1 156.216 258.275C156.206 257.877 156.225 257.478 156.274 257.083Z" fill="#263238"/>
<path d="M175.936 323.258C176.469 319.5 178.243 316.001 181 313.265C180.366 315.017 179.54 316.701 178.535 318.289C177.848 320.025 176.977 321.69 175.936 323.258Z" fill="#263238"/>
<path d="M173.817 316.749C173.586 316.602 174.453 315.025 176.09 313.54C177.726 312.055 179.383 311.284 179.537 311.505C179.691 311.725 178.324 312.806 176.783 314.237C175.242 315.667 174.048 316.895 173.817 316.749Z" fill="#263238"/>
<path d="M173.047 269.221C170.796 270.851 168.725 272.694 166.865 274.722C165.192 276.91 163.892 279.336 163.014 281.91C162.835 281.09 162.902 280.239 163.206 279.453C163.73 277.519 164.668 275.708 165.96 274.135C167.682 271.791 170.176 270.062 173.047 269.221Z" fill="#263238"/>
<path d="M167.27 264.711C166.585 266.584 165.794 268.42 164.901 270.212C164.302 272.086 163.582 273.923 162.744 275.712C162.618 273.684 163.036 271.659 163.957 269.827C164.578 267.877 165.719 266.114 167.27 264.711Z" fill="#263238"/>
<path d="M218.572 272.229C219.358 271.975 220.172 271.809 220.998 271.733C221.946 271.56 222.904 271.444 223.867 271.385C225.147 271.262 226.433 271.201 227.719 271.202C229.274 271.165 230.829 271.208 232.379 271.33C234.074 271.33 235.845 271.678 237.733 271.935C245.866 273.255 253.608 276.219 260.437 280.626C261.978 281.672 263.46 282.643 264.731 283.707C265.952 284.639 267.116 285.637 268.217 286.696C269.144 287.545 270.025 288.438 270.855 289.373C271.515 290.048 272.126 290.765 272.685 291.518C273.222 292.121 273.687 292.779 274.071 293.48C273.917 293.59 271.857 290.858 267.716 287.173C266.677 286.274 265.54 285.339 264.212 284.33C262.883 283.322 261.458 282.368 259.936 281.36C253.154 277.108 245.545 274.197 237.559 272.797C235.73 272.522 233.977 272.21 232.321 272.119C230.665 272.027 229.125 271.898 227.7 271.862C222.076 271.807 218.591 272.43 218.572 272.229Z" fill="#263238"/>
<path d="M200.238 256.679C201.015 256.434 201.815 256.262 202.626 256.166C203.561 255.985 204.506 255.863 205.457 255.799C206.735 255.651 208.021 255.578 209.309 255.579C210.85 255.52 212.393 255.551 213.93 255.671C215.692 255.764 217.447 255.948 219.188 256.221C223.185 256.871 227.106 257.891 230.896 259.265C234.662 260.712 238.268 262.512 241.661 264.637C243.182 265.664 244.665 266.599 245.917 267.644C247.118 268.559 248.263 269.538 249.345 270.578C250.282 271.397 251.169 272.267 252.002 273.182C252.656 273.844 253.261 274.549 253.813 275.291C254.338 275.856 254.802 276.471 255.199 277.124C255.026 277.253 253.004 274.557 248.902 270.945C247.881 270.065 246.745 269.111 245.436 268.158C244.126 267.204 242.701 266.324 241.18 265.261C234.473 261.107 226.953 258.288 219.072 256.973C217.262 256.716 215.548 256.423 213.911 256.349C212.402 256.196 210.884 256.129 209.366 256.148C203.686 256.239 200.258 256.881 200.238 256.679Z" fill="#263238"/>
<path d="M205.939 205.76C205.939 205.76 272.011 147.084 284.451 133.002C292.693 123.651 308.484 119.764 318.171 118.333L352.468 113.089L423.721 119.195C423.954 119.135 424.2 119.135 424.433 119.195H425.011V119.378C434.64 123.577 483.419 171.691 483.419 171.691L497.785 135.661L531.581 142.757L518.486 217.679C510.09 231.632 497.303 237.335 483.457 228.369L435.699 193.53C433.773 216.982 429.19 279.105 433.33 291.683C437.971 305.765 299.164 279.893 299.164 279.893L310.429 184.215L257.202 222.904L256.412 223.839C266.657 236.546 276.016 249.748 278.924 263.262C273.648 271.733 262.902 274.924 248.632 274.722L203.608 226.7L205.939 205.76Z" fill="#455A64"/>
<path d="M431.385 241.442C431.339 241.144 431.339 240.842 431.385 240.544C431.385 239.847 431.481 238.985 431.539 237.977C431.712 235.593 431.944 232.476 432.232 228.534C432.906 220.429 433.811 209.501 434.813 197.362C435.814 185.224 436.642 174.332 437.297 166.191C437.567 162.322 437.779 159.131 437.952 156.748C437.952 155.739 438.048 154.914 438.087 154.181C438.086 153.882 438.131 153.586 438.221 153.3C438.256 153.599 438.256 153.9 438.221 154.199C438.221 154.896 438.221 155.739 438.221 156.766C438.221 159.003 438.087 162.267 437.894 166.227C437.49 174.222 436.7 185.242 435.679 197.399C434.659 209.556 433.638 220.539 432.829 228.57C432.406 232.439 432.059 235.611 431.809 237.977C431.674 239.003 431.558 239.81 431.481 240.544C431.491 240.846 431.459 241.148 431.385 241.442Z" fill="#263238"/>
<path d="M316.361 176.11C316.187 176.019 317.882 173.727 319.615 169.601C321.895 164.238 322.857 158.449 322.426 152.678C321.996 146.906 320.184 141.305 317.131 136.303C314.82 132.452 312.798 130.435 312.952 130.307C313.498 130.706 313.99 131.168 314.416 131.682C315.657 133.016 316.772 134.452 317.747 135.973C321.038 141 322.988 146.717 323.427 152.626C323.867 158.535 322.783 164.457 320.27 169.876C319.52 171.502 318.632 173.066 317.612 174.552C317.269 175.122 316.848 175.646 316.361 176.11Z" fill="#263238"/>
<path d="M222.962 205.833C223.435 205.591 223.951 205.436 224.484 205.375C225.904 205.111 227.351 205.006 228.797 205.063C233.624 205.364 238.279 206.89 242.277 209.482C246.197 212.042 249.734 215.095 252.792 218.559C254.157 219.899 255.377 221.367 256.432 222.941C254.942 221.735 253.552 220.424 252.272 219.017C249.111 215.74 245.578 212.807 241.738 210.271C237.885 207.79 233.458 206.235 228.836 205.742C226.878 205.665 224.917 205.695 222.962 205.833Z" fill="#263238"/>
<path d="M236.808 196.06C238.376 196.851 239.821 197.845 241.103 199.012C247.572 204.351 252.504 211.173 255.43 218.834C256.118 220.385 256.572 222.021 256.778 223.693C256.053 222.191 255.41 220.655 254.852 219.09C251.621 211.694 246.8 205.023 240.698 199.507C239.337 198.426 238.039 197.275 236.808 196.06Z" fill="#263238"/>
<path d="M490.794 208.657C490.794 208.657 490.332 208.29 489.639 207.539C488.661 206.461 487.778 205.308 487 204.091C485.822 202.293 484.817 200.396 483.996 198.426C483.016 196.003 482.274 193.498 481.782 190.944C481.34 188.382 481.153 185.785 481.223 183.188C481.304 181.067 481.582 178.956 482.051 176.881C482.363 175.488 482.788 174.121 483.322 172.792C483.707 171.857 483.938 171.343 484.015 171.38C484.093 171.417 483.38 173.525 482.744 177.009C481.948 181.568 481.948 186.221 482.744 190.779C483.587 195.329 485.228 199.712 487.597 203.743C489.427 206.824 490.91 208.547 490.794 208.657Z" fill="#263238"/>
<path d="M497.534 96.0182L507.837 92.0576L506.816 99.0803L502.464 102.289L505.873 105.626L504.101 117.857L496.283 108.45C495.59 107.613 495.129 106.623 494.944 105.572C494.759 104.521 494.855 103.442 495.223 102.436L497.534 96.0182Z" fill="#FFBE9D"/>
<path d="M538.803 117.93L526.266 141.694L502.734 136.761V108.432L537.59 102.748L538.803 117.93Z" fill="#FFBE9D"/>
<path d="M504.063 94.7164L506.547 77.5904C506.619 77.0952 506.839 76.6301 507.181 76.25C507.522 75.8699 507.97 75.5906 508.472 75.4451L536.685 66.442C537.143 66.293 537.635 66.2611 538.111 66.3495C538.587 66.4379 539.03 66.6436 539.397 66.946C539.763 67.2484 540.04 67.637 540.199 68.073C540.358 68.509 540.395 68.9772 540.305 69.4308L528.75 128.565C528.651 129.085 528.391 129.566 528.003 129.945C527.616 130.323 527.118 130.584 526.574 130.692L501.54 135.661C501.1 135.748 500.644 135.733 500.212 135.617C499.78 135.5 499.383 135.286 499.056 134.993C498.729 134.7 498.481 134.336 498.334 133.932C498.186 133.527 498.143 133.095 498.208 132.672L504.063 94.7164Z" fill="#263238"/>
<path d="M523.859 85.6033C523.638 85.9292 523.321 86.1855 522.947 86.3397C522.573 86.4939 522.16 86.5392 521.759 86.4697C521.358 86.4002 520.988 86.2191 520.695 85.9493C520.402 85.6796 520.2 85.3332 520.114 84.9541C520.028 84.5749 520.062 84.1799 520.211 83.8191C520.361 83.4583 520.619 83.1477 520.954 82.9268C521.289 82.7058 521.685 82.5844 522.093 82.5777C522.5 82.5711 522.9 82.6796 523.243 82.8896C523.699 83.1746 524.019 83.6188 524.134 84.1264C524.249 84.634 524.151 85.1644 523.859 85.6033Z" fill="#EBEBEB"/>
<path d="M539.072 75.4634C539.072 75.4634 543.29 75.4634 542.924 81.1476C542.571 86.3291 541.267 91.4117 539.072 96.1649C539.546 96.9117 539.797 97.7677 539.797 98.6403C539.797 99.5129 539.546 100.369 539.072 101.116C539.072 101.116 542.192 100.896 542.019 106.085C542.519 106.66 542.89 107.325 543.112 108.042C543.333 108.758 543.398 109.509 543.305 110.25C543.211 110.991 542.96 111.706 542.567 112.352C542.173 112.998 541.646 113.56 541.017 114.006C541.017 114.006 543.829 117.472 539.284 121.01C537.747 122.04 535.993 122.738 534.144 123.054C532.294 123.371 530.394 123.299 528.577 122.844L539.072 75.4634Z" fill="#FFBE9D"/>
<path d="M537.012 96.4216C533.661 98.5486 529.887 100.584 526.902 102.913C525.92 103.664 524.822 104.049 524.398 105.186C524.153 105.74 524.121 106.358 524.308 106.931C524.495 107.505 524.888 107.997 525.419 108.322C525.951 108.487 526.514 108.539 527.069 108.476C527.625 108.413 528.159 108.235 528.635 107.955C532.336 106.108 535.811 103.875 538.995 101.299" fill="#FFBE9D"/>
<path d="M537.59 102.748C534.239 104.875 530.445 106.91 527.479 109.239C526.497 109.99 525.4 110.375 524.957 111.512C524.717 112.068 524.69 112.686 524.88 113.259C525.07 113.832 525.465 114.324 525.997 114.648C526.526 114.81 527.085 114.861 527.637 114.798C528.189 114.734 528.72 114.558 529.193 114.281C532.898 112.438 536.373 110.206 539.554 107.625" fill="#FFBE9D"/>
<path d="M537.609 109.44C534.258 111.567 530.464 113.603 527.499 115.931C526.517 116.683 525.419 117.068 524.995 118.205C524.746 118.758 524.712 119.377 524.899 119.952C525.086 120.526 525.482 121.019 526.016 121.34C526.557 121.519 527.134 121.581 527.704 121.521C528.273 121.46 528.822 121.28 529.309 120.992C533.016 119.145 536.497 116.913 539.689 114.336" fill="#FFBE9D"/>
<path d="M538.784 101.482C538.687 101.354 536.376 103.059 533.43 104.966C530.484 106.873 527.961 108.267 528.038 108.413C532.054 106.781 535.702 104.428 538.784 101.482Z" fill="#EB996E"/>
<path d="M541.287 106.433C541.191 106.305 538.533 108.267 535.202 110.412C531.87 112.557 529.078 114.336 529.155 114.483C531.428 113.5 533.573 112.269 535.548 110.815C537.627 109.563 539.551 108.093 541.287 106.433Z" fill="#EB996E"/>
<path d="M541.21 113.841C539.152 114.76 537.18 115.846 535.317 117.086C533.343 118.146 531.474 119.373 529.733 120.754C531.799 119.837 533.777 118.752 535.645 117.508C537.614 116.451 539.477 115.224 541.21 113.841Z" fill="#EB996E"/>
<path d="M539.804 94.7347C539.689 94.6063 536.8 96.6967 533.045 99.007C529.29 101.317 526.112 103.004 526.209 103.151C526.981 102.95 527.719 102.648 528.404 102.253C530.107 101.409 531.766 100.485 533.372 99.4838C534.988 98.4903 536.55 97.4193 538.052 96.2749C538.708 95.8407 539.297 95.3224 539.804 94.7347Z" fill="#EB996E"/>
<path d="M300.55 488.045L297.623 524.075C297.623 524.075 248.979 534.545 247.323 542.632L336.908 554L345.574 490.319L300.55 488.045Z" fill="#455A64"/>
<g opacity="0.6">
<path d="M325.835 523.892C326.654 524.257 327.303 524.896 327.658 525.688C328.013 526.479 328.05 527.367 327.761 528.183C327.403 528.969 326.744 529.597 325.918 529.937C325.091 530.278 324.16 530.306 323.313 530.016C322.43 529.641 321.728 528.962 321.346 528.116C320.964 527.271 320.931 526.319 321.252 525.451C321.703 524.649 322.463 524.047 323.372 523.769C324.282 523.492 325.268 523.563 326.124 523.965" fill="white"/>
</g>
<g opacity="0.6">
<path d="M336.908 554L337.621 547.051L251.463 538.744C251.463 538.744 247.246 539.9 247.323 542.632L336.908 554Z" fill="white"/>
</g>
<path d="M296.294 523.452C296.294 523.874 298.413 524.332 300.377 525.946C302.341 527.559 303.246 529.466 303.67 529.338C304.094 529.21 303.786 526.734 301.378 524.827C298.971 522.92 296.179 523.049 296.294 523.452Z" fill="#263238"/>
<path d="M286.319 525.964C286.146 526.349 287.956 527.303 289.188 529.246C290.421 531.19 290.594 533.115 291.114 533.152C291.634 533.189 292.154 530.878 290.575 528.476C288.996 526.074 286.377 525.561 286.319 525.964Z" fill="#263238"/>
<path d="M279.483 535.994C279.868 536.122 280.754 534.16 279.964 531.703C279.175 529.246 277.23 528.036 276.998 528.439C276.767 528.843 277.865 530.145 278.481 532.107C279.098 534.069 278.963 535.902 279.483 535.994Z" fill="#263238"/>
<path d="M298.413 513.496C298.548 513.899 300.647 513.587 303.092 514.064C305.538 514.541 307.367 515.513 307.637 515.183C307.907 514.852 306.27 513.147 303.381 512.615C300.492 512.084 298.22 513.147 298.413 513.496Z" fill="#263238"/>
<path d="M299.491 504.602C300.91 505.181 302.471 505.372 303.997 505.153C305.648 505.082 307.284 504.824 308.869 504.382C309.813 504.109 310.738 503.785 311.643 503.411C312.179 503.203 312.679 502.919 313.125 502.567C313.453 502.309 313.681 501.955 313.775 501.56C313.869 501.166 313.824 500.753 313.645 500.385C313.468 500.065 313.213 499.79 312.901 499.583C312.59 499.375 312.231 499.242 311.854 499.193C311.286 499.111 310.708 499.111 310.14 499.193C309.156 499.295 308.183 499.479 307.233 499.743C305.623 500.199 304.102 500.898 302.726 501.815C300.396 503.374 299.472 504.841 299.607 504.951C299.741 505.061 300.974 503.924 303.304 502.696C304.656 501.974 306.099 501.42 307.598 501.045C308.484 500.835 309.385 500.694 310.294 500.624C311.277 500.495 312.085 500.624 312.22 501.027C312.355 501.43 312.22 501.265 312.066 501.504C311.726 501.745 311.358 501.948 310.969 502.109C310.133 502.479 309.278 502.81 308.407 503.099C306.921 503.571 305.394 503.915 303.843 504.126C302.383 504.19 300.929 504.349 299.491 504.602Z" fill="#263238"/>
<path d="M299.992 505.281C300.998 504.161 301.61 502.77 301.744 501.302C302.036 499.731 302.036 498.124 301.744 496.553C301.582 495.615 301.324 494.693 300.974 493.803C300.811 493.209 300.489 492.666 300.04 492.226C299.592 491.786 299.031 491.463 298.413 491.29C298.012 491.246 297.607 491.312 297.245 491.481C296.883 491.65 296.58 491.915 296.371 492.244C296.069 492.71 295.842 493.217 295.697 493.748C295.406 494.681 295.27 495.652 295.293 496.626C295.314 498.256 295.757 499.856 296.583 501.284C298.028 503.722 299.78 504.437 299.838 504.309C299.008 503.192 298.25 502.028 297.565 500.825C296.953 499.504 296.657 498.07 296.699 496.626C296.721 495.793 296.863 494.966 297.122 494.169C297.392 493.289 297.854 492.592 298.201 492.739C298.547 492.886 299.299 493.564 299.568 494.334C299.916 495.126 300.18 495.949 300.358 496.791C300.667 498.226 300.758 499.696 300.627 501.155C300.435 503.686 299.761 505.189 299.992 505.281Z" fill="#263238"/>
<path d="M345.574 490.319L349.888 462.356L301.975 460.137L300.55 488.045L345.574 490.319Z" fill="#FFBE9D"/>
<path d="M434.043 395.172L449.237 428.287C449.237 428.287 498.786 422.988 503.157 430.121L422.45 468.865L392.293 411.4L434.043 395.172Z" fill="#455A64"/>
<g opacity="0.6">
<path d="M422.527 436.942C421.87 437.54 421.468 438.348 421.397 439.21C421.326 440.072 421.591 440.929 422.141 441.618C422.745 442.259 423.583 442.658 424.484 442.733C425.385 442.807 426.283 442.553 426.994 442.021C427.699 441.392 428.129 440.534 428.2 439.617C428.272 438.7 427.979 437.791 427.38 437.07C426.681 436.452 425.758 436.118 424.804 436.138C423.851 436.159 422.944 436.533 422.276 437.18" fill="white"/>
</g>
<g opacity="0.6">
<path d="M422.45 468.847L419.368 462.503L497.9 427.664C497.9 427.664 502.272 427.426 503.157 430.029L422.45 468.847Z" fill="white"/>
</g>
<path d="M450.354 427.206C450.546 427.572 448.659 428.691 447.369 430.873C446.078 433.055 445.867 435.072 445.443 435.109C445.019 435.145 444.442 432.688 446.059 430.121C447.677 427.554 450.238 426.894 450.354 427.206Z" fill="#263238"/>
<path d="M460.56 426.546C460.849 426.857 459.482 428.379 458.981 430.543C458.48 432.706 458.981 434.65 458.577 434.815C458.172 434.98 456.805 432.981 457.479 430.231C458.153 427.481 460.367 426.179 460.56 426.546Z" fill="#263238"/>
<path d="M470.478 433.88C470.17 434.137 468.552 432.523 468.552 429.974C468.552 427.426 469.881 425.739 470.208 425.977C470.535 426.215 469.996 427.811 470.092 429.938C470.189 432.065 470.863 433.66 470.478 433.88Z" fill="#263238"/>
<path d="M444.827 418.551C444.827 418.973 442.766 419.321 440.609 420.531C438.453 421.741 437.085 423.263 436.758 423.025C436.431 422.787 437.355 420.678 439.897 419.266C442.439 417.854 444.865 418.166 444.827 418.551Z" fill="#263238"/>
<path d="M440.725 410.501C439.572 411.444 438.176 412.077 436.681 412.335C435.092 412.797 433.449 413.068 431.789 413.142C430.808 413.205 429.824 413.205 428.843 413.142C428.264 413.13 427.691 413.025 427.148 412.83C426.764 412.69 426.437 412.436 426.216 412.106C425.994 411.776 425.889 411.387 425.916 410.996C425.973 410.64 426.118 410.301 426.339 410.008C426.56 409.715 426.851 409.476 427.187 409.309C427.694 409.054 428.24 408.875 428.805 408.778C429.772 408.565 430.759 408.436 431.751 408.393C433.426 408.322 435.103 408.501 436.719 408.924C439.454 409.695 440.84 410.758 440.744 410.923C440.648 411.088 439.107 410.391 436.469 409.933C434.943 409.682 433.391 409.614 431.847 409.731C430.944 409.809 430.049 409.957 429.17 410.171C428.188 410.373 427.457 410.703 427.437 411.18C427.437 411.363 427.437 411.418 427.745 411.565C428.15 411.696 428.571 411.776 428.997 411.803C429.912 411.89 430.831 411.933 431.751 411.932C433.315 411.925 434.876 411.777 436.411 411.491C437.821 411.057 439.263 410.726 440.725 410.501Z" fill="#263238"/>
<path d="M440.513 411.272C440.417 411.4 438.915 410.428 437.49 408.081C436.663 406.687 436.096 405.167 435.814 403.589C435.635 402.658 435.564 401.711 435.602 400.765C435.545 400.151 435.658 399.534 435.928 398.975C436.198 398.415 436.617 397.933 437.143 397.574C437.507 397.412 437.913 397.351 438.312 397.4C438.711 397.449 439.087 397.605 439.396 397.849C439.853 398.191 440.249 398.599 440.571 399.06C442.14 401.192 442.769 403.825 442.323 406.394C441.803 409.145 440.398 410.391 440.282 410.281C440.687 408.962 441.008 407.621 441.245 406.266C441.356 404.833 441.14 403.394 440.609 402.048C440.295 401.266 439.875 400.526 439.358 399.848C438.799 399.096 438.125 398.601 437.856 398.821C437.591 399.075 437.388 399.38 437.258 399.715C437.129 400.051 437.076 400.409 437.105 400.765C437.058 401.622 437.09 402.481 437.201 403.332C437.407 404.787 437.828 406.207 438.453 407.549C439.531 409.915 440.725 411.125 440.513 411.272Z" fill="#263238"/>
<path d="M392.293 411.4L378.581 386.334L423.085 369.263L434.043 395.172L392.293 411.4Z" fill="#FFBE9D"/>
<path d="M296.641 351.752C296.641 351.752 278.462 348.544 275.285 342.493C272.107 336.442 288.283 269.148 307.675 229.799C328.859 186.617 373.151 199.599 383.723 214.8C402.306 241.442 431.347 373.957 431.347 373.957L379.91 392.294L327.241 272.192C327.241 272.192 317.227 266.893 308.195 273.402C299.164 279.911 296.641 351.752 296.641 351.752Z" fill="#263238"/>
<path d="M360.248 464.996C358.322 464.391 292.327 464.996 292.327 464.996L296.294 348.452L300.146 269.056L348.289 257.725L405.676 272.119C405.676 272.119 443.498 285.522 445.385 307.269C446.537 320.338 446.537 333.476 445.385 346.545C425.71 354.328 404.462 357.842 383.184 356.832L370.532 352.027L360.248 464.996Z" fill="#263238"/>
<path d="M405.58 272.119C405.744 272.439 405.867 272.778 405.946 273.127C406.158 273.897 406.447 274.851 406.793 276.042C407.506 278.701 408.488 282.35 409.701 286.806C412.108 295.974 415.267 308.552 418.714 322.488C422.161 336.423 425.377 349.057 427.726 358.17C428.882 362.644 429.806 366.293 430.499 368.97C430.788 370.162 431.019 371.152 431.212 371.922C431.321 372.261 431.379 372.613 431.385 372.967C431.233 372.648 431.111 372.317 431.019 371.977C430.769 371.207 430.48 370.254 430.114 369.062C429.363 366.55 428.323 362.882 427.052 358.335C424.51 349.259 421.275 336.662 417.732 322.708C414.188 308.754 411.261 296.231 409.008 286.971C407.93 282.497 407.082 278.811 406.408 276.134L405.753 273.164C405.643 272.825 405.585 272.473 405.58 272.119Z" fill="#455A64"/>
<path d="M296.294 397.373C296.265 397.135 296.265 396.895 296.294 396.658C296.294 396.132 296.294 395.417 296.294 394.512C296.294 392.569 296.294 389.8 296.294 386.261C296.294 379.11 296.294 368.768 296.41 355.97C296.525 343.171 296.795 327.934 297.45 311.028C297.854 302.575 298.201 293.7 299.376 284.514C299.809 279.776 301.25 275.172 303.612 270.982C304.921 268.818 306.852 267.056 309.178 265.903C311.573 264.809 314.281 264.5 316.881 265.022C319.456 265.558 321.867 266.649 323.929 268.213C325.919 269.768 327.624 271.627 328.974 273.714C331.445 277.821 333.557 282.113 335.291 286.549L345.978 311.064C352.776 326.669 358.9 340.751 364.042 352.577L376.136 380.595C377.522 383.877 378.62 386.444 379.371 388.241L380.199 390.24C380.3 390.46 380.384 390.687 380.449 390.918C380.305 390.72 380.188 390.504 380.103 390.277L379.197 388.315C378.389 386.481 377.272 383.987 375.77 380.742L363.31 352.761C358.111 340.952 351.929 326.907 345.054 311.321C341.626 303.51 338.044 295.344 334.308 286.824C332.583 282.474 330.497 278.262 328.069 274.227C326.782 272.231 325.155 270.453 323.255 268.965C321.325 267.486 319.055 266.462 316.63 265.976C314.232 265.461 311.721 265.733 309.505 266.746C307.351 267.829 305.562 269.469 304.344 271.477C302.053 275.562 300.651 280.047 300.223 284.66C299.029 293.737 298.682 302.63 298.297 311.064C297.585 327.952 297.277 343.189 297.045 355.97C296.814 368.75 296.699 379.055 296.602 386.261C296.602 389.8 296.506 392.569 296.487 394.512C296.487 395.411 296.487 396.126 296.487 396.658C296.449 396.902 296.385 397.141 296.294 397.373Z" fill="#455A64"/>
<path d="M423.22 9.72837C416.152 7.14297 408.161 12.7721 400.862 10.8835C396.433 9.72835 393.294 6.06111 389.462 3.65908C386.453 1.81004 383.034 0.652082 379.475 0.276591C375.916 -0.098899 372.313 0.318364 368.953 1.49543C362.617 4.04415 358.438 6.99626 357.128 13.3406C351.794 9.9117 342.011 15.9443 338.353 22.1603C334.694 28.3762 334.982 34.9956 336.253 42.0916C338.457 54.2078 343.135 65.7949 350.023 76.1969C350.639 77.1137 351.64 78.1588 352.699 77.7554C353.431 77.4987 353.739 76.6736 353.913 75.9218C355.453 69.6875 355.106 63.1966 355.029 56.7972C354.952 50.3979 355.145 43.8152 357.725 37.911C360.306 32.0068 365.698 26.7993 372.361 26.0292C377.362 25.7011 382.322 27.072 386.361 29.8981C390.502 32.5202 394.064 35.8574 397.916 38.7728C401.697 41.885 406.297 43.9578 411.223 44.7687C416.152 45.3188 421.622 43.4668 424.067 39.2679C426.513 35.0689 424.587 28.908 419.811 27.6061C422.077 27.5705 424.259 26.7858 425.983 25.3865C427.708 23.9871 428.867 22.0603 429.264 19.9361C429.66 17.8119 429.267 15.6227 428.154 13.7437C427.041 11.8646 425.276 10.4127 423.162 9.63668L423.22 9.72837Z" fill="#263238"/>
<path d="M346.518 44.7504L348.251 116.5C348.559 128.712 361.153 139.017 373.94 138.136C385.88 137.311 393.39 126.86 393.101 115.473C392.947 110.082 392.851 105.571 392.87 105.021C392.87 105.021 412.012 102.876 412.975 84.8515C413.418 76.1052 412.821 58.0074 412.089 41.6333C411.689 33.1559 407.957 25.1316 401.631 19.1533C395.306 13.175 386.852 9.67983 377.946 9.36163H376.116C356.281 9.6 345.555 25.8642 346.518 44.7504Z" fill="#FFBE9D"/>
<path d="M392.928 104.765C384.132 104.606 375.584 101.957 368.375 97.1551C368.375 97.1551 373.728 110.412 392.774 109.459L392.928 104.765Z" fill="#EB996E"/>
<path d="M406.254 55.1286C406.234 55.8064 405.937 56.45 405.426 56.9225C404.916 57.3951 404.232 57.6593 403.52 57.659C403.174 57.6688 402.83 57.6133 402.507 57.4958C402.184 57.3783 401.889 57.2011 401.638 56.9744C401.387 56.7476 401.186 56.4759 401.047 56.1749C400.907 55.8738 400.831 55.5494 400.824 55.2203C400.843 54.5457 401.138 53.9048 401.644 53.4328C402.151 52.9608 402.83 52.6944 403.539 52.6899C403.886 52.6777 404.232 52.7313 404.557 52.8477C404.883 52.9641 405.18 53.141 405.433 53.3679C405.685 53.5949 405.888 53.8674 406.029 54.1697C406.17 54.472 406.247 54.798 406.254 55.1286Z" fill="#263238"/>
<path d="M407.641 50.2879C407.294 50.618 405.291 49.0961 402.364 49.0044C399.437 48.9127 397.242 50.2146 396.934 49.8662C396.625 49.5178 397.165 49.1144 398.108 48.491C399.414 47.7087 400.939 47.3248 402.48 47.3908C403.998 47.4418 405.461 47.9488 406.659 48.8393C407.544 49.4811 407.814 50.1596 407.641 50.2879Z" fill="#263238"/>
<path d="M378.369 55.1287C378.349 55.8033 378.055 56.4441 377.549 56.9162C377.042 57.3882 376.363 57.6546 375.654 57.659C375.307 57.6713 374.961 57.6176 374.636 57.5012C374.31 57.3849 374.013 57.208 373.76 56.9811C373.508 56.7541 373.305 56.4816 373.164 56.1793C373.023 55.877 372.946 55.551 372.939 55.2203C372.959 54.5426 373.256 53.899 373.767 53.4265C374.277 52.9539 374.961 52.6897 375.673 52.6899C376.02 52.6777 376.365 52.7314 376.689 52.848C377.013 52.9647 377.309 53.1418 377.561 53.369C377.812 53.5962 378.013 53.8689 378.152 54.1711C378.291 54.4732 378.365 54.7988 378.369 55.1287Z" fill="#263238"/>
<path d="M378.87 49.7928C378.523 50.1229 376.521 48.601 373.594 48.491C370.666 48.3809 368.471 49.7195 368.182 49.3711C367.893 49.0227 368.394 48.6193 369.357 47.9959C370.658 47.2181 372.174 46.8286 373.709 46.8774C375.231 46.9299 376.695 47.4438 377.888 48.3443C378.774 49.0227 379.101 49.6461 378.87 49.7928Z" fill="#263238"/>
<path d="M388.73 70.8244C390.292 70.4095 391.904 70.1877 393.525 70.1643C394.276 70.1643 394.989 70.0176 395.123 69.5225C395.216 68.791 395.075 68.0498 394.719 67.3956L392.793 61.8947C390.02 54.0835 388.056 47.6659 388.383 47.5558C388.711 47.4458 391.233 53.6985 393.987 61.528C394.661 63.3616 395.297 65.1952 395.913 67.0288C396.354 67.9023 396.456 68.896 396.202 69.8343C396.08 70.0783 395.902 70.2936 395.683 70.4648C395.463 70.636 395.206 70.7588 394.931 70.8244C394.508 70.9168 394.075 70.96 393.641 70.9528C392.004 71.0968 390.356 71.0537 388.73 70.8244Z" fill="#263238"/>
<path d="M380.006 72.438C380.468 72.438 380.372 75.4451 382.991 77.7004C385.61 79.9558 389.019 79.7174 389.038 80.1391C389.057 80.5609 388.248 80.7076 386.823 80.6892C384.967 80.6648 383.179 80.0152 381.778 78.8556C380.439 77.7283 379.611 76.1511 379.467 74.4549C379.409 73.1531 379.775 72.4196 380.006 72.438Z" fill="#263238"/>
<path d="M380.064 38.9011C379.737 39.6529 376.829 39.1945 373.401 39.4695C369.973 39.7446 367.142 40.5331 366.699 39.8363C366.526 39.5062 367.027 38.8095 368.182 38.1127C369.708 37.2639 371.418 36.7597 373.181 36.6389C374.944 36.5181 376.712 36.7839 378.35 37.4159C379.583 37.9293 380.199 38.4794 380.064 38.9011Z" fill="#263238"/>
<path d="M406.89 42.1466C406.35 42.7517 404.348 42.0366 401.94 41.9083C399.533 41.7799 397.454 42.1833 396.991 41.5049C396.799 41.1748 397.145 40.5514 398.07 39.983C399.303 39.3072 400.719 38.9953 402.138 39.0867C403.557 39.1781 404.916 39.6687 406.042 40.4964C406.87 41.2298 407.121 41.8899 406.89 42.1466Z" fill="#263238"/>
<path d="M347.538 58.2091C347.23 58.0808 334.617 54.0652 334.54 66.4787C334.462 78.8923 347.558 76.3802 347.577 76.0318C347.596 75.6835 347.538 58.2091 347.538 58.2091Z" fill="#FFBE9D"/>
<path d="M343.629 71.3011C343.629 71.3011 343.398 71.4661 343.013 71.6312C342.467 71.8302 341.864 71.8302 341.318 71.6312C340.481 71.1202 339.802 70.4054 339.351 69.5609C338.901 68.7163 338.696 67.7725 338.757 66.8271C338.726 65.7603 338.95 64.7006 339.412 63.7283C339.537 63.3423 339.758 62.9907 340.057 62.7034C340.355 62.4161 340.722 62.2016 341.126 62.078C341.386 62.0159 341.662 62.0424 341.904 62.1528C342.147 62.2633 342.341 62.4508 342.454 62.6831C342.628 63.0315 342.454 63.2699 342.608 63.2882C342.762 63.3066 342.897 63.0865 342.801 62.5731C342.722 62.2685 342.539 61.9976 342.281 61.803C342.105 61.6723 341.905 61.5759 341.69 61.5193C341.475 61.4626 341.251 61.4469 341.029 61.4729C340.504 61.563 340.011 61.7785 339.597 62.0992C339.183 62.4198 338.861 62.8352 338.661 63.3065C338.087 64.3778 337.809 65.5703 337.852 66.7721C337.766 67.8774 338.032 68.9817 338.616 69.9404C339.2 70.8991 340.075 71.6673 341.126 72.1446C341.476 72.2395 341.845 72.2591 342.204 72.202C342.564 72.1449 342.906 72.0126 343.205 71.8145C343.61 71.6128 343.687 71.3378 343.629 71.3011Z" fill="#EB996E"/>
<path d="M416.249 37.9293C411.994 38.8086 407.581 38.7136 403.373 37.6521C399.165 36.5906 395.281 34.5929 392.042 31.8234C387.574 27.9178 384.204 22.4169 378.466 20.51C376.506 19.9413 374.447 19.7474 372.407 19.9394C370.368 20.1313 368.389 20.7054 366.584 21.6285C362.986 23.5091 359.833 26.0744 357.321 29.1646C360.633 38.4977 357.764 48.6926 354.895 58.1541C354.686 59.2344 354.111 60.2199 353.258 60.9595C351.679 62.0413 349.406 61.0695 348.116 59.6943C346.233 57.3095 345.116 54.4563 344.9 51.4797C343.795 44.7649 344.11 37.9076 345.824 31.3099C347.553 24.7193 351.268 18.7537 356.512 14.1473C363.329 8.65096 372.111 5.87243 381.027 6.39114C389.925 6.94905 398.413 10.1563 405.291 15.5592C408.607 17.9251 411.253 21.0375 412.994 24.6173" fill="#263238"/>
<path d="M428.496 14.2941C428.531 14.6551 428.479 15.019 428.342 15.3575C427.989 16.3593 427.315 17.231 426.417 17.8513C424.967 18.7934 423.241 19.2747 421.487 19.2265C420.406 19.2458 419.326 19.1411 418.271 18.9148C417.048 18.6848 415.916 18.1392 414.997 17.3379C414.483 16.8903 414.083 16.3377 413.826 15.7215C413.569 15.1054 413.463 14.4417 413.514 13.7806C413.644 13.0631 413.984 12.3952 414.495 11.8535C415.006 11.3118 415.667 10.9184 416.403 10.7185C417.158 10.4761 417.963 10.407 418.752 10.5168C419.577 10.6481 420.342 11.0122 420.948 11.562C421.557 12.1315 422.031 12.8192 422.337 13.5786C422.642 14.3379 422.773 15.151 422.719 15.9626C422.619 17.675 421.817 19.2815 420.485 20.4367C419.126 21.6127 417.466 22.4283 415.671 22.802C411.903 23.4899 408.002 22.9473 404.598 21.2618C401.238 19.6585 398.084 17.6895 395.2 15.3942C392.531 13.3034 389.684 11.4267 386.689 9.78337C383.978 8.32667 380.941 7.5093 377.83 7.39967C375.116 7.37896 372.432 7.93654 369.973 9.03159C366.401 10.648 363.324 13.1102 361.038 16.1827C360.399 17.0101 359.814 17.8734 359.285 18.7681C359.11 19.083 358.917 19.389 358.708 19.6849C358.708 19.6849 358.708 19.5932 358.804 19.4282C358.9 19.2632 358.996 19.0065 359.17 18.6947C359.668 17.7811 360.227 16.8991 360.845 16.0543C363.081 12.8694 366.164 10.3068 369.781 8.62819C372.294 7.48382 375.044 6.88868 377.83 6.88626C381.033 6.96907 384.166 7.79351 386.958 9.28829C389.994 10.9318 392.88 12.8148 395.586 14.9175C398.451 17.1716 401.57 19.115 404.887 20.7117C408.163 22.3254 411.91 22.8545 415.536 22.2153C417.226 21.8756 418.79 21.1093 420.062 19.9966C421.288 18.9536 422.029 17.4893 422.122 15.926C422.179 15.1948 422.069 14.4607 421.8 13.7738C421.531 13.087 421.109 12.4638 420.562 11.947C420.036 11.4834 419.383 11.1692 418.679 11.0396C417.975 10.91 417.246 10.9703 416.576 11.2136C415.931 11.3717 415.346 11.7028 414.892 12.1675C414.438 12.6322 414.134 13.2112 414.015 13.8356C413.966 14.4271 414.058 15.0215 414.285 15.5741C414.512 16.1268 414.867 16.6232 415.324 17.0261C416.179 17.7816 417.229 18.3069 418.367 18.548C419.39 18.7705 420.437 18.8812 421.487 18.8781C423.172 18.9565 424.841 18.5336 426.263 17.6679C427.136 17.0855 427.806 16.2683 428.188 15.3209C428.317 14.9863 428.42 14.6431 428.496 14.2941Z" fill="#455A64"/>
<path d="M335.618 32.7402C336.863 33.2243 338.152 33.5988 339.47 33.8587C340.938 34.0408 342.43 33.9473 343.86 33.5836C345.604 33.1273 347.271 32.4357 348.809 31.53C351.611 29.8431 353.75 27.323 354.895 24.3606C355.328 23.1134 355.669 21.839 355.915 20.5466C355.981 20.9045 355.981 21.2706 355.915 21.6285C355.828 22.6016 355.621 23.5616 355.299 24.4889C354.23 27.6181 352.043 30.2913 349.117 32.0434C347.525 32.9967 345.782 33.7023 343.956 34.1337C342.458 34.4938 340.896 34.55 339.373 34.2987C338.351 34.1203 337.363 33.7925 336.446 33.3269C336.139 33.174 335.86 32.976 335.618 32.7402Z" fill="#455A64"/>
<path d="M335.83 41.7249C335.83 41.6149 337.37 41.9816 339.816 41.945C343.02 41.8856 346.153 41.0324 348.906 39.4696C351.63 37.8682 353.862 35.6101 355.376 32.9236C356.551 30.8699 356.897 29.4214 357.013 29.458C357.005 29.8078 356.94 30.1542 356.82 30.4849C356.569 31.3965 356.221 32.2813 355.781 33.1253C354.331 35.9598 352.059 38.3395 349.233 39.983C346.393 41.6101 343.13 42.4426 339.816 42.385C338.824 42.3668 337.836 42.25 336.87 42.0366C336.508 41.9868 336.157 41.8816 335.83 41.7249Z" fill="#455A64"/>
<path d="M368.702 61.2896C368.611 61.2952 368.521 61.2682 368.45 61.2139C368.379 61.1597 368.331 61.082 368.317 60.9962C368.309 60.9552 368.309 60.913 368.318 60.8722C368.327 60.8313 368.345 60.7927 368.37 60.7585C368.395 60.7243 368.428 60.6952 368.465 60.6731C368.502 60.6509 368.543 60.6361 368.587 60.6295C368.63 60.6215 368.675 60.6226 368.718 60.6326C368.761 60.6426 368.801 60.6612 368.836 60.6873C368.87 60.7134 368.899 60.7463 368.919 60.7838C368.939 60.8213 368.951 60.8624 368.953 60.9045C368.97 60.987 368.954 61.0728 368.908 61.1444C368.861 61.2159 368.788 61.2679 368.702 61.2896Z" fill="#EB996E"/>
<path d="M374.325 60.2811C374.23 60.2815 374.137 60.248 374.066 60.1869C373.995 60.1259 373.95 60.0418 373.94 59.951C373.921 59.859 373.938 59.7635 373.988 59.6825C374.037 59.6014 374.116 59.5405 374.21 59.511C374.302 59.5221 374.388 59.5617 374.454 59.6237C374.52 59.6857 374.563 59.7666 374.576 59.8541C374.589 59.9416 374.572 60.0307 374.526 60.1079C374.481 60.185 374.41 60.2458 374.325 60.2811Z" fill="#EB996E"/>
<path d="M378.1 60.3178C377.927 60.3178 377.753 60.1161 377.734 59.841C377.715 59.566 377.734 59.3276 378.004 59.3276C378.273 59.3276 378.35 59.511 378.369 59.786C378.389 60.0611 378.273 60.2995 378.1 60.3178Z" fill="#EB996E"/>
<path d="M371.398 64.7184C371.206 64.7184 371.071 64.6267 371.071 64.5167C371.071 64.4067 371.225 64.315 371.398 64.3333C371.572 64.3517 371.726 64.425 371.726 64.535C371.726 64.6451 371.495 64.7367 371.398 64.7184Z" fill="#EB996E"/>
<path d="M376.482 63.765C376.39 63.765 376.302 63.7302 376.237 63.6683C376.172 63.6064 376.136 63.5225 376.136 63.4349C376.136 63.394 376.144 63.3535 376.16 63.3156C376.177 63.2778 376.201 63.2435 376.231 63.2145C376.262 63.1856 376.298 63.1626 376.338 63.147C376.377 63.1313 376.42 63.1232 376.463 63.1232C376.506 63.1232 376.549 63.1313 376.588 63.147C376.628 63.1626 376.664 63.1856 376.694 63.2145C376.725 63.2435 376.749 63.2778 376.765 63.3156C376.782 63.3535 376.79 63.394 376.79 63.4349C376.791 63.5165 376.76 63.5953 376.703 63.6563C376.646 63.7172 376.567 63.7559 376.482 63.765Z" fill="#EB996E"/>
<path d="M403.269 61.693C403.178 61.6986 403.088 61.6717 403.017 61.6174C402.946 61.5631 402.898 61.4855 402.884 61.3996C402.871 61.3128 402.891 61.2244 402.94 61.1503C402.99 61.0763 403.066 61.0216 403.154 60.9962C403.243 60.991 403.33 61.0186 403.398 61.0732C403.466 61.1278 403.51 61.2053 403.52 61.2896C403.531 61.3318 403.534 61.3757 403.528 61.4188C403.521 61.4619 403.506 61.5034 403.483 61.5409C403.459 61.5784 403.429 61.6112 403.392 61.6373C403.355 61.6634 403.314 61.6823 403.269 61.693Z" fill="#EB996E"/>
<path d="M407.082 61.4913C406.909 61.4913 406.755 61.3446 406.736 61.1246C406.716 60.9046 406.87 60.7212 407.044 60.7212C407.217 60.7212 407.371 60.8679 407.39 61.0879C407.41 61.3079 407.275 61.4913 407.082 61.4913Z" fill="#EB996E"/>
<path d="M399.899 61.6563C399.859 61.6709 399.817 61.6769 399.774 61.6738C399.731 61.6708 399.69 61.6587 399.653 61.6387C399.616 61.6186 399.584 61.5909 399.559 61.5576C399.535 61.5244 399.518 61.4863 399.511 61.4463C399.504 61.4062 399.506 61.3651 399.517 61.326C399.529 61.2868 399.549 61.2505 399.577 61.2198C399.605 61.189 399.64 61.1645 399.679 61.148C399.718 61.1316 399.76 61.1236 399.803 61.1246C399.882 61.1081 399.965 61.122 400.033 61.1632C400.102 61.2043 400.15 61.2695 400.169 61.3446C400.174 61.3822 400.171 61.4204 400.16 61.4569C400.15 61.4934 400.131 61.5273 400.106 61.5566C400.08 61.5859 400.049 61.6099 400.013 61.627C399.978 61.6442 399.939 61.6542 399.899 61.6563Z" fill="#EB996E"/>
<path d="M402.576 65.3785C402.534 65.3928 402.49 65.3989 402.446 65.3964C402.402 65.3939 402.358 65.3829 402.319 65.364C402.279 65.3452 402.244 65.3189 402.215 65.2867C402.187 65.2545 402.165 65.2171 402.152 65.1768C402.128 65.1385 402.112 65.0956 402.107 65.051C402.101 65.0064 402.106 64.9612 402.12 64.9185C402.135 64.8758 402.159 64.8366 402.191 64.8036C402.223 64.7705 402.262 64.7444 402.305 64.7271C402.349 64.7097 402.396 64.7015 402.443 64.703C402.49 64.7045 402.536 64.7157 402.578 64.7357C402.62 64.7558 402.658 64.7843 402.687 64.8193C402.717 64.8543 402.738 64.8949 402.749 64.9385C402.769 64.9781 402.779 65.0211 402.781 65.0648C402.783 65.1085 402.775 65.1521 402.759 65.193C402.743 65.234 402.719 65.2715 402.687 65.3033C402.656 65.3352 402.618 65.3607 402.576 65.3785Z" fill="#EB996E"/>
<path d="M405.85 64.8834C405.774 64.862 405.711 64.8141 405.671 64.7493C405.632 64.6846 405.62 64.6079 405.638 64.5351C405.653 64.501 405.674 64.4701 405.702 64.4441C405.729 64.4182 405.762 64.3978 405.798 64.3841C405.834 64.3704 405.872 64.3637 405.911 64.3645C405.95 64.3652 405.988 64.3734 406.023 64.3884C406.102 64.4059 406.17 64.4523 406.214 64.5175C406.257 64.5827 406.271 64.6614 406.254 64.7368C406.217 64.8039 406.155 64.8558 406.081 64.8828C406.007 64.9098 405.924 64.91 405.85 64.8834Z" fill="#EB996E"/>
<path d="M338.295 74.4916C337.947 75.382 337.79 76.3296 337.833 77.2787C337.91 78.2883 338.376 79.2352 339.142 79.9375C339.59 80.3603 340.141 80.6717 340.746 80.8443C341.35 81.017 341.99 81.0456 342.608 80.9276C343.222 80.7954 343.788 80.5125 344.251 80.1072C344.714 79.7018 345.057 79.1882 345.247 78.6173C345.45 77.6336 345.301 76.6134 344.823 75.7201C344.417 74.8417 343.789 74.073 342.994 73.4831C342.994 73.3731 344.303 73.8132 345.227 75.5184C345.832 76.4961 346.044 77.649 345.824 78.764C345.62 79.4437 345.228 80.0589 344.69 80.5458C344.151 81.0327 343.486 81.3734 342.763 81.5327C342.041 81.6731 341.293 81.6376 340.589 81.4292C339.886 81.2208 339.249 80.8464 338.738 80.3409C337.884 79.5411 337.394 78.4552 337.37 77.3154C337.345 76.5716 337.497 75.8321 337.813 75.1517C338.064 74.6933 338.256 74.4733 338.295 74.4916Z" fill="#263238"/>
<path d="M338.41 72.3829C338.41 72.3829 338.892 72.5663 339.104 73.2631C339.22 73.6787 339.179 74.1201 338.988 74.5099C338.866 74.7539 338.689 74.9693 338.469 75.1405C338.249 75.3116 337.992 75.4344 337.717 75.5001C337.435 75.5577 337.142 75.5494 336.864 75.476C336.585 75.4026 336.33 75.2661 336.119 75.0783C335.946 74.9233 335.817 74.7297 335.743 74.5152C335.669 74.3007 335.653 74.072 335.695 73.8498C335.83 73.098 336.388 72.9147 336.388 72.988C336.388 73.0614 336.138 73.3364 336.138 73.8865C336.136 74.0343 336.17 74.1805 336.237 74.3139C336.304 74.4474 336.402 74.5646 336.523 74.6566C336.669 74.7717 336.839 74.8545 337.022 74.8989C337.205 74.9433 337.397 74.9482 337.582 74.9133C337.957 74.8126 338.275 74.5755 338.468 74.2532C338.622 73.971 338.688 73.6532 338.661 73.3364C338.661 72.768 338.333 72.4563 338.41 72.3829Z" fill="#263238"/>
<path d="M285.53 278.683C282.063 271.752 270.644 256.038 270.644 256.038C259.686 255.506 256.008 258.715 251.521 264.766C251.521 264.766 252.676 285.211 252.676 285.706C252.676 286.201 256.643 306.187 256.643 306.187C256.902 306.965 257.368 307.666 257.996 308.222C258.624 308.778 259.392 309.17 260.225 309.359C263.152 310.093 259.513 292.563 259.513 292.563L264.115 304.445L264.019 305.307C264.019 305.307 264.173 314.475 265.463 316.419C265.793 317.067 266.326 317.602 266.988 317.95C267.65 318.298 268.409 318.442 269.161 318.362C269.777 318.362 269.912 311.266 270.316 304.849L268.525 294.507L272.877 304.372C272.877 304.372 272.242 315.098 273.455 317.556C274.668 320.013 278.539 320.049 278.539 318.692C278.539 317.335 278.712 312.605 278.905 308.314C278.824 304.178 278.418 300.053 277.692 295.974L281.023 306.04L282.333 315.319C283.103 315.795 285.607 316.95 286.3 315.447C286.801 312.461 287.097 309.448 287.186 306.425C287.051 303.748 285.915 296.212 285.915 296.212C287.341 298.154 289.409 299.587 291.788 300.283C295.37 301.053 295.89 299.623 295.89 299.623L285.53 278.683Z" fill="#FFBE9D"/>
<path d="M283.7 287.356C285.015 290.505 285.933 293.792 286.435 297.147C287.248 300.44 287.655 303.813 287.648 307.195C286.667 303.955 285.927 300.652 285.433 297.312C284.616 294.035 284.037 290.709 283.7 287.356Z" fill="#EB996E"/>
<path d="M278.963 263.244C278.518 262.861 278.13 262.423 277.807 261.942C276.867 260.726 275.795 259.608 274.611 258.605C272.871 257.14 270.653 256.292 268.333 256.203C265.487 256.113 262.674 256.8 260.225 258.183C255.592 260.545 251.778 264.138 249.249 268.525C248.379 270.42 247.889 272.454 247.804 274.521C247.595 273.982 247.516 273.405 247.573 272.834C247.602 271.261 247.955 269.71 248.613 268.268C251.019 263.586 254.905 259.738 259.725 257.266C262.344 255.801 265.357 255.1 268.39 255.249C270.897 255.391 273.271 256.372 275.092 258.018C276.266 259.112 277.289 260.344 278.135 261.685C278.5 262.157 278.78 262.684 278.963 263.244Z" fill="#263238"/>
</g>
</svg>
