<svg width="422" height="454" viewBox="0 0 422 454" fill="none" xmlns="http://www.w3.org/2000/svg">
<g opacity="0.2">
<path d="M0 453.33L52.7 453.08L105.4 453L210.8 452.83L316.2 453L368.9 453.08L421.61 453.33L368.9 453.57L316.2 453.66L210.8 453.83L105.4 453.66L52.7 453.57L0 453.33Z" fill="#263238"/>
<path d="M383.98 415.74H273.45V427.17H383.98V415.74Z" fill="#FBBF24"/>
<path d="M383.98 334.61H273.45V346.04H383.98V334.61Z" fill="#FBBF24"/>
<path d="M273.45 323.99L257.48 333.79V429.61L273.45 437.8V323.99Z" fill="#FBBF24"/>
<path opacity="0.5" d="M273.45 323.99L257.48 333.79V429.61L273.45 437.8V323.99Z" fill="white"/>
<path d="M267.63 432.13H263.31V446.26H267.63V432.13Z" fill="#FBBF24"/>
<path d="M273.87 453.12L269.67 446.27H260.58L257.07 453.12H273.87Z" fill="#FBBF24"/>
<path opacity="0.5" d="M273.87 453.12L269.67 446.27H260.58L257.07 453.12H273.87Z" fill="white"/>
<path d="M394.13 432.13H389.81V446.26H394.13V432.13Z" fill="#FBBF24"/>
<path d="M400.37 453.12L396.17 446.27H387.08L383.57 453.12H400.37Z" fill="#FBBF24"/>
<path opacity="0.5" d="M400.37 453.12L396.17 446.27H387.08L383.57 453.12H400.37Z" fill="white"/>
<path d="M383.98 323.99L399.95 333.79V429.61L383.98 437.8V323.99Z" fill="#FBBF24"/>
<path opacity="0.5" d="M383.98 323.99L399.95 333.79V429.61L383.98 437.8V323.99Z" fill="white"/>
<path d="M403.45 397.44L407.62 400V425.03L403.45 427.17V397.44Z" fill="#FBBF24"/>
<path opacity="0.5" d="M403.45 397.44L407.62 400V425.03L403.45 427.17V397.44Z" fill="white"/>
<path d="M279.13 323.99H275.86V437.8H279.13V323.99Z" fill="#FBBF24"/>
<path opacity="0.5" d="M279.13 323.99H275.86V437.8H279.13V323.99Z" fill="white"/>
<path d="M285.12 323.99H281.85V437.8H285.12V323.99Z" fill="#FBBF24"/>
<path opacity="0.5" d="M285.12 323.99H281.85V437.8H285.12V323.99Z" fill="white"/>
<path d="M291.11 323.99H287.84V437.8H291.11V323.99Z" fill="#FBBF24"/>
<path opacity="0.5" d="M291.11 323.99H287.84V437.8H291.11V323.99Z" fill="white"/>
<path d="M297.1 323.99H293.83V437.8H297.1V323.99Z" fill="#FBBF24"/>
<path opacity="0.5" d="M297.1 323.99H293.83V437.8H297.1V323.99Z" fill="white"/>
<path d="M303.09 323.99H299.82V437.8H303.09V323.99Z" fill="#FBBF24"/>
<path opacity="0.5" d="M303.09 323.99H299.82V437.8H303.09V323.99Z" fill="white"/>
<path d="M309.07 323.99H305.8V437.8H309.07V323.99Z" fill="#FBBF24"/>
<path opacity="0.5" d="M309.07 323.99H305.8V437.8H309.07V323.99Z" fill="white"/>
<path d="M315.06 323.99H311.79V437.8H315.06V323.99Z" fill="#FBBF24"/>
<path opacity="0.5" d="M315.06 323.99H311.79V437.8H315.06V323.99Z" fill="white"/>
<path d="M321.05 323.99H317.78V437.8H321.05V323.99Z" fill="#FBBF24"/>
<path opacity="0.5" d="M321.05 323.99H317.78V437.8H321.05V323.99Z" fill="white"/>
<path d="M327.04 323.99H323.77V437.8H327.04V323.99Z" fill="#FBBF24"/>
<path opacity="0.5" d="M327.04 323.99H323.77V437.8H327.04V323.99Z" fill="white"/>
<path d="M333.03 323.99H329.76V437.8H333.03V323.99Z" fill="#FBBF24"/>
<path opacity="0.5" d="M333.03 323.99H329.76V437.8H333.03V323.99Z" fill="white"/>
<path d="M339.02 323.99H335.75V437.8H339.02V323.99Z" fill="#FBBF24"/>
<path opacity="0.5" d="M339.02 323.99H335.75V437.8H339.02V323.99Z" fill="white"/>
<path d="M345.01 323.99H341.74V437.8H345.01V323.99Z" fill="#FBBF24"/>
<path opacity="0.5" d="M345.01 323.99H341.74V437.8H345.01V323.99Z" fill="white"/>
<path d="M351 323.99H347.73V437.8H351V323.99Z" fill="#FBBF24"/>
<path opacity="0.5" d="M351 323.99H347.73V437.8H351V323.99Z" fill="white"/>
<path d="M356.99 323.99H353.72V437.8H356.99V323.99Z" fill="#FBBF24"/>
<path opacity="0.5" d="M356.99 323.99H353.72V437.8H356.99V323.99Z" fill="white"/>
<path d="M362.98 323.99H359.71V437.8H362.98V323.99Z" fill="#FBBF24"/>
<path opacity="0.5" d="M362.98 323.99H359.71V437.8H362.98V323.99Z" fill="white"/>
<path d="M368.97 323.99H365.7V437.8H368.97V323.99Z" fill="#FBBF24"/>
<path opacity="0.5" d="M368.97 323.99H365.7V437.8H368.97V323.99Z" fill="white"/>
<path d="M374.96 323.99H371.69V437.8H374.96V323.99Z" fill="#FBBF24"/>
<path opacity="0.5" d="M374.96 323.99H371.69V437.8H374.96V323.99Z" fill="white"/>
<path d="M380.94 323.99H377.67V437.8H380.94V323.99Z" fill="#FBBF24"/>
<path opacity="0.5" d="M380.94 323.99H377.67V437.8H380.94V323.99Z" fill="white"/>
<path d="M395.99 421.46C395.99 422.251 395.755 423.024 395.316 423.682C394.876 424.34 394.252 424.853 393.521 425.156C392.79 425.458 391.986 425.537 391.21 425.383C390.434 425.229 389.721 424.848 389.162 424.288C388.602 423.729 388.221 423.016 388.067 422.24C387.913 421.464 387.992 420.66 388.294 419.929C388.597 419.198 389.11 418.574 389.768 418.134C390.426 417.695 391.199 417.46 391.99 417.46C393.051 417.46 394.068 417.881 394.818 418.632C395.569 419.382 395.99 420.399 395.99 421.46Z" fill="#FBBF24"/>
<path d="M393.9 407.65C393.902 408.035 393.79 408.411 393.577 408.732C393.365 409.052 393.062 409.302 392.707 409.45C392.352 409.598 391.961 409.638 391.584 409.563C391.207 409.489 390.86 409.304 390.588 409.032C390.316 408.76 390.131 408.413 390.057 408.036C389.982 407.659 390.022 407.268 390.17 406.913C390.318 406.558 390.568 406.255 390.888 406.043C391.209 405.83 391.586 405.718 391.97 405.72C392.482 405.72 392.973 405.923 393.335 406.285C393.697 406.647 393.9 407.138 393.9 407.65Z" fill="#FBBF24"/>
<path d="M403.45 401.84H399.95V422.85H403.45V401.84Z" fill="#FBBF24"/>
<path opacity="0.15" d="M117.33 204.28H4.49L34.49 136.86H87.33L117.33 204.28Z" fill="#FBBF24"/>
<path d="M71.47 136.86C71.47 138.949 70.8507 140.99 69.6903 142.727C68.53 144.463 66.8807 145.817 64.9511 146.616C63.0216 147.415 60.8983 147.625 58.8498 147.217C56.8014 146.81 54.9198 145.804 53.443 144.327C51.9661 142.85 50.9604 140.969 50.5529 138.92C50.1454 136.872 50.3546 134.748 51.1538 132.819C51.9531 130.889 53.3066 129.24 55.0432 128.08C56.7798 126.919 58.8214 126.3 60.91 126.3C63.7107 126.3 66.3967 127.413 68.3771 129.393C70.3574 131.373 71.47 134.059 71.47 136.86Z" fill="#FBBF24"/>
<path d="M61.41 0H60.41V85.58H61.41V0Z" fill="#455A64"/>
<path d="M67.36 78.28H54.45V92.26H67.36V78.28Z" fill="#263238"/>
<path d="M87.33 136.86H34.49C35.56 116.76 45.14 84.54 60.91 84.54C76.68 84.54 86.28 116.76 87.33 136.86Z" fill="#37474F"/>
<path d="M171.109 109.82C175.233 105.696 175.233 99.0097 171.109 94.8858C166.985 90.7619 160.299 90.7619 156.175 94.8858C152.051 99.0097 152.051 105.696 156.175 109.82C160.299 113.944 166.985 113.944 171.109 109.82Z" fill="#FBBF24"/>
<path d="M164.14 0H163.14V51.07H164.14V0Z" fill="#455A64"/>
<path d="M170.1 43.77H157.19V57.75H170.1V43.77Z" fill="#263238"/>
<path d="M190.07 102.35H137.22C138.29 82.25 147.87 50 163.64 50C179.41 50 189.01 82.25 190.07 102.35Z" fill="#37474F"/>
<path opacity="0.15" d="M220.07 169.77H107.22L137.22 102.35H190.07L220.07 169.77Z" fill="#FBBF24"/>
<path d="M160.66 156.61L159.03 158.22L158.1 159.15C156.043 157.084 153.598 155.444 150.905 154.325C148.213 153.207 145.326 152.631 142.41 152.631C139.494 152.631 136.607 153.207 133.915 154.325C131.222 155.444 128.777 157.084 126.72 159.15C126.43 158.84 126.14 158.53 125.84 158.23L124.23 156.61H124.18L124.3 156.51C124.99 155.9 125.65 155.27 126.36 154.69C129.572 152.09 133.373 150.318 137.43 149.53C138.43 149.34 139.53 149.24 140.58 149.11C140.94 149.11 143.27 149.11 143.34 149.11C144.06 149.16 144.78 149.19 145.49 149.27C147.47 149.488 149.415 149.952 151.28 150.65C152.635 151.149 153.947 151.762 155.2 152.48C156.523 153.239 157.775 154.116 158.94 155.1C159.52 155.6 160.08 156.1 160.66 156.65V156.61Z" fill="#263238"/>
<path d="M131.88 164.27L129.31 161.71C132.129 158.847 135.819 157.001 139.8 156.46C142.649 156.033 145.559 156.283 148.294 157.189C151.028 158.096 153.511 159.635 155.54 161.68L152.96 164.25C150.166 161.459 146.379 159.892 142.43 159.892C138.481 159.892 134.694 161.459 131.9 164.25L131.88 164.27Z" fill="#263238"/>
<path d="M150.37 166.83L147.8 169.39C146.369 167.959 144.428 167.155 142.405 167.155C140.382 167.155 138.441 167.959 137.01 169.39L134.45 166.84C135.489 165.785 136.728 164.947 138.094 164.374C139.46 163.802 140.927 163.506 142.408 163.506C143.889 163.505 145.356 163.798 146.723 164.369C148.089 164.939 149.329 165.776 150.37 166.83Z" fill="#263238"/>
<path d="M100.23 128.94L98.61 127.31L97.68 126.39C99.7454 124.331 101.384 121.885 102.502 119.192C103.62 116.499 104.196 113.611 104.196 110.695C104.196 107.779 103.62 104.891 102.502 102.198C101.384 99.5048 99.7454 97.0587 97.68 95L98.59 94.12C99.14 93.59 99.67 93.05 100.21 92.52L100.31 92.64C100.91 93.32 101.54 93.99 102.13 94.64C103.308 96.1075 104.314 97.7045 105.13 99.4C106.129 101.397 106.842 103.525 107.25 105.72C107.44 106.72 107.54 107.82 107.67 108.87C107.67 109.23 107.67 111.56 107.67 111.63C107.61 112.34 107.58 113.06 107.51 113.78C107.283 115.759 106.816 117.703 106.12 119.57C105.625 120.924 105.012 122.232 104.29 123.48C103.536 124.806 102.659 126.058 101.67 127.22C101.17 127.81 100.67 128.37 100.13 128.94H100.23Z" fill="#263238"/>
<path d="M92.57 100.17C93.42 99.3 94.26 98.46 95.12 97.59C97.9845 100.4 99.8317 104.084 100.37 108.06C100.8 110.908 100.553 113.818 99.6475 116.553C98.7422 119.288 97.2048 121.771 95.16 123.8L92.58 121.22C95.3597 118.433 96.9207 114.657 96.9207 110.72C96.9207 106.783 95.3597 103.007 92.58 100.22L92.57 100.17Z" fill="#263238"/>
<path d="M90 118.65L87.44 116.09C88.152 115.384 88.7172 114.543 89.1028 113.617C89.4885 112.691 89.6871 111.698 89.6871 110.695C89.6871 109.692 89.4885 108.699 89.1028 107.773C88.7172 106.847 88.152 106.006 87.44 105.3C88.3 104.45 89.14 103.6 89.99 102.75C91.0434 103.788 91.8801 105.026 92.4515 106.39C93.0229 107.754 93.3176 109.219 93.3186 110.698C93.3195 112.177 93.0266 113.642 92.457 115.007C91.8873 116.372 91.0521 117.61 90 118.65Z" fill="#263238"/>
<path d="M414.02 381.1L412.41 379.47L411.48 378.54C413.546 376.483 415.186 374.038 416.305 371.345C417.423 368.653 417.999 365.766 417.999 362.85C417.999 359.934 417.423 357.047 416.305 354.355C415.186 351.662 413.546 349.217 411.48 347.16C411.78 346.87 412.1 346.58 412.4 346.28L414.02 344.67C414.02 344.67 414.02 344.67 414.02 344.62L414.12 344.74C414.73 345.43 415.36 346.09 415.94 346.8C417.122 348.265 418.129 349.862 418.94 351.56C419.928 353.558 420.641 355.681 421.06 357.87C421.25 358.87 421.35 359.97 421.48 361.02C421.48 361.38 421.53 363.71 421.48 363.78C421.43 364.5 421.4 365.22 421.32 365.93C421.098 367.909 420.634 369.853 419.94 371.72C419.441 373.075 418.828 374.387 418.11 375.64C417.351 376.963 416.474 378.215 415.49 379.38C414.99 379.96 414.49 380.52 413.94 381.1H414.02Z" fill="#263238"/>
<path d="M406.36 352.32L408.92 349.75C411.779 352.564 413.625 356.246 414.17 360.22C414.601 363.075 414.354 365.992 413.447 368.734C412.54 371.476 410.999 373.965 408.95 376L406.38 373.42C409.171 370.626 410.738 366.839 410.738 362.89C410.738 358.941 409.171 355.154 406.38 352.36L406.36 352.32Z" fill="#263238"/>
<path d="M403.8 370.81L401.24 368.25C401.95 367.542 402.513 366.701 402.897 365.776C403.281 364.85 403.479 363.857 403.479 362.855C403.479 361.853 403.281 360.86 402.897 359.934C402.513 359.009 401.95 358.168 401.24 357.46L403.8 354.9C404.852 355.941 405.687 357.179 406.257 358.545C406.827 359.91 407.12 361.375 407.12 362.855C407.12 364.335 406.827 365.8 406.257 367.165C405.687 368.531 404.852 369.769 403.8 370.81Z" fill="#263238"/>
<path d="M77.79 362.86H40.97L19.89 257.8L53.61 242.31L77.79 362.86Z" fill="#FBBF24"/>
<g opacity="0.2">
<path d="M77.79 362.86H40.97L19.89 257.8L53.61 242.31L77.79 362.86Z" fill="black"/>
</g>
<path d="M177.17 362.86H77.79L53.61 242.31H152.99L177.17 362.86Z" fill="#FBBF24"/>
<path d="M58.88 306.49H2.45V422.27H58.88V306.49Z" fill="#FBBF24"/>
<g opacity="0.1">
<path d="M58.88 306.49H2.45V422.27H58.88V306.49Z" fill="black"/>
</g>
<path d="M204.26 422.27H188.84L165.87 306.49H204.26V422.27Z" fill="#FBBF24"/>
<g opacity="0.1">
<path d="M204.26 422.27H188.84L165.87 306.49H204.26V422.27Z" fill="black"/>
</g>
<path d="M89.89 306.49H58.88V422.27H89.89V306.49Z" fill="#FBBF24"/>
<path d="M235.26 306.49H204.25V422.27H235.26V306.49Z" fill="#FBBF24"/>
<path d="M204.26 362.86H89.89V422.28H204.26V362.86Z" fill="#FBBF24"/>
<path d="M204.26 337.17H89.89V363.1H204.26V337.17Z" fill="#FBBF24"/>
<path d="M66.48 306.49L78.18 306.28L89.89 306.14H90.24V306.5L90.38 320.05V333.6C90.38 342.6 90.45 351.67 90.38 360.7C90.31 369.73 90.38 378.77 90.22 387.8C90.06 396.83 90.02 405.87 89.83 414.9C89.6433 405.873 89.5133 396.84 89.44 387.8C89.32 378.8 89.31 369.73 89.28 360.7C89.25 351.67 89.28 342.63 89.28 333.6V320.05L89.41 306.5L89.77 306.86L78.06 306.71L66.48 306.49Z" fill="#263238"/>
<path d="M204.25 306.49C204.5 315.56 204.61 324.62 204.7 333.69L204.84 360.89L204.7 388.09L204.54 401.69L204.25 415.29L203.97 401.69L203.81 388.09L203.67 360.89L203.81 333.69C203.9 324.62 204.01 315.56 204.25 306.49Z" fill="#263238"/>
<path d="M204.25 362.86C194.25 363.1 184.19 363.21 174.16 363.31L144.07 363.44L119.98 363.31L104.93 363.15L89.93 362.86L104.93 362.57L119.98 362.41L144.07 362.27L174.16 362.41C184.19 362.5 194.22 362.62 204.25 362.86Z" fill="#263238"/>
<path d="M204.25 337.17C194.25 337.41 184.19 337.53 174.16 337.62L144.07 337.76L119.98 337.62L104.93 337.46L89.93 337.17L104.93 336.89L119.98 336.72L144.07 336.59L174.16 336.72C184.19 336.82 194.22 336.93 204.25 337.17Z" fill="#263238"/>
<path d="M23.9 422.27L23.14 431.65L21.35 453.33H13.18L11.4 431.65L10.64 422.27H23.9Z" fill="#C7C7C7"/>
<path d="M10.64 422.27H23.9L23.14 431.65H11.4L10.64 422.27Z" fill="#A6A6A6"/>
<path d="M81.02 422.27L80.25 431.65L78.47 453.33H70.3L68.52 431.65L67.75 422.27H81.02Z" fill="#C7C7C7"/>
<path d="M67.75 422.27H81.02L80.25 431.65H68.52L67.75 422.27Z" fill="#A6A6A6"/>
<path d="M169.76 422.27L168.99 431.65L167.21 453.33H159.04L157.26 431.65L156.49 422.27H169.76Z" fill="#C7C7C7"/>
<path d="M156.49 422.27H169.76L168.99 431.65H157.26L156.49 422.27Z" fill="#A6A6A6"/>
<path d="M226.89 422.27L226.12 431.65L224.34 453.33H216.17L214.39 431.65L213.62 422.27H226.89Z" fill="#C7C7C7"/>
<path d="M226.89 422.27L226.12 431.65H214.39L213.62 422.27H226.89Z" fill="#A6A6A6"/>
<path d="M106.85 252.22L100.03 252.74C97.9444 249.346 97.0833 245.341 97.59 241.39C97.68 240.49 95.47 245.79 96.59 253.01C89.39 253.57 79.59 254.32 71.04 254.9C70.8 251.85 70.43 249.03 70.43 249.03C70.2013 251.065 69.7794 253.075 69.17 255.03C68 255.12 66.86 255.18 65.76 255.26C65.6842 250.911 65.3503 246.57 64.76 242.26C64.2323 246.887 62.906 251.387 60.84 255.56C55.41 255.88 51.84 255.99 52.05 255.75C60.05 246.66 53.93 242.03 56.05 234.3C58.64 225.04 67.19 223.12 66.77 216.3C66.45 210.75 65.45 200.69 73.08 198.11C75.1684 196.112 77.7565 194.715 80.5721 194.063C83.3877 193.412 86.3267 193.532 89.08 194.41C101.32 198 96.92 215.41 97.84 218.87C99.13 223.79 101.77 225.41 103.84 230.99C105.91 236.57 103.17 240.61 102.94 244.53C102.71 248.45 108.22 252.13 106.85 252.22Z" fill="#263238"/>
<path d="M51.8 254.53C52.8776 252.994 53.7265 251.31 54.32 249.53C54.7684 247.812 54.7198 246.002 54.18 244.31C53.6968 242.517 53.3195 240.697 53.05 238.86C52.7803 236.929 52.9374 234.963 53.51 233.1C54.1595 231.178 55.2444 229.433 56.68 228C58.1018 226.588 59.6333 225.29 61.26 224.12C62.8284 223.003 64.2496 221.693 65.49 220.22C66.6487 218.75 67.3665 216.982 67.56 215.12C67.673 217.045 67.1647 218.956 66.11 220.57C64.9696 222.208 63.5988 223.673 62.04 224.92C60.5494 226.13 59.1335 227.429 57.8 228.81C56.5643 230.137 55.6326 231.717 55.07 233.44C54.5751 235.129 54.4221 236.901 54.62 238.65C54.78 240.43 55.18 242.2 55.49 244.03C55.6532 244.961 55.7401 245.905 55.75 246.85C55.7254 247.837 55.5151 248.811 55.13 249.72C54.3095 251.506 53.1825 253.133 51.8 254.53Z" fill="#263238"/>
<path d="M96.16 200.41C97.052 202.503 97.6607 204.706 97.97 206.96C98.33 209.2 98.57 211.45 98.79 213.7L99.13 217.06C99.2289 218.142 99.44 219.211 99.76 220.25C100.537 222.311 101.709 224.199 103.21 225.81C103.963 226.717 104.651 227.676 105.27 228.68C105.877 229.7 106.354 230.792 106.69 231.93C106.991 233.058 107.198 234.208 107.31 235.37C107.422 236.544 107.378 237.727 107.18 238.89C106.99 240.07 106.66 241.18 106.38 242.28C106.109 243.358 105.945 244.46 105.89 245.57C105.885 246.69 106.17 247.792 106.717 248.77C107.263 249.748 108.053 250.568 109.01 251.15C107.93 250.653 107.001 249.878 106.318 248.905C105.634 247.932 105.221 246.795 105.12 245.61C105.07 244.445 105.15 243.277 105.36 242.13C105.55 240.99 105.83 239.88 105.94 238.79C106.135 236.617 105.894 234.428 105.23 232.35C104.889 231.323 104.437 230.337 103.88 229.41C103.279 228.466 102.611 227.567 101.88 226.72C101.135 225.82 100.437 224.882 99.79 223.91C99.136 222.909 98.6244 221.822 98.27 220.68C97.9596 219.55 97.7686 218.39 97.7 217.22C97.61 216.08 97.56 214.95 97.51 213.82C97.4 211.56 97.33 209.31 97.16 207.06C97.077 204.813 96.7415 202.582 96.16 200.41Z" fill="#263238"/>
<path d="M343.17 302C341.17 303.32 278.6 320.4 275.81 319.54C275.5 319.45 274.95 316.64 272.39 309.63C272.27 309.3 270.52 308.28 267.85 306.9C257.79 301.72 234.56 291.26 234.56 291.26L259.93 256.74L297.28 279.9L306.99 285.9C306.99 285.9 335.59 292.35 338.56 293.61C341.53 294.87 345.16 300.69 343.17 302Z" fill="#D3766A"/>
<path d="M343.18 302C341.18 303.32 278.6 320.4 275.81 319.55C275.5 319.45 274.95 316.64 272.39 309.63C281.74 308.96 330.51 300.63 330.91 294.54C331.06 292.16 322.97 289.7 321.51 289.27C329.08 291.05 337.07 293 338.56 293.63C341.52 294.93 345.16 300.69 343.18 302Z" fill="#263238"/>
<path d="M282.96 268.4L279.35 275.05L261.35 308.25C261.35 308.25 222.45 291.49 210.83 285.69C210.45 285.5 178.02 321.5 150.99 333.13C130.28 342.05 113.72 337.21 100.69 318.95L132.88 295.06C159.51 273.53 187.98 242.41 208.95 240.28C231.7 238 282.96 268.4 282.96 268.4Z" fill="#263238"/>
<path d="M274.87 268.1C271.1 274.62 272.1 272.7 268.4 279.26C266.59 282.46 257.46 298.57 256.27 301.85C256.27 301.92 256.35 301.98 256.39 301.92C258.53 299.16 267.31 282.86 269.06 279.62C272.64 273 271.55 274.86 275.06 268.2C275.067 268.188 275.071 268.174 275.072 268.16C275.073 268.146 275.072 268.132 275.068 268.118C275.063 268.105 275.057 268.092 275.048 268.081C275.039 268.071 275.027 268.062 275.015 268.055C275.003 268.048 274.989 268.044 274.975 268.043C274.961 268.042 274.947 268.043 274.933 268.047C274.92 268.052 274.907 268.058 274.896 268.067C274.886 268.076 274.877 268.088 274.87 268.1Z" fill="#37474F"/>
<path d="M276.48 280.33L261.32 308.25C261.32 308.25 222.42 291.49 210.8 285.69C210.43 285.5 177.99 321.5 150.97 333.13C130.24 342.05 113.69 337.21 100.67 318.95L132.85 295.06C136.37 292.21 139.93 289.19 143.5 286.06C176.19 284.74 247.8 281.6 276.48 280.33Z" fill="#37474F"/>
<path d="M325.1 377.71C322.78 378.27 258.15 372.71 255.82 370.9C255.57 370.7 256.02 367.9 256.04 360.42C256.04 360.06 254.75 358.51 252.72 356.29C245.07 347.95 226.88 330.11 226.88 330.11L262.62 306.47L289.67 341.11L296.67 350.11C296.67 350.11 321.28 366.04 323.67 368.26C326.06 370.48 327.43 377.15 325.1 377.71Z" fill="#D3766A"/>
<path d="M325.1 377.71C322.78 378.26 258.15 372.71 255.82 370.9C255.57 370.7 256.02 367.9 256.04 360.42C265.04 363.02 313.7 372.02 316.16 366.47C317.16 364.29 310.39 359.19 309.16 358.29C315.65 362.57 322.47 367.15 323.66 368.29C325.99 370.49 327.43 377.15 325.1 377.71Z" fill="#263238"/>
<path d="M93.46 291.41C93.46 291.41 85.34 316.6 97.38 329.41C106.05 338.64 118.71 341.1 129.96 340.99C161.05 340.67 191.76 307.21 202.17 306.58C207.51 306.26 243.12 352.15 243.12 352.15L278.98 325.55C271.81 317.46 229.98 262.32 205.65 259.12C188.98 256.92 142.16 285.98 141.19 285.44C139.62 284.56 132.69 280.03 132.69 280.03L93.46 291.41Z" fill="#263238"/>
<path d="M272.97 321.42C268.55 324.25 264.34 327.42 260.11 330.48C255.88 333.54 251.71 336.63 247.56 339.77C245.2 341.56 242.86 343.35 240.56 345.21C240.553 345.22 240.549 345.233 240.55 345.246C240.55 345.258 240.555 345.27 240.562 345.28C240.57 345.29 240.581 345.298 240.593 345.301C240.605 345.305 240.618 345.304 240.63 345.3C245.02 342.41 249.26 339.3 253.5 336.25C257.74 333.2 261.91 330.1 266.06 326.97C268.42 325.2 270.8 323.43 273.06 321.54C273.14 321.48 273.05 321.37 272.97 321.42Z" fill="#37474F"/>
<path d="M119.27 290.76C119.27 290.62 119.01 290.69 119.02 290.83C119.431 294.819 118.418 298.825 116.16 302.14C113.58 305.81 109.46 308.14 105.76 310.51C105.4 310.74 105.76 311.29 106.12 311.14C108.446 310.159 110.659 308.928 112.72 307.47C114.612 306.192 116.228 304.546 117.47 302.63C118.571 300.882 119.3 298.926 119.609 296.883C119.919 294.84 119.804 292.756 119.27 290.76Z" fill="#37474F"/>
<path d="M141.44 288.1C140.59 287.28 139.69 286.52 138.81 285.73C136.75 283.86 134.67 281.99 132.53 280.2C132.33 280.04 132.02 280.36 132.21 280.55C133.69 282.01 135.21 283.41 136.76 284.83L139.11 287C139.913 287.634 140.653 288.344 141.32 289.12C141.451 289.292 141.534 289.496 141.56 289.71C141.586 289.925 141.554 290.143 141.467 290.341C141.38 290.539 141.242 290.71 141.067 290.836C140.891 290.963 140.685 291.04 140.47 291.06C139.639 291.196 138.788 291.01 138.09 290.54C136.511 289.488 135.034 288.289 133.68 286.96C132.82 286.22 131.96 285.49 131.08 284.76C130.2 284.03 129.18 283.27 128.25 282.5C128.19 282.45 128.1 282.5 128.16 282.6C128.99 283.47 129.78 284.39 130.62 285.25C131.46 286.11 132.3 286.98 133.16 287.83C134.02 288.68 134.81 289.41 135.66 290.17C136.374 290.847 137.195 291.402 138.09 291.81C139.55 292.42 141.91 292.26 142.39 290.42C142.451 289.984 142.395 289.539 142.228 289.132C142.061 288.724 141.789 288.368 141.44 288.1Z" fill="#37474F"/>
<path d="M242.86 341.34C234.28 330.72 210.86 303.46 205.38 298.7C204.824 298.227 204.176 297.874 203.478 297.663C202.779 297.451 202.045 297.386 201.32 297.47C199.747 297.82 198.268 298.502 196.98 299.47L192.16 302.35L182.26 308.27C176.08 311.98 169.92 315.74 163.68 319.37C158.167 322.679 152.411 325.564 146.46 328C135.02 332.52 121.06 334.53 109.99 327.88C104.979 324.789 101.259 319.985 99.52 314.36C97.68 308.74 97.39 302.72 97.52 296.85C97.52 295.43 97.61 294.01 97.68 292.59C97.684 292.581 97.6856 292.571 97.6848 292.561C97.6839 292.551 97.6807 292.541 97.6752 292.533C97.6697 292.525 97.6623 292.518 97.6535 292.513C97.6448 292.509 97.635 292.506 97.625 292.506C97.615 292.506 97.6052 292.509 97.5965 292.513C97.5877 292.518 97.5803 292.525 97.5748 292.533C97.5694 292.541 97.566 292.551 97.5652 292.561C97.5644 292.571 97.566 292.581 97.57 292.59C96.68 303.59 96.74 316.45 105.03 324.85C113.84 333.77 127.83 334.26 139.26 331.23C152.07 327.84 163.41 320.46 174.66 313.71L194.32 301.91C195.91 300.96 197.48 299.91 199.1 299.05C200.72 298.19 202.57 297.57 204.1 298.78C209.3 302.78 241.45 340.23 242.59 341.53C242.74 341.7 243 341.5 242.86 341.34Z" fill="#37474F"/>
<path d="M166.51 272.16C175.433 267.22 184.834 263.199 194.57 260.16C197.033 259.414 199.561 258.901 202.12 258.63C203.417 258.48 204.728 258.5 206.02 258.69C207.305 258.883 208.57 259.191 209.8 259.61C214.609 261.44 219.142 263.927 223.27 267C227.404 269.993 231.37 273.211 235.15 276.64C238.95 280.05 242.63 283.57 246.15 287.24C253.233 294.561 259.938 302.237 266.24 310.24C262.93 306.38 259.58 302.55 256.13 298.82C252.68 295.09 249.2 291.38 245.6 287.82C238.514 280.54 230.845 273.852 222.67 267.82C218.632 264.788 214.198 262.325 209.49 260.5C207.156 259.622 204.654 259.281 202.17 259.5C199.666 259.763 197.188 260.232 194.76 260.9C189.871 262.258 185.075 263.928 180.4 265.9C175.71 267.82 171.08 269.93 166.51 272.16Z" fill="#37474F"/>
<path d="M124.44 182.75L127.7 213.5C127.7 214.44 128.36 214.96 129.17 214.66L143.7 209.32C144.131 209.124 144.498 208.809 144.756 208.413C145.015 208.016 145.155 207.554 145.16 207.08L141.91 176.33C141.91 175.39 141.25 174.87 140.44 175.17L125.91 180.51C125.479 180.707 125.113 181.022 124.853 181.418C124.593 181.815 124.45 182.276 124.44 182.75Z" fill="#37474F"/>
<path d="M126.16 182.1L129.41 212.85C129.41 213.79 130.08 214.31 130.89 214.01L145.42 208.67C145.85 208.476 146.216 208.163 146.475 207.768C146.734 207.373 146.874 206.912 146.88 206.44L143.63 175.68C143.63 174.74 142.97 174.22 142.16 174.52L127.63 179.86C127.199 180.057 126.833 180.372 126.573 180.768C126.313 181.165 126.17 181.626 126.16 182.1Z" fill="#455A64"/>
<path d="M130.62 181.92C130.705 182.167 130.715 182.434 130.649 182.687C130.582 182.94 130.442 183.167 130.246 183.34C130.05 183.513 129.807 183.624 129.548 183.659C129.289 183.694 129.025 183.651 128.79 183.536C128.556 183.42 128.361 183.238 128.23 183.012C128.099 182.785 128.038 182.525 128.055 182.264C128.072 182.003 128.166 181.754 128.326 181.546C128.485 181.339 128.702 181.184 128.95 181.1C129.28 180.989 129.641 181.012 129.954 181.166C130.267 181.319 130.506 181.591 130.62 181.92Z" fill="#263238"/>
<path d="M94.64 248.34C110.8 261.12 139.22 274 146.55 270.46C150.03 268.78 156.63 266.52 159.19 260.27C164.77 246.63 165.74 226.27 163.56 216.27C162.75 212.52 140.56 212.78 139.46 216.75C136.99 226.04 136.69 241.99 135.65 242.42C131.78 244 111.16 239.14 96.72 235.68C79.2 231.43 88.2 243.25 94.64 248.34Z" fill="#D3766A"/>
<path d="M157.64 199.48C153.23 192.91 151.09 191.9 150.31 184.38C149.79 179.44 146.42 177.65 144.5 182.44C141.37 190.28 145.29 199.96 147.61 202.92L157.64 199.48Z" fill="#D3766A"/>
<path d="M164.05 221.43C164.05 221.43 163.68 210.21 159.67 202.74C156.89 197.57 149.6 187.01 132.12 186.31C127.97 186.15 121.95 188.85 128.62 191.58C133.36 193.52 136.95 193.32 139.51 194.95C139.51 194.95 132.25 199.3 132.25 203.46C132.241 207.1 132.495 210.736 133.01 214.34C133.676 214.376 134.344 214.376 135.01 214.34C135.01 214.34 135.13 218.23 139.49 222.26L164.05 221.43Z" fill="#D3766A"/>
<path d="M156.23 198.23C153.36 197.15 147.23 194.96 141.58 194.91C135.32 194.91 123.23 196.44 123.24 201.07C123.24 204.46 127.91 204.26 127.91 204.26C127.91 204.26 123.06 205.97 123.73 209.03C124.35 211.82 127.95 211.45 127.95 211.45C127.95 211.45 125.18 212.99 126.29 215.56C127.63 218.66 133.21 214.92 137.29 216.89C138.18 217.33 156.23 198.23 156.23 198.23Z" fill="#D3766A"/>
<path d="M142.63 201.54C137.596 200.895 132.485 201.802 127.98 204.14C127.87 204.21 127.85 204.33 127.98 204.29C132.738 202.797 137.662 201.893 142.64 201.6C142.64 201.6 142.66 201.55 142.63 201.54Z" fill="#263238"/>
<path d="M142.39 207.86C139.86 207.62 132.81 208.31 127.92 211.34C127.81 211.4 127.81 211.52 127.92 211.48C132.597 209.752 137.455 208.558 142.4 207.92C142.4 207.92 142.42 207.86 142.39 207.86Z" fill="#263238"/>
<path d="M115.96 264.22L118.01 238.73C118.01 238.73 99.65 234.22 89.68 233.95C84.09 233.8 83.9 238.13 87.23 241.95C98.91 255.21 115.96 264.22 115.96 264.22Z" fill="#FBBF24"/>
<path d="M115.96 264.22L118.01 238.73C118.01 238.73 99.65 234.22 89.68 233.95C84.09 233.8 83.9 238.13 87.23 241.95C98.91 255.21 115.96 264.22 115.96 264.22Z" fill="#455A64"/>
<path opacity="0.1" d="M117.8 241.64L116 264.22C116 264.22 98.94 255.22 87.26 241.93C84.97 239.32 84.35 236.46 86 234.93L117.8 241.64Z" fill="black"/>
<path d="M113.93 239.3C112.772 246.425 112.071 253.616 111.83 260.83C111.83 260.83 111.99 260.89 112 260.83C112.9 254.99 113.87 243.24 114.17 239.31C114.17 239.25 113.94 239.23 113.93 239.3Z" fill="#263238"/>
<path d="M121.15 261.37L141.43 285.27C141.43 285.27 101.87 299.57 89.56 303.57C89.56 303.57 66.74 261.4 73.95 242.21C77.55 232.61 83.06 231.21 89.86 234.16C91.58 234.9 113.47 242.29 117.98 249.01C120.358 252.673 121.471 257.014 121.15 261.37Z" fill="#455A64"/>
<path d="M111.98 262.94C109.555 264.026 107.215 265.293 104.98 266.73C103.88 267.45 102.82 268.23 101.78 269.03C101.26 269.43 100.72 269.81 100.19 270.18C99.6376 270.582 99.0402 270.917 98.41 271.18C98.35 271.18 98.41 271.28 98.41 271.27C99.0315 271.085 99.6396 270.858 100.23 270.59C100.8 270.32 101.349 270.005 101.87 269.65C102.99 268.93 104.08 268.15 105.19 267.41C107.44 265.92 109.68 264.41 112.03 263.1C112.19 263.07 112.1 262.88 111.98 262.94Z" fill="#263238"/>
<path d="M118.91 263C116.78 263.498 114.68 264.115 112.62 264.85C111.62 265.22 110.62 265.65 109.62 266.1C109.14 266.32 108.62 266.55 108.21 266.78C107.8 267.01 107.21 267.36 106.69 267.61C106.64 267.61 106.69 267.72 106.69 267.7C107.19 267.48 107.69 267.34 108.23 267.15L109.76 266.57C110.76 266.19 111.81 265.82 112.83 265.43C114.83 264.637 116.873 263.88 118.96 263.16C119.09 263.14 119.02 263 118.91 263Z" fill="#263238"/>
<path d="M73.16 239.9C55.64 258.27 33.84 295.69 38.16 303.33C42.97 311.84 68.04 285.84 67.25 284.59C66.57 283.52 75.5 261.22 81.85 244.31C88.2 227.4 77.5 235.36 73.16 239.9Z" fill="#D3766A"/>
<path d="M51.69 261.92L76.85 266.45C76.85 266.45 83.14 248.62 84.38 238.72C85.08 233.17 81.82 232.95 77.72 235.89C63.36 246.21 51.69 261.92 51.69 261.92Z" fill="#455A64"/>
<path d="M76.69 262.33C69.7126 260.485 62.625 259.086 55.47 258.14C55.47 258.14 55.39 258.29 55.47 258.3C61.19 259.78 72.79 261.88 76.68 262.57C76.71 262.58 76.8 262.35 76.69 262.33Z" fill="#263238"/>
<path d="M73.8 265.9C74.8 266 75.87 266.13 76.9 266.27L76.68 266.39C77.43 263.65 78.26 260.94 79.16 258.24C80.06 255.54 81 252.87 82.09 250.24C81.43 253 80.64 255.73 79.79 258.45C78.94 261.17 78.04 263.85 77.05 266.51L76.99 266.68H76.83C75.8 266.42 74.8 266.17 73.8 265.9Z" fill="#263238"/>
<path d="M80.41 255.66C80.6364 255.1 80.9249 254.566 81.27 254.07C81.6093 253.569 81.9907 253.097 82.41 252.66C82.3509 252.963 82.2499 253.255 82.11 253.53C81.9761 253.801 81.8224 254.062 81.65 254.31C81.3155 254.827 80.8963 255.283 80.41 255.66Z" fill="#263238"/>
<path d="M38.72 304.11C43.47 309.26 54.45 308.86 82.17 310.46C86.01 310.68 94.85 284.03 90.76 283.58C85.62 283.02 65.53 281.95 64.05 282.06C51.58 283 35.5 300.63 38.72 304.11Z" fill="#D3766A"/>
<path d="M85.2 283.09C85.2 283.09 96.87 283.25 102.98 285.24C111.15 287.9 117.12 293.56 119.48 296.08C124.4 301.35 132.65 317.49 128.42 320.68C124.58 323.56 116.98 306.68 116.98 306.68C116.98 306.68 127.58 322.68 122.33 325.28C117.08 327.88 109.33 307.76 109.33 307.76C109.33 307.76 119.85 324.42 114 326.27C109.58 327.67 101.58 309.81 101.58 309.81C101.58 309.81 110.52 324.19 106.04 325.81C101.09 327.61 92.66 311.6 92.66 311.6C80.57 313.84 73.9 309.96 69.48 306.6C68.45 305.81 85.2 283.09 85.2 283.09Z" fill="#D3766A"/>
<path d="M113.67 300.88C114.98 302.71 116.32 304.56 117.47 306.5C118.62 308.44 119.69 310.42 120.65 312.5C121.968 315.138 122.975 317.92 123.65 320.79C122.08 315.79 118.09 308.79 116.95 306.79C115.81 304.79 114.76 302.86 113.61 300.92C113.57 300.87 113.64 300.84 113.67 300.88Z" fill="#263238"/>
<path d="M106.58 304.89C108.16 307.3 109.81 309.63 111.28 312.12C112.75 314.61 113.91 317.06 115.2 319.62C115.3 319.82 115.2 319.81 115.05 319.62C113.66 317.11 112.19 314.9 110.77 312.4C109.35 309.9 108.03 307.4 106.52 304.93L106.58 304.89Z" fill="#263238"/>
<path d="M99.88 307.24C102.387 310.878 104.511 314.766 106.22 318.84C106.31 319.04 106.13 319 106.03 318.84C104.03 314.95 102.43 311.84 99.76 307.37C99.72 307.25 99.8 307.16 99.88 307.24Z" fill="#263238"/>
<path d="M52.8 286C55.06 284.57 61.44 281.22 67.72 282.14C67.79 282.14 67.79 282.26 67.72 282.25C62.54 282.25 55.15 284.88 52.85 286.09C52.8 286.14 52.8 286.05 52.8 286Z" fill="#263238"/>
<path d="M79.6 236.26C80.02 237.2 85.35 240.79 89.79 239.68C91.24 239.32 90.24 233.18 90.24 233.18V232.56L90.44 223.93L79.44 219.64L77.87 219.1C77.87 219.1 77.97 221.46 78.13 224.41C78.13 224.54 78.13 224.68 78.13 224.83C78.13 224.98 78.13 225.15 78.13 225.31C78.13 225.74 78.13 226.19 78.2 226.64C78.27 227.09 78.2 227.31 78.27 227.64L78.36 228.7C78.5963 231.246 79.0107 233.772 79.6 236.26Z" fill="#D3766A"/>
<path d="M78.19 224.41C79.4879 226.563 81.2391 228.407 83.3217 229.814C85.4044 231.222 87.7686 232.159 90.25 232.56L90.45 223.93L79.45 219.64L77.88 219.1C77.88 219.1 78.03 221.46 78.19 224.41Z" fill="#263238"/>
<path d="M99.38 208.53C104.52 222.79 96.57 227.47 93.49 228.58C90.7 229.58 81.07 232.64 74.49 219C67.91 205.36 72.91 198.45 79.17 195.82C85.43 193.19 94.24 194.28 99.38 208.53Z" fill="#D3766A"/>
<path d="M95.9 205.86C95.5685 205.908 95.2347 205.938 94.9 205.95C94.5367 206.032 94.1566 205.989 93.82 205.83C93.7237 205.76 93.6536 205.66 93.621 205.546C93.5884 205.432 93.595 205.31 93.64 205.2C93.7576 204.994 93.9281 204.824 94.1338 204.706C94.3395 204.588 94.573 204.527 94.81 204.53C95.2924 204.462 95.7831 204.572 96.19 204.84C96.2809 204.909 96.3487 205.005 96.3847 205.113C96.4208 205.222 96.4233 205.339 96.392 205.449C96.3608 205.559 96.2971 205.657 96.2094 205.73C96.1216 205.803 96.0138 205.849 95.9 205.86Z" fill="#263238"/>
<path d="M86.61 209.16C86.925 209.009 87.2321 208.842 87.53 208.66C87.8807 208.533 88.1772 208.289 88.37 207.97C88.4122 207.859 88.4164 207.737 88.382 207.623C88.3477 207.509 88.2767 207.409 88.18 207.34C87.9681 207.232 87.7314 207.183 87.4942 207.197C87.2569 207.211 87.0277 207.288 86.83 207.42C86.3816 207.614 86.024 207.972 85.83 208.42C85.7819 208.528 85.7684 208.648 85.7913 208.763C85.8142 208.879 85.8725 208.985 85.9581 209.066C86.0437 209.147 86.1523 209.2 86.2691 209.217C86.3859 209.234 86.505 209.214 86.61 209.16Z" fill="#263238"/>
<path d="M89.97 212.25C89.97 212.25 89.9 212.32 89.97 212.36C90.32 213.36 90.55 214.5 89.77 215.12C90.8 214.67 90.45 213.11 89.97 212.25Z" fill="#263238"/>
<path d="M88.8 211.51C87.18 211.9 88.08 215.1 89.58 214.74C91.08 214.38 90.11 211.18 88.8 211.51Z" fill="#263238"/>
<path d="M88.18 211.85C87.95 212.11 87.76 212.51 87.43 212.64C87.1 212.77 86.66 212.53 86.32 212.28C86.32 212.28 86.26 212.28 86.32 212.34C86.49 212.95 86.9 213.52 87.58 213.42C88.26 213.32 88.49 212.67 88.47 212.01C88.41 211.89 88.27 211.75 88.18 211.85Z" fill="#263238"/>
<path d="M95.09 210.26C95.09 210.26 95.18 210.26 95.19 210.33C95.43 211.33 95.88 212.44 96.87 212.53V212.59C95.73 212.73 95.16 211.25 95.09 210.26Z" fill="#263238"/>
<path d="M95.7 209C97.27 208.44 98.27 211.62 96.81 212.14C95.35 212.66 94.38 209.45 95.7 209Z" fill="#263238"/>
<path d="M96.43 209C96.73 209.09 97.08 209.32 97.43 209.24C97.78 209.16 97.93 208.73 98.05 208.33C98.05 208.33 98.1 208.33 98.11 208.33C98.32 208.93 98.32 209.63 97.77 209.93C97.22 210.23 96.77 209.81 96.38 209.25C96.27 209.14 96.3 209 96.43 209Z" fill="#263238"/>
<path d="M91.8 219.82C92.0793 220.06 92.432 220.197 92.8 220.21C93.163 220.111 93.5028 219.941 93.8 219.71C93.7018 219.939 93.5444 220.137 93.344 220.285C93.1437 220.432 92.9075 220.524 92.66 220.55C92.4417 220.544 92.23 220.474 92.0519 220.347C91.8738 220.221 91.7374 220.044 91.66 219.84C91.66 219.84 91.74 219.79 91.8 219.82Z" fill="#263238"/>
<path d="M94.87 215C94.87 215 95.51 216.42 95.72 217.12C95.72 217.19 95.58 217.27 95.34 217.35C94.7715 217.633 94.1361 217.755 93.503 217.702C92.87 217.649 92.2636 217.424 91.75 217.05C91.68 217 91.75 216.9 91.83 216.93C92.8953 217.28 94.0447 217.28 95.11 216.93C95.11 216.72 93.94 214.53 94.05 214.49C94.6032 214.383 95.168 214.35 95.73 214.39C94.49 211.39 92.78 208.62 91.59 205.62C91.5855 205.6 91.5873 205.579 91.5953 205.56C91.6033 205.54 91.617 205.524 91.6346 205.513C91.6521 205.502 91.6727 205.497 91.6934 205.498C91.714 205.499 91.7338 205.507 91.75 205.52C93.6813 208.431 95.313 211.53 96.62 214.77C96.8 215.16 95.19 215.06 94.87 215Z" fill="#263238"/>
<path d="M95.19 216.9C95.0177 217.591 94.6738 218.227 94.19 218.75C93.9146 219.015 93.5665 219.193 93.19 219.26C92.34 219.37 92.03 218.68 91.92 218.02C91.8793 217.665 91.8793 217.306 91.92 216.95C92.9898 217.266 94.1304 217.248 95.19 216.9Z" fill="#263238"/>
<path d="M94.14 218.75C93.8646 219.015 93.5165 219.193 93.14 219.26C92.29 219.37 91.98 218.68 91.87 218.02C92.2766 217.882 92.7169 217.878 93.1257 218.01C93.5345 218.141 93.8901 218.401 94.14 218.75Z" fill="#FF9ABB"/>
<path d="M75.94 220C79.51 218.69 76.94 207.22 76.58 205.82C76.84 206.69 78.21 211.31 78.58 211.38C78.9696 211.25 79.3321 211.05 79.65 210.79C79.4724 210.241 79.3354 209.679 79.24 209.11C79.24 208.85 79.52 209.63 79.98 210.57L80.59 210.17C80.167 209.01 79.898 207.8 79.79 206.57C79.79 206.11 80.51 208.02 81.48 209.57C84.2729 207.655 87.2675 206.052 90.41 204.79C91.3 204.46 92.08 204.22 92.78 204.03C92.34 202.67 91.71 201.28 91.91 201.56C92.4492 202.289 92.9148 203.069 93.3 203.89L94.36 203.63C93.82 201.69 91.92 198.94 92.36 199.31C93.7587 200.44 94.9266 201.828 95.8 203.4C97.19 203.23 97.63 203.4 97.55 203.01C95.927 199.377 93.0623 196.441 89.47 194.73C83.56 191.96 74.18 193.85 71.25 202.07C71.25 202.07 67.96 206.18 68.74 210.8C69.52 215.42 73.87 220.75 75.94 220Z" fill="#263238"/>
<path d="M77.14 219.27C77.14 219.27 72.73 215.55 70.96 217.27C69.19 218.99 73.35 224.95 76.03 225.21C76.3733 225.273 76.7258 225.264 77.0658 225.186C77.4058 225.107 77.7261 224.96 78.007 224.753C78.288 224.546 78.5237 224.283 78.6996 223.982C78.8755 223.681 78.9879 223.346 79.03 223L77.14 219.27Z" fill="#D3766A"/>
<path d="M72.2 218.93C72.2 218.93 72.2 218.99 72.2 219C74.09 219.23 75.41 220.58 76.48 222.05C76.3348 221.905 76.1601 221.794 75.9678 221.723C75.7755 221.653 75.5701 221.624 75.3659 221.64C75.1616 221.657 74.9633 221.717 74.7845 221.817C74.6057 221.917 74.4506 222.054 74.33 222.22C74.3194 222.229 74.3129 222.242 74.312 222.256C74.311 222.271 74.3157 222.284 74.325 222.295C74.3343 222.306 74.3474 222.312 74.3615 222.313C74.3755 222.314 74.3894 222.309 74.4 222.3C74.6755 222.125 74.9984 222.04 75.3243 222.056C75.6502 222.072 75.963 222.189 76.22 222.39C76.6452 222.729 77.034 223.111 77.38 223.53C77.5 223.66 77.76 223.53 77.65 223.35C77.09 221.12 74.59 218.53 72.2 218.93Z" fill="#263238"/>
</g>
</svg>
