<svg width="481" height="454" viewBox="0 0 481 454" fill="none" xmlns="http://www.w3.org/2000/svg">
<g opacity="0.2">
<path d="M481 398.819H0V399.123H481V398.819Z" fill="#EBEBEB"/>
<path d="M432.804 418.419H400.942V418.723H432.804V418.419Z" fill="#EBEBEB"/>
<path d="M318.634 421.732H310.274V422.037H318.634V421.732Z" fill="#EBEBEB"/>
<path d="M399.98 407.114H381.52V407.419H399.98V407.114Z" fill="#EBEBEB"/>
<path d="M92.0153 409.161H50.4665V409.465H92.0153V409.161Z" fill="#EBEBEB"/>
<path d="M106.676 409.161H100.587V409.465H106.676V409.161Z" fill="#EBEBEB"/>
<path d="M216.594 414.301H126.474V414.606H216.594V414.301Z" fill="#EBEBEB"/>
<path d="M227.994 344.49H42.2414C40.7862 344.487 39.3915 343.752 38.3635 342.448C37.3354 341.144 36.758 339.377 36.758 337.534V6.89467C36.7707 5.06262 37.3537 3.31088 38.3804 2.01994C39.407 0.729005 40.7945 0.0031384 42.2414 0H227.994C229.451 0 230.848 0.732818 231.878 2.03724C232.908 3.34166 233.487 5.11084 233.487 6.95557V337.534C233.487 339.379 232.908 341.148 231.878 342.453C230.848 343.757 229.451 344.49 227.994 344.49ZM42.2414 0.243629C40.85 0.246856 39.5165 0.94901 38.5335 2.19597C37.5506 3.44294 36.9985 5.13281 36.9985 6.89467V337.534C36.9985 339.296 37.5506 340.986 38.5335 342.233C39.5165 343.48 40.85 344.182 42.2414 344.185H227.994C229.386 344.182 230.721 343.48 231.705 342.234C232.69 340.987 233.244 339.297 233.247 337.534V6.89467C233.244 5.13169 232.69 3.44184 231.705 2.19523C230.721 0.948614 229.386 0.246849 227.994 0.243629H42.2414Z" fill="#EBEBEB"/>
<path d="M436.084 344.49H250.322C248.866 344.487 247.47 343.753 246.441 342.449C245.411 341.145 244.832 339.378 244.829 337.534V6.89467C244.844 5.06151 245.429 3.30978 246.458 2.01918C247.486 0.72858 248.874 0.00310417 250.322 0H436.084C437.529 0.0063398 438.914 0.733623 439.939 2.02422C440.964 3.31481 441.545 5.06472 441.558 6.89467V337.534C441.558 339.375 440.982 341.14 439.956 342.444C438.93 343.748 437.538 344.483 436.084 344.49ZM250.322 0.243629C248.93 0.246849 247.595 0.948614 246.611 2.19523C245.626 3.44184 245.072 5.13169 245.069 6.89467V337.534C245.072 339.297 245.626 340.987 246.611 342.234C247.595 343.48 248.93 344.182 250.322 344.185H436.084C437.476 344.182 438.811 343.48 439.795 342.234C440.78 340.987 441.334 339.297 441.337 337.534V6.89467C441.334 5.13169 440.78 3.44184 439.795 2.19523C438.811 0.948614 437.476 0.246849 436.084 0.243629H250.322Z" fill="#EBEBEB"/>
<path d="M267.638 397.637H412.14V129.366H267.638V397.637Z" fill="#F0F0F0"/>
<path d="M272.746 187.362L407.032 187.362V137.82L272.746 137.82V187.362Z" fill="#E0E0E0"/>
<path d="M399.394 187.362H407.022V145.836H399.394V187.362Z" fill="#EBEBEB"/>
<path d="M362.51 187.362H370.139V145.836H362.51V187.362Z" fill="#EBEBEB"/>
<path d="M315.078 185.706L322.596 187.347L328.166 146.424L320.648 144.784L315.078 185.706Z" fill="#EBEBEB"/>
<path d="M389.947 187.362H397.575V151.305H389.947V187.362Z" fill="#EBEBEB"/>
<path d="M372.419 187.362H380.048V151.305H372.419V187.362Z" fill="#EBEBEB"/>
<path d="M328.157 187.362H335.786V151.305H328.157V187.362Z" fill="#EBEBEB"/>
<path d="M346.328 185.253L353.775 187.349L359.953 152.151L352.506 150.055L346.328 185.253Z" fill="#EBEBEB"/>
<path d="M383.357 187.362H387.167V143.777H383.357V187.362Z" fill="#EBEBEB"/>
<path d="M337.98 187.362H341.789V143.777H337.98V187.362Z" fill="#EBEBEB"/>
<path d="M407.022 195.207H272.737V244.749H407.022V195.207Z" fill="#E0E0E0"/>
<path d="M280.365 203.234H272.737V244.761H280.365V203.234Z" fill="#EBEBEB"/>
<path d="M317.258 203.234H309.629V244.761H317.258V203.234Z" fill="#EBEBEB"/>
<path d="M359.135 202.171L351.618 203.812L357.188 244.735L364.706 243.094L359.135 202.171Z" fill="#EBEBEB"/>
<path d="M289.822 208.704H282.193V244.761H289.822V208.704Z" fill="#EBEBEB"/>
<path d="M307.359 208.704H299.73V244.761H307.359V208.704Z" fill="#EBEBEB"/>
<path d="M351.611 208.704H343.982V244.761H351.611V208.704Z" fill="#EBEBEB"/>
<path d="M327.282 207.433L319.835 209.529L326.013 244.727L333.46 242.631L327.282 207.433Z" fill="#EBEBEB"/>
<path d="M296.411 201.164H292.602V244.749H296.411V201.164Z" fill="#EBEBEB"/>
<path d="M341.789 201.164H337.979V244.749H341.789V201.164Z" fill="#EBEBEB"/>
<path d="M399.394 244.749H407.022V203.222H399.394V244.749Z" fill="#EBEBEB"/>
<path d="M389.947 244.749H397.575V208.692H389.947V244.749Z" fill="#EBEBEB"/>
<path d="M372.419 244.749H380.048V208.692H372.419V244.749Z" fill="#EBEBEB"/>
<path d="M383.357 244.761H387.167V201.176H383.357V244.761Z" fill="#EBEBEB"/>
<path d="M272.746 302.147H407.032V252.606L272.746 252.606V302.147Z" fill="#E0E0E0"/>
<path d="M322.318 302.147H329.947V260.621H322.318V302.147Z" fill="#EBEBEB"/>
<path d="M274.894 300.5L282.412 302.141L287.983 261.218L280.465 259.577L274.894 300.5Z" fill="#EBEBEB"/>
<path d="M349.754 302.147H357.383V266.09H349.754V302.147Z" fill="#EBEBEB"/>
<path d="M332.217 302.147H339.846V266.09H332.217V302.147Z" fill="#EBEBEB"/>
<path d="M287.965 302.147H295.594V266.09H287.965V302.147Z" fill="#EBEBEB"/>
<path d="M306.134 300.034L313.581 302.13L319.759 266.932L312.312 264.836L306.134 300.034Z" fill="#EBEBEB"/>
<path d="M343.165 302.147H346.974V258.562H343.165V302.147Z" fill="#EBEBEB"/>
<path d="M297.787 302.147H301.597V258.562H297.787V302.147Z" fill="#EBEBEB"/>
<path d="M362.654 300.491L370.171 302.132L375.742 261.209L368.224 259.568L362.654 300.491Z" fill="#EBEBEB"/>
<path d="M375.728 302.147H383.357V266.09H375.728V302.147Z" fill="#EBEBEB"/>
<path d="M393.91 300.034L401.357 302.13L407.534 266.931L400.087 264.836L393.91 300.034Z" fill="#EBEBEB"/>
<path d="M385.55 302.147H389.36V258.562H385.55V302.147Z" fill="#EBEBEB"/>
<path d="M437.056 129.379H412.13V398.344H437.056V129.379Z" fill="#E0E0E0"/>
<path d="M186.089 108.293V70.5181H143.886V108.293H186.089Z" fill="#E0E0E0"/>
<path d="M184.108 105.82V72.9787H145.868V105.82H184.108Z" fill="#EBEBEB"/>
<path d="M171.457 155.739V117.965H129.254V155.739H171.457Z" fill="#E0E0E0"/>
<path d="M169.476 153.266V120.425H131.236V153.266H169.476Z" fill="#EBEBEB"/>
<path d="M109.024 108.293H135.883V60.1761L109.024 60.1761V108.293Z" fill="#E0E0E0"/>
<path d="M110.774 106.027H134.132V62.4297L110.774 62.4297V106.027Z" fill="#EBEBEB"/>
<path d="M93.7373 171.417H123.569V117.977H93.7373V171.417Z" fill="#E0E0E0"/>
<path d="M95.6901 168.895H121.626V120.474H95.6901V168.895Z" fill="#EBEBEB"/>
<path d="M66.8589 78.7162V108.293H99.9036V78.7162H66.8589Z" fill="#E0E0E0"/>
<path d="M68.4174 80.653V106.368H98.3549V80.653H68.4174Z" fill="#EBEBEB"/>
<path d="M240.5 453.83C343.513 453.83 427.022 447.656 427.022 440.041C427.022 432.425 343.513 426.251 240.5 426.251C137.487 426.251 53.9778 432.425 53.9778 440.041C53.9778 447.656 137.487 453.83 240.5 453.83Z" fill="#F5F5F5"/>
<path d="M418.47 17.054V64.9512C418.463 65.5709 418.357 66.1824 418.157 66.7482C417.958 67.3141 417.669 67.8223 417.309 68.242C416.948 68.6616 416.524 68.9837 416.062 69.1887C415.6 69.3936 415.11 69.4771 414.622 69.434H286.878C286.878 69.434 272.111 60.7121 273.208 48.5307C274.045 38.7856 274.911 30.8799 275.623 24.8501C276.044 21.3217 277.452 18.1022 279.59 15.7772C281.728 13.4522 284.454 12.1763 287.273 12.1814H414.622C415.643 12.1814 416.621 12.6948 417.343 13.6085C418.065 14.5223 418.47 15.7617 418.47 17.054Z" fill="#38BDF8"/>
<path opacity="0.6" d="M418.47 17.054V64.9512C418.463 65.5709 418.357 66.1824 418.157 66.7482C417.958 67.3141 417.669 67.8223 417.309 68.242C416.948 68.6616 416.524 68.9837 416.062 69.1887C415.6 69.3936 415.11 69.4771 414.622 69.434H286.878C286.878 69.434 272.111 60.7121 273.208 48.5307C274.045 38.7856 274.911 30.8799 275.623 24.8501C276.044 21.3217 277.452 18.1022 279.59 15.7772C281.728 13.4522 284.454 12.1763 287.273 12.1814H414.622C415.643 12.1814 416.621 12.6948 417.343 13.6085C418.065 14.5223 418.47 15.7617 418.47 17.054Z" fill="white"/>
<path opacity="0.2" d="M418.47 17.054V64.9512C418.463 65.5709 418.357 66.1824 418.157 66.7482C417.958 67.3141 417.669 67.8223 417.309 68.242C416.948 68.6616 416.524 68.9837 416.062 69.1887C415.6 69.3936 415.11 69.4771 414.622 69.434H403.357C403.357 69.434 388.581 60.7121 389.61 48.5307C390.447 38.7856 391.313 30.8799 392.025 24.8501C392.446 21.3039 393.865 18.0697 396.019 15.7422C398.174 13.4147 400.92 12.1502 403.752 12.1814H414.622C415.643 12.1814 416.621 12.6948 417.343 13.6085C418.065 14.5223 418.47 15.7617 418.47 17.054Z" fill="black"/>
<path d="M276.094 52.38H387.686C387.686 52.38 391.37 62.7342 397.623 66.9977H288.6C288.6 66.9977 277.056 60.2979 276.094 52.38Z" fill="#38BDF8"/>
<path opacity="0.2" d="M276.094 52.38H387.686C387.686 52.38 391.37 62.7342 397.623 66.9977H288.6C288.6 66.9977 277.056 60.2979 276.094 52.38Z" fill="black"/>
<path d="M283.79 62.1251H391.534L389.927 66.9977H283.79V62.1251Z" fill="#38BDF8"/>
<path d="M279.942 56.0344H387.686L386.079 60.907H279.942V56.0344Z" fill="#38BDF8"/>
<path d="M383.838 48.7256H381.116V50.1508H383.838V48.7256Z" fill="#38BDF8"/>
<path d="M379.981 48.7256H377.258V50.1508H379.981V48.7256Z" fill="#38BDF8"/>
<path d="M267.244 43.4145C266.97 43.0744 266.753 42.6687 266.605 42.2211C266.456 41.7735 266.38 41.293 266.38 40.8077C266.38 40.3223 266.456 39.8419 266.605 39.3943C266.753 38.9467 266.97 38.541 267.244 38.2009" stroke="#38BDF8" stroke-linecap="round" stroke-linejoin="round"/>
<path d="M265.733 45.3391C265.262 44.7449 264.888 44.0388 264.633 43.2611C264.378 42.4835 264.247 41.6497 264.247 40.8077C264.247 39.9656 264.378 39.1318 264.633 38.3542C264.888 37.5766 265.262 36.8704 265.733 36.2762" stroke="#38BDF8" stroke-width="1.05659" stroke-linecap="round" stroke-linejoin="round"/>
<path d="M264.329 47.1176C263.673 46.2903 263.152 45.307 262.797 44.2241C262.441 43.1413 262.258 41.9802 262.258 40.8077C262.258 39.6351 262.441 38.4741 262.797 37.3912C263.152 36.3084 263.673 35.3251 264.329 34.4977" stroke="#38BDF8" stroke-linecap="round" stroke-linejoin="round"/>
<path d="M269.216 41.8431C269.667 41.8431 270.033 41.3795 270.033 40.8077C270.033 40.2358 269.667 39.7722 269.216 39.7722C268.764 39.7722 268.398 40.2358 268.398 40.8077C268.398 41.3795 268.764 41.8431 269.216 41.8431Z" fill="#38BDF8"/>
<path d="M48.1 316.716V440.966H54.834V334.988H167.388V440.966H176.046V316.716H48.1Z" fill="#263238"/>
<path opacity="0.3" d="M48.1 316.716V440.966H54.834V334.988H167.388V440.966H176.046V316.716H48.1Z" fill="black"/>
<path opacity="0.4" d="M48.1 316.716V440.966H54.834V334.988H167.388V440.966H176.046V316.716H48.1Z" fill="white"/>
<path d="M113.516 316.716V440.966H120.25V334.988H232.804V440.966H241.462V316.716H113.516Z" fill="#263238"/>
<path opacity="0.5" d="M113.516 316.716V440.966H120.25V334.988H232.804V440.966H241.462V316.716H113.516Z" fill="white"/>
<path d="M229.341 231.069H192.227C189.841 231.069 187.907 233.518 187.907 236.538V311.247C187.907 314.267 189.841 316.716 192.227 316.716H229.341C231.726 316.716 233.66 314.267 233.66 311.247V236.538C233.66 233.518 231.726 231.069 229.341 231.069Z" fill="#263238"/>
<path opacity="0.1" d="M229.341 231.069H192.227C189.841 231.069 187.907 233.518 187.907 236.538V311.247C187.907 314.267 189.841 316.716 192.227 316.716H229.341C231.726 316.716 233.66 314.267 233.66 311.247V236.538C233.66 233.518 231.726 231.069 229.341 231.069Z" fill="white"/>
<path opacity="0.1" d="M229.341 231.069H217.566C215.18 231.069 213.247 233.518 213.247 236.538V311.247C213.247 314.267 215.18 316.716 217.566 316.716H229.341C231.726 316.716 233.66 314.267 233.66 311.247V236.538C233.66 233.518 231.726 231.069 229.341 231.069Z" fill="white"/>
<path opacity="0.3" d="M224.146 257.539C222.789 257.541 221.462 257.034 220.333 256.081C219.203 255.128 218.323 253.773 217.802 252.186C217.282 250.599 217.144 248.852 217.408 247.167C217.671 245.481 218.324 243.932 219.283 242.717C220.242 241.501 221.464 240.672 222.795 240.336C224.125 240 225.505 240.171 226.759 240.828C228.013 241.485 229.085 242.599 229.839 244.027C230.593 245.456 230.995 247.135 230.995 248.854C230.993 251.154 230.271 253.359 228.987 254.987C227.703 256.615 225.963 257.533 224.146 257.539Z" fill="black"/>
<path opacity="0.2" d="M230.101 248.854C230.101 250.355 229.749 251.822 229.091 253.07C228.432 254.318 227.496 255.291 226.401 255.865C225.306 256.439 224.101 256.59 222.938 256.297C221.776 256.004 220.708 255.281 219.87 254.22C219.031 253.159 218.461 251.806 218.229 250.334C217.998 248.862 218.117 247.336 218.57 245.95C219.024 244.563 219.792 243.378 220.778 242.544C221.763 241.71 222.922 241.265 224.107 241.265C225.697 241.265 227.221 242.064 228.345 243.487C229.469 244.911 230.101 246.841 230.101 248.854Z" fill="white"/>
<path opacity="0.3" d="M226.513 248.854C226.514 249.606 226.34 250.343 226.011 250.97C225.682 251.597 225.213 252.086 224.664 252.375C224.115 252.664 223.511 252.74 222.928 252.594C222.345 252.448 221.809 252.086 221.389 251.553C220.968 251.021 220.682 250.343 220.567 249.604C220.451 248.866 220.512 248.101 220.74 247.406C220.968 246.711 221.355 246.117 221.85 245.701C222.345 245.284 222.926 245.063 223.521 245.065C224.313 245.068 225.073 245.469 225.633 246.178C226.194 246.888 226.51 247.85 226.513 248.854Z" fill="black"/>
<path opacity="0.2" d="M225.974 248.854C225.974 249.468 225.83 250.069 225.56 250.579C225.291 251.09 224.908 251.488 224.459 251.724C224.011 251.959 223.518 252.02 223.042 251.9C222.566 251.78 222.129 251.485 221.786 251.05C221.443 250.616 221.209 250.062 221.115 249.46C221.02 248.857 221.069 248.233 221.254 247.665C221.44 247.097 221.754 246.612 222.158 246.271C222.561 245.93 223.036 245.747 223.521 245.747C224.171 245.747 224.795 246.075 225.255 246.657C225.715 247.24 225.974 248.03 225.974 248.854Z" fill="white"/>
<path opacity="0.3" d="M224.146 284.338C222.624 284.338 221.136 283.767 219.87 282.696C218.605 281.625 217.618 280.103 217.036 278.322C216.453 276.542 216.301 274.582 216.598 272.692C216.895 270.801 217.628 269.065 218.704 267.702C219.78 266.339 221.152 265.411 222.645 265.035C224.137 264.659 225.685 264.852 227.091 265.59C228.497 266.327 229.699 267.576 230.545 269.179C231.391 270.781 231.842 272.666 231.842 274.593C231.842 277.178 231.031 279.656 229.588 281.484C228.145 283.311 226.187 284.338 224.146 284.338Z" fill="black"/>
<path opacity="0.2" d="M230.803 274.642C230.803 276.328 230.408 277.977 229.668 279.379C228.928 280.781 227.876 281.874 226.646 282.52C225.416 283.165 224.062 283.334 222.755 283.005C221.449 282.676 220.249 281.864 219.307 280.671C218.366 279.479 217.724 277.959 217.464 276.305C217.205 274.651 217.338 272.937 217.848 271.379C218.357 269.821 219.22 268.489 220.328 267.552C221.435 266.615 222.737 266.115 224.069 266.115C225.855 266.115 227.568 267.013 228.831 268.612C230.094 270.211 230.803 272.38 230.803 274.642Z" fill="white"/>
<path opacity="0.3" d="M226.801 274.642C226.801 275.48 226.605 276.3 226.237 276.997C225.869 277.694 225.346 278.237 224.734 278.558C224.123 278.879 223.45 278.963 222.8 278.799C222.151 278.636 221.554 278.232 221.086 277.639C220.618 277.046 220.299 276.291 220.17 275.469C220.041 274.646 220.107 273.794 220.36 273.019C220.614 272.245 221.043 271.583 221.593 271.117C222.144 270.651 222.791 270.403 223.453 270.403C224.341 270.403 225.193 270.849 225.821 271.644C226.448 272.439 226.801 273.517 226.801 274.642Z" fill="black"/>
<path opacity="0.2" d="M226.195 274.642C226.195 275.328 226.034 276 225.733 276.57C225.432 277.141 225.004 277.586 224.503 277.849C224.002 278.112 223.45 278.181 222.919 278.047C222.387 277.913 221.898 277.582 221.515 277.097C221.131 276.611 220.87 275.992 220.764 275.319C220.659 274.646 220.713 273.948 220.92 273.313C221.128 272.679 221.479 272.137 221.93 271.755C222.381 271.374 222.911 271.17 223.453 271.17C224.18 271.173 224.876 271.54 225.389 272.19C225.903 272.841 226.193 273.722 226.195 274.642Z" fill="white"/>
<path d="M179.317 286.409H116.238V316.716H179.317V286.409Z" fill="#263238"/>
<path d="M181.26 265.311H115.219C114.278 265.311 113.516 266.276 113.516 267.467V287.542C113.516 288.733 114.278 289.698 115.219 289.698H181.26C182.2 289.698 182.963 288.733 182.963 287.542V267.467C182.963 266.276 182.2 265.311 181.26 265.311Z" fill="#263238"/>
<path opacity="0.2" d="M181.26 265.311H142.799C141.859 265.311 141.096 266.276 141.096 267.467V287.542C141.096 288.733 141.859 289.698 142.799 289.698H181.26C182.2 289.698 182.963 288.733 182.963 287.542V267.467C182.963 266.276 182.2 265.311 181.26 265.311Z" fill="white"/>
<path d="M181.26 290.904H115.219C114.278 290.904 113.516 291.869 113.516 293.06V313.135C113.516 314.326 114.278 315.291 115.219 315.291H181.26C182.2 315.291 182.963 314.326 182.963 313.135V293.06C182.963 291.869 182.2 290.904 181.26 290.904Z" fill="#263238"/>
<path opacity="0.2" d="M181.26 290.904H142.799C141.859 290.904 141.096 291.869 141.096 293.06V313.135C141.096 314.326 141.859 315.291 142.799 315.291H181.26C182.2 315.291 182.963 314.326 182.963 313.135V293.06C182.963 291.869 182.2 290.904 181.26 290.904Z" fill="white"/>
<path opacity="0.1" d="M181.26 265.311H115.219C114.278 265.311 113.516 266.276 113.516 267.467V287.542C113.516 288.733 114.278 289.698 115.219 289.698H181.26C182.2 289.698 182.963 288.733 182.963 287.542V267.467C182.963 266.276 182.2 265.311 181.26 265.311Z" fill="white"/>
<path opacity="0.1" d="M181.26 290.904H115.219C114.278 290.904 113.516 291.869 113.516 293.06V313.135C113.516 314.326 114.278 315.291 115.219 315.291H181.26C182.2 315.291 182.963 314.326 182.963 313.135V293.06C182.963 291.869 182.2 290.904 181.26 290.904Z" fill="white"/>
<path d="M170.486 274.081H156.008V282.791H170.486V274.081Z" fill="#38BDF8"/>
<path opacity="0.3" d="M171.717 273.375H154.719V283.449H171.717V273.375Z" fill="black"/>
<path d="M154.805 303.426C154.805 304.532 154.546 305.613 154.061 306.533C153.576 307.452 152.886 308.169 152.079 308.592C151.272 309.015 150.385 309.126 149.528 308.91C148.671 308.694 147.885 308.162 147.267 307.38C146.65 306.598 146.229 305.602 146.059 304.517C145.888 303.433 145.976 302.308 146.31 301.287C146.644 300.265 147.21 299.392 147.936 298.777C148.662 298.163 149.516 297.835 150.389 297.835C151.561 297.835 152.684 298.424 153.512 299.473C154.34 300.521 154.805 301.943 154.805 303.426Z" fill="#263238"/>
<path d="M156.729 303.426C156.729 304.532 156.47 305.613 155.985 306.533C155.5 307.452 154.81 308.169 154.003 308.592C153.196 309.015 152.309 309.126 151.452 308.91C150.595 308.694 149.809 308.162 149.191 307.38C148.574 306.598 148.153 305.602 147.983 304.517C147.812 303.433 147.9 302.308 148.234 301.287C148.568 300.265 149.134 299.392 149.86 298.777C150.586 298.163 151.44 297.835 152.313 297.835C152.894 297.833 153.468 297.977 154.005 298.257C154.541 298.538 155.028 298.95 155.439 299.469C155.849 299.989 156.174 300.606 156.396 301.285C156.617 301.964 156.73 302.692 156.729 303.426Z" fill="#263238"/>
<path opacity="0.5" d="M156.729 303.426C156.729 304.532 156.47 305.613 155.985 306.533C155.5 307.452 154.81 308.169 154.003 308.592C153.196 309.015 152.309 309.126 151.452 308.91C150.595 308.694 149.809 308.162 149.191 307.38C148.574 306.598 148.153 305.602 147.983 304.517C147.812 303.433 147.9 302.308 148.234 301.287C148.568 300.265 149.134 299.392 149.86 298.777C150.586 298.163 151.44 297.835 152.313 297.835C152.894 297.833 153.468 297.977 154.005 298.257C154.541 298.538 155.028 298.95 155.439 299.469C155.849 299.989 156.174 300.606 156.396 301.285C156.617 301.964 156.73 302.692 156.729 303.426Z" fill="white"/>
<path d="M179.827 303.426C179.825 304.529 179.565 305.607 179.079 306.523C178.594 307.438 177.905 308.152 177.1 308.572C176.295 308.992 175.409 309.101 174.555 308.885C173.701 308.668 172.917 308.136 172.302 307.355C171.687 306.574 171.268 305.58 171.099 304.498C170.93 303.416 171.017 302.295 171.351 301.276C171.685 300.258 172.25 299.387 172.974 298.774C173.698 298.162 174.55 297.835 175.421 297.835C176 297.835 176.574 297.98 177.109 298.261C177.644 298.542 178.13 298.954 178.54 299.473C178.949 299.993 179.273 300.609 179.494 301.288C179.715 301.966 179.828 302.693 179.827 303.426Z" fill="#263238"/>
<path d="M181.751 303.426C181.749 304.529 181.489 305.607 181.003 306.523C180.518 307.438 179.829 308.152 179.024 308.572C178.219 308.992 177.333 309.101 176.479 308.885C175.625 308.668 174.841 308.136 174.226 307.355C173.611 306.574 173.192 305.58 173.023 304.498C172.854 303.416 172.941 302.295 173.275 301.276C173.609 300.258 174.174 299.387 174.898 298.774C175.622 298.162 176.474 297.835 177.345 297.835C177.924 297.835 178.498 297.98 179.033 298.261C179.568 298.542 180.054 298.954 180.464 299.473C180.873 299.993 181.197 300.609 181.418 301.288C181.639 301.966 181.752 302.693 181.751 303.426Z" fill="#263238"/>
<path opacity="0.5" d="M181.751 303.426C181.749 304.529 181.489 305.607 181.003 306.523C180.518 307.438 179.829 308.152 179.024 308.572C178.219 308.992 177.333 309.101 176.479 308.885C175.625 308.668 174.841 308.136 174.226 307.355C173.611 306.574 173.192 305.58 173.023 304.498C172.854 303.416 172.941 302.295 173.275 301.276C173.609 300.258 174.174 299.387 174.898 298.774C175.622 298.162 176.474 297.835 177.345 297.835C177.924 297.835 178.498 297.98 179.033 298.261C179.568 298.542 180.054 298.954 180.464 299.473C180.873 299.993 181.197 300.609 181.418 301.288C181.639 301.966 181.752 302.693 181.751 303.426Z" fill="white"/>
<path opacity="0.5" d="M160.288 302.306H158.326V304.791H160.288V302.306Z" fill="white"/>
<path opacity="0.5" d="M163.011 302.306H161.048V304.791H163.011V302.306Z" fill="white"/>
<path opacity="0.5" d="M165.724 302.306H163.761V304.791H165.724V302.306Z" fill="white"/>
<path opacity="0.5" d="M168.446 302.306H166.484V304.791H168.446V302.306Z" fill="white"/>
<path d="M102.357 231.069H65.2428C62.8573 231.069 60.9235 233.518 60.9235 236.538V311.247C60.9235 314.267 62.8573 316.716 65.2428 316.716H102.357C104.742 316.716 106.676 314.267 106.676 311.247V236.538C106.676 233.518 104.742 231.069 102.357 231.069Z" fill="#263238"/>
<path opacity="0.1" d="M102.357 231.069H65.2428C62.8573 231.069 60.9235 233.518 60.9235 236.538V311.247C60.9235 314.267 62.8573 316.716 65.2428 316.716H102.357C104.742 316.716 106.676 314.267 106.676 311.247V236.538C106.676 233.518 104.742 231.069 102.357 231.069Z" fill="white"/>
<path opacity="0.1" d="M102.357 231.069H90.5819C88.1964 231.069 86.2625 233.518 86.2625 236.538V311.247C86.2625 314.267 88.1964 316.716 90.5819 316.716H102.357C104.742 316.716 106.676 314.267 106.676 311.247V236.538C106.676 233.518 104.742 231.069 102.357 231.069Z" fill="white"/>
<path opacity="0.3" d="M97.162 257.539C95.805 257.541 94.4779 257.034 93.3487 256.081C92.2194 255.128 91.3388 253.773 90.8182 252.186C90.2975 250.599 90.1603 248.852 90.4239 247.167C90.6875 245.481 91.34 243.932 92.2989 242.717C93.2577 241.501 94.4799 240.672 95.8107 240.336C97.1414 240 98.5211 240.171 99.775 240.828C101.029 241.485 102.101 242.599 102.855 244.027C103.609 245.456 104.011 247.135 104.011 248.854C104.009 251.154 103.287 253.359 102.003 254.987C100.719 256.615 98.9786 257.533 97.162 257.539Z" fill="black"/>
<path opacity="0.2" d="M103.117 248.854C103.117 250.355 102.765 251.822 102.107 253.07C101.448 254.318 100.512 255.291 99.417 255.865C98.3219 256.439 97.1169 256.59 95.9543 256.297C94.7917 256.004 93.7238 255.281 92.8856 254.22C92.0475 253.159 91.4767 251.806 91.2454 250.334C91.0142 248.862 91.1328 247.336 91.5865 245.95C92.0401 244.563 92.8082 243.378 93.7938 242.544C94.7794 241.71 95.9382 241.265 97.1235 241.265C98.713 241.265 100.237 242.064 101.361 243.487C102.485 244.911 103.117 246.841 103.117 248.854Z" fill="white"/>
<path opacity="0.3" d="M99.5286 248.854C99.5305 249.606 99.3558 250.343 99.0267 250.97C98.6977 251.597 98.229 252.086 97.6802 252.375C97.1313 252.664 96.5271 252.74 95.9439 252.594C95.3608 252.448 94.8251 252.086 94.4048 251.553C93.9845 251.021 93.6984 250.343 93.5829 249.604C93.4674 248.866 93.5276 248.101 93.756 247.406C93.9844 246.711 94.3706 246.117 94.8656 245.701C95.3607 245.284 95.9423 245.063 96.5367 245.065C97.3294 245.068 98.0889 245.469 98.6495 246.178C99.21 246.888 99.526 247.85 99.5286 248.854Z" fill="black"/>
<path opacity="0.2" d="M98.9898 248.854C98.9898 249.468 98.8459 250.069 98.5764 250.579C98.3068 251.09 97.9237 251.488 97.4755 251.724C97.0272 251.959 96.534 252.02 96.0581 251.9C95.5823 251.78 95.1452 251.485 94.8021 251.05C94.459 250.616 94.2254 250.062 94.1308 249.46C94.0361 248.857 94.0847 248.233 94.2704 247.665C94.456 247.097 94.7704 246.612 95.1738 246.271C95.5773 245.93 96.0515 245.747 96.5367 245.747C97.1873 245.747 97.8113 246.075 98.2713 246.657C98.7314 247.24 98.9898 248.03 98.9898 248.854Z" fill="white"/>
<path opacity="0.3" d="M97.1619 284.338C95.6398 284.338 94.1519 283.767 92.8863 282.696C91.6207 281.625 90.6343 280.103 90.0518 278.322C89.4693 276.542 89.3169 274.582 89.6138 272.692C89.9108 270.801 90.6437 269.065 91.7201 267.702C92.7964 266.339 94.1677 265.411 95.6605 265.035C97.1534 264.659 98.7008 264.852 100.107 265.59C101.513 266.327 102.715 267.576 103.561 269.179C104.407 270.781 104.858 272.666 104.858 274.593C104.858 277.178 104.047 279.656 102.604 281.484C101.161 283.311 99.2031 284.338 97.1619 284.338Z" fill="black"/>
<path opacity="0.2" d="M103.819 274.642C103.819 276.328 103.424 277.977 102.684 279.379C101.944 280.781 100.892 281.874 99.662 282.52C98.4315 283.165 97.0775 283.334 95.7713 283.005C94.465 282.676 93.2651 281.864 92.3234 280.671C91.3816 279.479 90.7402 277.959 90.4804 276.305C90.2206 274.651 90.3539 272.937 90.8636 271.379C91.3733 269.821 92.2364 268.489 93.3438 267.552C94.4512 266.615 95.7532 266.115 97.085 266.115C98.871 266.115 100.584 267.013 101.847 268.612C103.11 270.211 103.819 272.38 103.819 274.642Z" fill="white"/>
<path opacity="0.3" d="M99.8171 274.642C99.8171 275.48 99.6208 276.3 99.2529 276.997C98.8851 277.694 98.3622 278.237 97.7505 278.558C97.1388 278.879 96.4656 278.963 95.8162 278.799C95.1668 278.636 94.5703 278.232 94.1021 277.639C93.6339 277.046 93.3151 276.291 93.1859 275.469C93.0567 274.646 93.123 273.794 93.3764 273.019C93.6298 272.245 94.0589 271.583 94.6094 271.117C95.16 270.651 95.8072 270.403 96.4693 270.403C97.3572 270.403 98.2087 270.849 98.8366 271.644C99.4644 272.439 99.8171 273.517 99.8171 274.642Z" fill="black"/>
<path opacity="0.2" d="M99.2111 274.642C99.2111 275.328 99.0503 276 98.749 276.57C98.4477 277.141 98.0195 277.586 97.5186 277.849C97.0176 278.112 96.4663 278.181 95.9345 278.047C95.4026 277.913 94.9141 277.582 94.5307 277.097C94.1473 276.611 93.8861 275.992 93.7803 275.319C93.6746 274.646 93.7288 273.948 93.9364 273.313C94.1439 272.679 94.4953 272.137 94.9462 271.755C95.397 271.374 95.9271 271.17 96.4694 271.17C97.1957 271.173 97.8916 271.54 98.4052 272.19C98.9189 272.841 99.2085 273.722 99.2111 274.642Z" fill="white"/>
<path d="M150.072 254.043C150.341 253.695 150.662 253.418 151.016 253.23C151.37 253.041 151.751 252.943 152.135 252.943C152.52 252.943 152.9 253.041 153.255 253.23C153.609 253.418 153.93 253.695 154.199 254.043" stroke="#38BDF8" stroke-linecap="round" stroke-linejoin="round"/>
<path d="M148.552 252.155C149.502 250.956 150.789 250.282 152.131 250.282C153.472 250.282 154.759 250.956 155.709 252.155" stroke="#38BDF8" stroke-width="1.05659" stroke-linecap="round" stroke-linejoin="round"/>
<path d="M147.186 250.34C148.51 248.667 150.304 247.727 152.174 247.727C154.044 247.727 155.838 248.667 157.162 250.34" stroke="#38BDF8" stroke-linecap="round" stroke-linejoin="round"/>
<path d="M152.958 256.528C152.96 256.736 152.913 256.94 152.823 257.115C152.732 257.289 152.603 257.425 152.452 257.506C152.3 257.586 152.133 257.608 151.972 257.568C151.81 257.528 151.662 257.428 151.546 257.281C151.429 257.134 151.35 256.946 151.319 256.742C151.287 256.537 151.304 256.326 151.368 256.134C151.432 255.942 151.539 255.778 151.677 255.664C151.815 255.55 151.976 255.49 152.14 255.493C152.357 255.493 152.565 255.602 152.718 255.796C152.872 255.99 152.958 256.253 152.958 256.528Z" fill="#38BDF8"/>
<path d="M292.968 332.235H235.026C228.847 332.235 223.838 338.578 223.838 346.402V404.081C223.838 411.905 228.847 418.248 235.026 418.248H292.968C299.147 418.248 304.156 411.905 304.156 404.081V346.402C304.156 338.578 299.147 332.235 292.968 332.235Z" fill="#38BDF8"/>
<path opacity="0.1" d="M292.968 332.235H235.026C228.847 332.235 223.838 338.578 223.838 346.402V404.081C223.838 411.905 228.847 418.248 235.026 418.248H292.968C299.147 418.248 304.156 411.905 304.156 404.081V346.402C304.156 338.578 299.147 332.235 292.968 332.235Z" fill="white"/>
<path opacity="0.2" d="M235.017 418.26C232.051 418.257 229.208 416.763 227.112 414.107C225.016 411.45 223.838 407.849 223.838 404.093V346.402C223.838 342.647 225.016 339.046 227.112 336.389C229.208 333.733 232.051 332.239 235.017 332.235C237.984 332.235 240.83 333.728 242.928 336.385C245.026 339.042 246.205 342.645 246.205 346.402V404.093C246.205 407.851 245.026 411.454 242.928 414.111C240.83 416.768 237.984 418.26 235.017 418.26Z" fill="white"/>
<path d="M96.2 414.862L92.833 440.966H100.048L106.676 416.068L96.2 414.862Z" fill="#263238"/>
<path d="M194.699 414.862L198.066 440.966H190.851L184.223 416.068L194.699 414.862Z" fill="#263238"/>
<path opacity="0.1" d="M96.2 414.862L92.833 440.966H100.048L106.676 416.068L96.2 414.862Z" fill="white"/>
<path opacity="0.1" d="M194.699 414.862L198.066 440.966H190.851L184.223 416.068L194.699 414.862Z" fill="white"/>
<path d="M297.258 414.862L293.891 440.966H301.106L307.734 416.068L297.258 414.862Z" fill="#263238"/>
<path d="M395.757 414.862L399.124 440.966H391.909L385.281 416.068L395.757 414.862Z" fill="#263238"/>
<path d="M401.5 359.351H90.0817C85.4913 359.351 81.77 364.063 81.77 369.876V410.951C81.77 416.764 85.4913 421.476 90.0817 421.476H401.5C406.091 421.476 409.812 416.764 409.812 410.951V369.876C409.812 364.063 406.091 359.351 401.5 359.351Z" fill="#38BDF8"/>
<path opacity="0.1" d="M401.5 359.351H90.0817C85.4913 359.351 81.77 364.063 81.77 369.876V410.951C81.77 416.764 85.4913 421.476 90.0817 421.476H401.5C406.091 421.476 409.812 416.764 409.812 410.951V369.876C409.812 364.063 406.091 359.351 401.5 359.351Z" fill="white"/>
<path opacity="0.2" d="M197.556 359.351H90.0817C85.4913 359.351 81.77 364.063 81.77 369.876V410.951C81.77 416.764 85.4913 421.476 90.0817 421.476H197.556C202.147 421.476 205.868 416.764 205.868 410.951V369.876C205.868 364.063 202.147 359.351 197.556 359.351Z" fill="white"/>
<path d="M286.676 360.789H405.002L423.03 242.897C423.491 239.869 423.418 236.749 422.814 233.761C422.211 230.773 421.092 227.991 419.539 225.615C417.985 223.24 416.036 221.329 413.83 220.02C411.624 218.712 409.217 218.038 406.782 218.047H322.068C318.246 218.06 314.546 219.753 311.6 222.837C308.654 225.92 306.645 230.204 305.916 234.955L286.676 360.789Z" fill="#38BDF8"/>
<g opacity="0.1">
<path d="M286.676 360.789H405.002L423.03 242.897C423.491 239.869 423.418 236.749 422.814 233.761C422.211 230.773 421.092 227.991 419.539 225.615C417.985 223.24 416.036 221.329 413.83 220.02C411.624 218.712 409.217 218.038 406.782 218.047H322.068C318.246 218.06 314.546 219.753 311.6 222.837C308.654 225.92 306.645 230.204 305.916 234.955L286.676 360.789Z" fill="white"/>
</g>
<path opacity="0.2" d="M286.676 360.569H371.332L390.572 234.845C391.307 230.093 393.328 225.815 396.287 222.749C399.246 219.682 402.958 218.019 406.782 218.047H322.068C318.253 218.037 314.554 219.709 311.606 222.777C308.659 225.844 306.647 230.116 305.916 234.857L286.676 360.569Z" fill="white"/>
<path d="M418.104 332.235H360.163C353.984 332.235 348.975 338.578 348.975 346.402V404.081C348.975 411.905 353.984 418.248 360.163 418.248H418.104C424.283 418.248 429.292 411.905 429.292 404.081V346.402C429.292 338.578 424.283 332.235 418.104 332.235Z" fill="#38BDF8"/>
<path opacity="0.1" d="M418.104 332.235H360.163C353.984 332.235 348.975 338.578 348.975 346.402V404.081C348.975 411.905 353.984 418.248 360.163 418.248H418.104C424.283 418.248 429.292 411.905 429.292 404.081V346.402C429.292 338.578 424.283 332.235 418.104 332.235Z" fill="white"/>
<path opacity="0.2" d="M360.154 418.26C357.188 418.257 354.345 416.763 352.249 414.107C350.153 411.45 348.975 407.849 348.975 404.093V346.402C348.975 342.647 350.153 339.046 352.249 336.389C354.345 333.733 357.188 332.239 360.154 332.235C363.119 332.239 365.962 333.733 368.058 336.389C370.155 339.046 371.332 342.647 371.332 346.402V404.093C371.332 407.849 370.155 411.45 368.058 414.107C365.962 416.763 363.119 418.257 360.154 418.26Z" fill="white"/>
<path d="M311.794 347.937C311.794 347.937 302.713 364.224 288.706 363.006C262.472 360.728 230.591 314.28 226.743 313.878C220.654 313.232 169.985 347.986 169.985 347.986L160.654 334.781C160.654 334.781 215.151 280.318 227.032 279.429C238.913 278.54 311.794 347.937 311.794 347.937Z" fill="#38BDF8"/>
<path opacity="0.6" d="M311.928 347.937C311.854 348.016 311.794 348.115 311.752 348.227C311.711 348.338 311.689 348.46 311.688 348.583C308.993 352.862 305.655 356.423 301.866 359.059C297.89 361.968 293.329 363.34 288.744 363.006C262.511 360.728 230.601 314.28 226.753 313.878C220.664 313.232 169.995 347.986 169.995 347.986L160.654 334.781C160.654 334.781 181.818 313.671 200.587 297.518C211.986 287.773 222.539 279.77 227.022 279.429C238.047 278.613 301.654 338.29 310.764 346.902C311.486 347.572 311.928 347.937 311.928 347.937Z" fill="white"/>
<path d="M297.181 220.91C297.181 220.91 292.025 220.788 291.852 221.945C291.678 223.102 292.006 232.64 292.689 233.98C293.446 235.19 294.307 236.289 295.257 237.257L291.486 251.473L297.845 255.553L300.635 240.059C300.635 240.059 303.79 236.148 302.867 231.191C301.943 226.233 297.181 220.91 297.181 220.91Z" fill="#EEC1BB"/>
<path opacity="0.2" d="M297.181 220.91C297.181 220.91 292.025 220.788 291.852 221.945C291.678 223.102 292.006 232.64 292.689 233.98C293.446 235.19 294.307 236.289 295.257 237.257L291.486 251.473L297.845 255.553L300.635 240.059C300.635 240.059 303.79 236.148 302.867 231.191C301.943 226.233 297.181 220.91 297.181 220.91Z" fill="black"/>
<path d="M290.524 251.655L292.092 247.465L299.865 251.655L299.355 256.723L290.524 251.655Z" fill="#263238"/>
<path d="M318.903 239.364C311.207 239.571 298.057 278.552 298.057 278.552C298.057 278.552 301.029 259.464 300.346 257.235C299.663 255.005 293.093 249.511 289.562 250.73C286.032 251.948 278.499 283.327 283.79 294.339C289.081 305.351 298.865 307.982 312.487 296.41C326.108 284.838 318.903 239.364 318.903 239.364Z" fill="#263238"/>
<path opacity="0.3" d="M313.612 295.338C313.256 295.716 312.881 296.032 312.496 296.373C304.685 303 298.143 304.535 292.977 303.317C291.05 302.666 289.245 301.531 287.67 299.981C286.095 298.43 284.783 296.495 283.809 294.29C278.518 283.327 286.051 251.923 289.581 250.705C293.112 249.487 299.682 254.981 300.365 257.222C301.048 259.464 298.22 277.736 298.066 278.528C298.47 277.309 311.323 239.547 318.903 239.364C318.903 239.364 325.714 282.279 313.612 295.338Z" fill="black"/>
<path opacity="0.2" d="M313.612 295.338C313.255 295.719 312.882 296.077 312.496 296.41C304.685 303.037 298.143 305.01 292.977 303.402C303.838 296.8 311.977 279.429 311.977 279.429L313.612 295.338Z" fill="black"/>
<path d="M331.621 238.353C331.621 238.353 335.401 229.607 349.995 233.067C364.588 236.526 361.77 243.774 357.075 246.332C352.381 248.89 335.507 246.332 335.507 246.332C335.507 246.332 330.678 241.594 331.621 238.353Z" fill="#263238"/>
<path opacity="0.2" d="M331.621 238.353C331.621 238.353 335.401 229.607 349.995 233.067C364.588 236.526 361.77 243.774 357.075 246.332C352.381 248.89 335.507 246.332 335.507 246.332C335.507 246.332 330.678 241.594 331.621 238.353Z" fill="black"/>
<path d="M290.524 321.126C290.524 321.126 305.195 308.506 309.764 289.454C314.334 270.403 318.903 239.352 318.903 239.352C318.903 239.352 340.789 232.348 361.953 242.398C383.117 252.447 359.374 340.104 339.913 349.362L290.524 321.126Z" fill="#263238"/>
<path d="M352.65 215.136C350.726 222.444 348.196 236.027 351.842 241.715C349.865 243.718 347.593 245.203 345.159 246.085C342.725 246.968 340.177 247.23 337.662 246.856C330.033 245.857 333.458 238.755 333.458 238.755C340.269 237.817 340.721 231.568 340.192 225.551L352.65 215.136Z" fill="#EEC1BB"/>
<path opacity="0.2" d="M347.542 219.387L340.115 225.551C340.263 226.951 340.314 228.366 340.269 229.778C342.847 229.778 346.666 226.769 347.273 223.468C347.559 222.14 347.65 220.757 347.542 219.387Z" fill="black"/>
<path d="M340.548 192.966C343.501 196.413 341.443 200.908 333.141 206.986C330.707 201.468 331.342 191.76 334.016 189.786C336.69 187.813 337.97 190.03 340.548 192.966Z" fill="#263238"/>
<path d="M353.747 203.429C352.611 210.848 352.034 216.061 349.985 220.106C349.206 221.622 348.23 222.96 347.099 224.065C340.182 230.898 330.745 224.588 329.889 214.125C329.889 213.796 329.841 213.455 329.831 213.114C329.312 203.673 332.063 189.689 340.057 187.058C341.881 186.441 343.798 186.425 345.627 187.011C347.457 187.597 349.137 188.766 350.509 190.407C351.881 192.048 352.899 194.106 353.466 196.385C354.032 198.664 354.129 201.089 353.747 203.429Z" fill="#EEC1BB"/>
<path opacity="0.3" d="M349.985 220.045C349.206 221.561 348.23 222.899 347.099 224.004C340.183 230.837 330.745 224.527 329.889 214.064C329.889 213.735 329.841 213.394 329.831 213.053C331.332 214.112 333.429 215.306 335.007 215.136C337.768 214.855 340.721 212.456 342.636 211.688C343.817 211.315 345.048 211.274 346.243 211.566C346.243 211.566 349.312 209.13 350.091 205.476L350.861 207.595C351.315 211.776 351.016 216.032 349.985 220.045Z" fill="black"/>
<path d="M341.51 204.16C341.423 204.989 341 205.598 340.548 205.525C340.096 205.451 339.846 204.733 339.932 203.904C340.019 203.076 340.433 202.467 340.894 202.528C341.356 202.589 341.51 203.344 341.51 204.16Z" fill="#263238"/>
<path d="M334.035 202.942C333.949 203.77 333.535 204.379 333.073 204.306C332.612 204.233 332.361 203.515 332.448 202.674C332.535 201.834 332.948 201.237 333.41 201.31C333.872 201.383 334.122 202.114 334.035 202.942Z" fill="#263238"/>
<path d="M336.421 203.734C335.384 206.133 334.089 208.339 332.573 210.287C332.98 210.761 333.464 211.116 333.991 211.326C334.518 211.537 335.075 211.598 335.623 211.506L336.421 203.734Z" fill="#D58745"/>
<path d="M343.809 201.529C343.889 201.571 343.979 201.571 344.059 201.529C344.147 201.463 344.212 201.357 344.241 201.232C344.269 201.108 344.259 200.975 344.213 200.859C343.924 200.179 343.512 199.596 343.01 199.158C342.509 198.719 341.932 198.438 341.327 198.337C341.279 198.331 341.229 198.337 341.182 198.355C341.135 198.372 341.092 198.402 341.054 198.442C341.016 198.482 340.985 198.531 340.963 198.586C340.94 198.641 340.927 198.702 340.923 198.764C340.92 198.892 340.955 199.016 341.021 199.113C341.087 199.21 341.179 199.272 341.279 199.288C341.76 199.371 342.218 199.598 342.616 199.95C343.014 200.301 343.341 200.767 343.569 201.31C343.595 201.365 343.63 201.412 343.672 201.45C343.713 201.487 343.76 201.514 343.809 201.529Z" fill="#263238"/>
<path d="M330.986 199.202C331.058 199.213 331.132 199.199 331.198 199.16C331.264 199.121 331.321 199.06 331.361 198.983C331.618 198.46 331.969 198.02 332.385 197.701C332.801 197.381 333.271 197.19 333.756 197.144C333.858 197.144 333.956 197.092 334.028 197.001C334.101 196.91 334.141 196.786 334.141 196.656C334.15 196.531 334.121 196.407 334.06 196.307C334 196.208 333.912 196.141 333.814 196.12C333.198 196.165 332.599 196.396 332.069 196.794C331.538 197.193 331.091 197.747 330.764 198.411C330.709 198.517 330.689 198.648 330.709 198.773C330.729 198.898 330.787 199.009 330.87 199.08C330.903 199.129 330.942 199.171 330.986 199.202Z" fill="#263238"/>
<path d="M351.486 193.818C347.561 194.829 347.494 200.031 352.121 210.653C356.459 207.522 359.884 198.788 358.374 195.365C356.863 191.942 354.911 192.953 351.486 193.818Z" fill="#263238"/>
<path d="M356.729 212.139C356.327 213.314 355.746 214.376 355.02 215.267C354.294 216.157 353.436 216.858 352.496 217.328C349.966 218.546 348.456 215.769 348.946 212.59C349.379 209.715 351.226 205.622 353.862 205.768C356.498 205.914 357.72 209.228 356.729 212.139Z" fill="#EEC1BB"/>
<path d="M341.433 214.393C341.433 214.393 339.653 217.45 335.786 216.561" stroke="#263238" stroke-width="0.526291" stroke-linecap="round" stroke-linejoin="round"/>
<path d="M333.939 186.522C333.785 187.667 334.054 189.518 338.941 190.432C343.828 191.345 348.321 188.714 349.85 190.432C351.38 192.149 352.958 197.68 352.958 197.68L358.345 196.157C358.345 196.157 359.547 191.65 356.661 186.522C353.775 181.393 337.672 185.303 336.459 182.514C336.421 182.514 334.256 184.049 333.939 186.522Z" fill="#263238"/>
<path d="M154.295 359.327L150.563 350.751L164.531 335.89L168.254 344.465L154.295 359.327Z" fill="#EEC1BB"/>
<path opacity="0.2" d="M168.254 344.465L164.531 335.902L156.537 344.392L160.567 352.664L168.254 344.465Z" fill="black"/>
<path d="M168.215 352.481L157.191 336.085L162.155 329.129L173.968 347.401L168.215 352.481Z" fill="#38BDF8"/>
<path opacity="0.2" d="M168.215 352.481L157.191 336.085L162.155 329.129L173.968 347.401L168.215 352.481Z" fill="white"/>
<path d="M151.034 351.494H150.63C150.63 351.336 151.39 348.851 151.063 347.572C150.88 347.195 150.602 346.907 150.274 346.756C150.116 346.665 149.941 346.636 149.77 346.67C149.599 346.705 149.44 346.802 149.312 346.95C148.981 347.689 148.875 348.556 149.014 349.387C148.542 348.522 147.907 347.62 147.359 347.547C147.243 347.532 147.126 347.554 147.018 347.612C146.91 347.669 146.816 347.76 146.743 347.876C146.613 348.027 146.518 348.221 146.469 348.436C146.42 348.651 146.418 348.878 146.464 349.094C146.706 349.655 147.099 350.087 147.571 350.313C148.186 350.693 148.831 350.991 149.495 351.202C149.495 351.202 149.495 351.202 149.553 351.202C149.61 351.202 149.553 351.202 149.61 351.202C149.668 351.202 149.908 351.336 149.937 351.311L150.611 351.421L151.034 351.494ZM149.476 347.243C149.526 347.166 149.597 347.116 149.675 347.1C149.752 347.085 149.832 347.105 149.899 347.158H149.985C150.048 347.198 150.104 347.255 150.149 347.324C150.193 347.393 150.226 347.473 150.245 347.56C150.286 348.619 150.053 349.667 149.581 350.544L149.495 350.349C149.207 349.347 149.2 348.25 149.476 347.243ZM146.811 348.973C146.782 348.832 146.784 348.684 146.816 348.545C146.848 348.405 146.909 348.28 146.994 348.181C147.026 348.121 147.071 348.074 147.124 348.046C147.177 348.018 147.235 348.01 147.292 348.022C147.831 348.096 148.667 349.569 149.216 350.739C147.85 350.227 146.965 349.606 146.811 348.973Z" fill="#38BDF8"/>
<path d="M150.62 350.532L158.316 355.624C158.382 355.662 158.442 355.716 158.491 355.783C158.54 355.85 158.578 355.929 158.603 356.015C158.629 356.101 158.64 356.193 158.637 356.285C158.634 356.376 158.616 356.466 158.586 356.549L155.777 364.504C155.611 364.907 155.325 365.211 154.982 365.348C154.639 365.485 154.268 365.444 153.949 365.235C151.284 363.408 150.101 362.36 146.724 360.082C144.656 358.706 140.452 356.221 137.855 353.76C135.257 351.299 137.239 348.12 138.518 348.887C141.539 350.654 146.541 350.897 149.264 350.252C149.728 350.158 150.204 350.256 150.62 350.532Z" fill="#263238"/>
<path d="M337.662 246.856C337.662 246.856 338.316 241.715 347.628 236.989C356.94 232.263 364.81 237.513 363.684 240.985C363.684 240.985 369.735 241.776 366.628 246.856C363.521 251.936 337.662 246.856 337.662 246.856Z" fill="#263238"/>
<path d="M335.507 246.332C334.853 244.507 334.618 242.486 334.829 240.499C335.04 238.513 335.688 236.642 336.7 235.101C336.7 235.101 335.305 231.861 332.544 235.101C332.563 235.101 321.491 238.682 335.507 246.332Z" fill="#263238"/>
<path opacity="0.2" d="M337.662 246.856C337.662 246.856 338.316 241.715 347.628 236.989C356.94 232.263 364.81 237.513 363.684 240.985C363.684 240.985 369.735 241.776 366.628 246.856C363.521 251.936 337.662 246.856 337.662 246.856Z" fill="black"/>
<path opacity="0.2" d="M335.507 246.332C334.853 244.507 334.618 242.486 334.829 240.499C335.04 238.513 335.688 236.642 336.7 235.101C336.7 235.101 335.305 231.861 332.544 235.101C332.563 235.101 321.491 238.682 335.507 246.332Z" fill="black"/>
<path d="M333.227 244.468C333.227 244.468 327.801 247.039 327.32 263.959C326.839 280.879 320.346 280.708 320.346 280.708" stroke="white" stroke-linecap="round" stroke-linejoin="round"/>
<path d="M339.586 245.613C339.586 245.613 336.912 250.937 338.624 261.291C340.336 271.645 339.365 283.376 333.814 287.176" stroke="white" stroke-linecap="round" stroke-linejoin="round"/>
<path d="M305.916 229.254C305.924 229.397 305.907 229.54 305.866 229.673C305.825 229.807 305.762 229.927 305.68 230.026C305.598 230.125 305.5 230.2 305.393 230.245C305.286 230.291 305.172 230.306 305.06 230.289L296.286 229.424C296.036 229.407 295.799 229.273 295.622 229.048C295.444 228.823 295.338 228.524 295.324 228.206L294.718 206.097C294.706 205.943 294.72 205.789 294.758 205.642C294.796 205.495 294.857 205.36 294.939 205.246C295.02 205.131 295.12 205.039 295.231 204.976C295.342 204.913 295.462 204.88 295.584 204.879L304.348 205.732C304.599 205.797 304.825 205.967 304.991 206.214C305.157 206.461 305.252 206.772 305.262 207.096L305.916 229.254Z" fill="#263238"/>
<path opacity="0.5" d="M304.348 206.913L304.973 229.229C304.991 229.36 304.984 229.495 304.953 229.622C304.922 229.748 304.868 229.864 304.794 229.959C304.721 230.054 304.631 230.126 304.532 230.169C304.433 230.211 304.327 230.223 304.223 230.204L296.787 229.473C296.286 229.473 295.401 228.986 295.382 228.352L294.757 205.963C294.757 205.342 295.623 204.928 296.123 204.976L303.55 205.707C303.779 205.741 303.99 205.885 304.138 206.109C304.287 206.333 304.362 206.621 304.348 206.913Z" fill="white"/>
<path d="M314.834 246.064L311.505 236.222C311.505 236.222 310.418 223.017 309.889 221.604C309.36 220.191 300.885 220.715 299.961 220.629C299.038 220.544 299.182 233.7 300.144 235.101C301.106 236.502 304.492 237.598 304.492 237.598L308.744 251.68L314.834 246.064Z" fill="#EEC1BB"/>
<path d="M307.099 251.655L305.926 245.613L314.834 239.998L316.18 245.833L307.099 251.655Z" fill="#263238"/>
<path d="M305.916 251.655C306.945 248.184 311.515 242.885 316.171 244.468C320.827 246.052 331.409 288.492 334.131 290.526C336.854 292.561 355.671 256.016 360.856 253.373C366.041 250.73 369.995 253.531 370.178 268.575C370.36 283.619 351.034 325.182 334.487 321.759C317.941 318.336 301.587 266.395 305.916 251.655Z" fill="#263238"/>
<path opacity="0.2" d="M305.916 251.655C306.945 248.184 311.515 242.885 316.171 244.468C320.827 246.052 331.409 288.492 334.131 290.526C336.854 292.561 355.671 256.016 360.856 253.373C366.041 250.73 369.995 253.531 370.178 268.575C370.36 283.619 351.034 325.182 334.487 321.759C317.941 318.336 301.587 266.395 305.916 251.655Z" fill="black"/>
<path opacity="0.3" d="M307.263 359.351C305.437 359.47 303.607 359.359 301.799 359.022C273.958 354.15 235.421 300.978 233.554 298.115C232.227 296.081 213.179 296.775 200.616 297.47C212.015 287.725 222.559 279.721 227.042 279.38C238.066 278.564 301.741 338.241 310.851 346.853C311.111 347.425 310.726 347.986 311.688 348.534C313.612 354.844 313.131 358.973 307.263 359.351Z" fill="black"/>
<path d="M348.59 340.799C348.59 340.799 338.143 368.597 305.435 362.396C279.461 357.463 245.272 292.682 242.02 290.051C236.883 285.873 179.278 286.494 179.278 286.494L175.921 269.343C175.921 269.343 244.223 253.507 255.045 259.805C260.981 263.24 315.777 323.148 315.777 323.148L348.59 340.799Z" fill="#38BDF8"/>
<path opacity="0.6" d="M348.59 340.799C348.59 340.799 338.143 368.597 305.435 362.396C279.461 357.463 245.272 292.682 242.02 290.051C236.883 285.873 179.278 286.494 179.278 286.494L175.921 269.343C175.921 269.343 244.223 253.507 255.045 259.805C260.981 263.24 315.777 323.148 315.777 323.148L348.59 340.799Z" fill="white"/>
<path d="M161.231 287.262L161.106 277.468L178.942 272.632L179.057 282.413L161.231 287.262Z" fill="#EEC1BB"/>
<path opacity="0.2" d="M179.057 282.413L178.932 272.632L168.735 275.397L169.235 285.093L179.057 282.413Z" fill="black"/>
<path d="M176.056 289.466L172.381 268.454L179.346 265.238L183.021 288.395L176.056 289.466Z" fill="#38BDF8"/>
<path opacity="0.2" d="M176.056 289.466L172.381 268.454L179.346 265.238L183.021 288.395L176.056 289.466Z" fill="white"/>
<path d="M161.616 278.369L161.068 278.162C161.843 277.287 162.441 276.188 162.809 274.958C162.809 274.605 162.549 274.057 162.366 273.74C162.256 273.559 162.105 273.424 161.934 273.353C161.763 273.281 161.578 273.276 161.404 273.338C160.843 273.791 160.427 274.482 160.231 275.287C160.223 274.333 159.946 273.413 159.452 272.693C159.354 272.608 159.241 272.555 159.123 272.541C159.006 272.526 158.887 272.549 158.778 272.607C158.6 272.664 158.439 272.783 158.313 272.951C158.187 273.119 158.101 273.33 158.066 273.558C158.053 274.209 158.231 274.843 158.566 275.336C158.971 276.04 159.432 276.69 159.942 277.273C159.942 277.273 159.942 277.273 159.942 277.346H160.009C160.009 277.346 160.231 277.651 160.26 277.638C160.288 277.626 160.991 278.138 161 278.126L161.616 278.369ZM161.443 273.74C161.539 273.679 161.674 273.655 161.847 273.911L161.905 273.996C161.945 274.07 161.973 274.153 161.987 274.241C162 274.33 161.998 274.42 161.982 274.508C161.885 275.312 160.904 276.25 160.288 276.761V276.518C160.403 275.449 160.812 274.465 161.443 273.74ZM158.441 273.679C158.469 273.538 158.525 273.409 158.604 273.304C158.684 273.2 158.783 273.123 158.894 273.082C158.944 273.047 159 273.029 159.057 273.029C159.114 273.029 159.171 273.047 159.221 273.082C159.673 273.472 159.865 275.275 159.904 276.615C158.894 275.409 158.355 274.313 158.441 273.679Z" fill="#38BDF8"/>
<path d="M161.231 277.309L166.137 286.372C166.181 286.445 166.213 286.528 166.231 286.616C166.25 286.705 166.254 286.797 166.244 286.887C166.234 286.978 166.211 287.065 166.174 287.144C166.138 287.223 166.089 287.292 166.032 287.347L160.606 292.707C160.458 292.84 160.29 292.934 160.113 292.984C159.936 293.035 159.753 293.041 159.574 293.001C159.395 292.961 159.224 292.877 159.071 292.754C158.918 292.63 158.786 292.469 158.682 292.28C157.018 289.077 156.344 287.408 154.209 283.437C152.891 281 150.101 276.298 148.716 272.595C147.33 268.892 150.255 267.248 151.101 268.661C153.122 272.011 157.451 275.19 160.096 276.237C160.557 276.428 160.955 276.805 161.231 277.309Z" fill="#263238"/>
<path d="M298.278 199.081C298.547 198.732 298.868 198.456 299.222 198.267C299.576 198.078 299.957 197.981 300.341 197.981C300.726 197.981 301.106 198.078 301.461 198.267C301.815 198.456 302.136 198.732 302.405 199.081" stroke="#38BDF8" stroke-linecap="round" stroke-linejoin="round"/>
<path d="M296.767 197.156C297.718 195.957 299.004 195.284 300.346 195.284C301.688 195.284 302.974 195.957 303.925 197.156" stroke="#38BDF8" stroke-width="1.05659" stroke-linecap="round" stroke-linejoin="round"/>
<path d="M295.334 195.377C296.658 193.704 298.452 192.765 300.322 192.765C302.192 192.765 303.986 193.704 305.31 195.377" stroke="#38BDF8" stroke-linecap="round" stroke-linejoin="round"/>
<path d="M301.164 201.566C301.166 201.774 301.119 201.978 301.028 202.152C300.938 202.326 300.809 202.462 300.657 202.543C300.506 202.624 300.339 202.646 300.177 202.606C300.016 202.566 299.868 202.466 299.751 202.318C299.635 202.171 299.556 201.983 299.525 201.779C299.493 201.575 299.51 201.363 299.574 201.171C299.638 200.979 299.745 200.816 299.883 200.702C300.02 200.587 300.182 200.528 300.346 200.53C300.563 200.53 300.771 200.639 300.924 200.833C301.078 201.028 301.164 201.291 301.164 201.566Z" fill="#38BDF8"/>
<path d="M269.764 93.6993H165.223C161.94 93.6993 159.278 97.0697 159.278 101.227V177.02C159.278 181.178 161.94 184.548 165.223 184.548H269.764C273.047 184.548 275.709 181.178 275.709 177.02V101.227C275.709 97.0697 273.047 93.6993 269.764 93.6993Z" fill="#38BDF8"/>
<path d="M269.504 94.9296H165.493C162.603 94.9296 160.26 97.8965 160.26 101.556V176.679C160.26 180.339 162.603 183.306 165.493 183.306H269.504C272.395 183.306 274.738 180.339 274.738 176.679V101.556C274.738 97.8965 272.395 94.9296 269.504 94.9296Z" fill="#38BDF8"/>
<path opacity="0.6" d="M269.504 94.9296H165.493C162.603 94.9296 160.26 97.8965 160.26 101.556V176.679C160.26 180.339 162.603 183.306 165.493 183.306H269.504C272.395 183.306 274.738 180.339 274.738 176.679V101.556C274.738 97.8965 272.395 94.9296 269.504 94.9296Z" fill="white"/>
<path opacity="0.2" d="M269.504 94.9296H165.493C162.603 94.9296 160.26 97.8965 160.26 101.556V171.806C160.26 175.466 162.603 178.433 165.493 178.433H269.504C272.395 178.433 274.738 175.466 274.738 171.806V101.556C274.738 97.8965 272.395 94.9296 269.504 94.9296Z" fill="white"/>
<path d="M257.835 102.275H169.456C168.569 102.275 167.85 103.186 167.85 104.309V114.127C167.85 115.251 168.569 116.162 169.456 116.162H257.835C258.722 116.162 259.442 115.251 259.442 114.127V104.309C259.442 103.186 258.722 102.275 257.835 102.275Z" fill="white"/>
<path opacity="0.3" d="M257.835 102.275H169.456C168.569 102.275 167.85 103.186 167.85 104.309V114.127C167.85 115.251 168.569 116.162 169.456 116.162H257.835C258.722 116.162 259.442 115.251 259.442 114.127V104.309C259.442 103.186 258.722 102.275 257.835 102.275Z" fill="white"/>
<path d="M257.835 119.767H169.456C168.569 119.767 167.85 120.678 167.85 121.802V131.62C167.85 132.743 168.569 133.654 169.456 133.654H257.835C258.722 133.654 259.442 132.743 259.442 131.62V121.802C259.442 120.678 258.722 119.767 257.835 119.767Z" fill="white"/>
<path opacity="0.3" d="M257.835 119.767H169.456C168.569 119.767 167.85 120.678 167.85 121.802V131.62C167.85 132.743 168.569 133.654 169.456 133.654H257.835C258.722 133.654 259.442 132.743 259.442 131.62V121.802C259.442 120.678 258.722 119.767 257.835 119.767Z" fill="white"/>
<path d="M257.835 137.272H169.456C168.569 137.272 167.85 138.183 167.85 139.306V149.125C167.85 150.248 168.569 151.159 169.456 151.159H257.835C258.722 151.159 259.442 150.248 259.442 149.125V139.306C259.442 138.183 258.722 137.272 257.835 137.272Z" fill="white"/>
<path opacity="0.3" d="M257.835 137.272H169.456C168.569 137.272 167.85 138.183 167.85 139.306V149.125C167.85 150.248 168.569 151.159 169.456 151.159H257.835C258.722 151.159 259.442 150.248 259.442 149.125V139.306C259.442 138.183 258.722 137.272 257.835 137.272Z" fill="white"/>
<path d="M257.835 154.765H169.456C168.569 154.765 167.85 155.675 167.85 156.799V166.617C167.85 167.741 168.569 168.651 169.456 168.651H257.835C258.722 168.651 259.442 167.741 259.442 166.617V156.799C259.442 155.675 258.722 154.765 257.835 154.765Z" fill="white"/>
<path opacity="0.3" d="M257.835 154.765H169.456C168.569 154.765 167.85 155.675 167.85 156.799V166.617C167.85 167.741 168.569 168.651 169.456 168.651H257.835C258.722 168.651 259.442 167.741 259.442 166.617V156.799C259.442 155.675 258.722 154.765 257.835 154.765Z" fill="white"/>
<path d="M255.68 104.382H241.722C240.882 104.382 240.202 105.244 240.202 106.307V112.118C240.202 113.18 240.882 114.042 241.722 114.042H255.68C256.52 114.042 257.2 113.18 257.2 112.118V106.307C257.2 105.244 256.52 104.382 255.68 104.382Z" fill="#263238"/>
<path opacity="0.5" d="M246.051 104.382H241.722C240.882 104.382 240.202 105.244 240.202 106.307V112.118C240.202 113.18 240.882 114.042 241.722 114.042H246.051C246.89 114.042 247.571 113.18 247.571 112.118V106.307C247.571 105.244 246.89 104.382 246.051 104.382Z" fill="white"/>
<path opacity="0.5" d="M255.68 104.382H241.722C240.882 104.382 240.202 105.244 240.202 106.307V112.118C240.202 113.18 240.882 114.042 241.722 114.042H255.68C256.52 114.042 257.2 113.18 257.2 112.118V106.307C257.2 105.244 256.52 104.382 255.68 104.382Z" fill="white"/>
<path d="M255.68 156.799H241.722C240.882 156.799 240.202 157.661 240.202 158.724V164.534C240.202 165.597 240.882 166.459 241.722 166.459H255.68C256.52 166.459 257.2 165.597 257.2 164.534V158.724C257.2 157.661 256.52 156.799 255.68 156.799Z" fill="#263238"/>
<path opacity="0.5" d="M246.051 156.799H241.722C240.882 156.799 240.202 157.661 240.202 158.724V164.534C240.202 165.597 240.882 166.459 241.722 166.459H246.051C246.89 166.459 247.571 165.597 247.571 164.534V158.724C247.571 157.661 246.89 156.799 246.051 156.799Z" fill="white"/>
<path opacity="0.5" d="M255.68 156.799H241.722C240.882 156.799 240.202 157.661 240.202 158.724V164.534C240.202 165.597 240.882 166.459 241.722 166.459H255.68C256.52 166.459 257.2 165.597 257.2 164.534V158.724C257.2 157.661 256.52 156.799 255.68 156.799Z" fill="white"/>
<path d="M255.68 139.319H241.722C240.882 139.319 240.202 140.18 240.202 141.243V147.054C240.202 148.117 240.882 148.978 241.722 148.978H255.68C256.52 148.978 257.2 148.117 257.2 147.054V141.243C257.2 140.18 256.52 139.319 255.68 139.319Z" fill="#38BDF8"/>
<path opacity="0.5" d="M255.68 139.319H251.351C250.512 139.319 249.831 140.18 249.831 141.243V147.054C249.831 148.117 250.512 148.978 251.351 148.978H255.68C256.52 148.978 257.2 148.117 257.2 147.054V141.243C257.2 140.18 256.52 139.319 255.68 139.319Z" fill="white"/>
<path d="M255.68 121.85H241.722C240.882 121.85 240.202 122.712 240.202 123.775V129.586C240.202 130.649 240.882 131.51 241.722 131.51H255.68C256.52 131.51 257.2 130.649 257.2 129.586V123.775C257.2 122.712 256.52 121.85 255.68 121.85Z" fill="#38BDF8"/>
<path opacity="0.5" d="M255.68 121.85H251.351C250.512 121.85 249.831 122.712 249.831 123.775V129.586C249.831 130.649 250.512 131.51 251.351 131.51H255.68C256.52 131.51 257.2 130.649 257.2 129.586V123.775C257.2 122.712 256.52 121.85 255.68 121.85Z" fill="white"/>
<path d="M259.442 183.025V173.865C259.443 173.598 259.403 173.334 259.323 173.087C259.243 172.841 259.126 172.616 258.977 172.427C258.829 172.238 258.653 172.088 258.458 171.986C258.264 171.883 258.055 171.831 257.845 171.831H169.456C169.03 171.831 168.622 172.045 168.32 172.427C168.019 172.808 167.85 173.326 167.85 173.865V183.025H259.442Z" fill="white"/>
<path d="M240.712 183.025H256.69C256.85 182.847 256.978 182.628 257.066 182.382C257.154 182.136 257.199 181.87 257.2 181.6V175.778C257.2 175.525 257.161 175.276 257.084 175.043C257.008 174.81 256.896 174.599 256.755 174.421C256.613 174.243 256.446 174.103 256.261 174.007C256.077 173.912 255.88 173.863 255.68 173.865H241.722C241.523 173.863 241.325 173.912 241.141 174.007C240.956 174.103 240.789 174.243 240.648 174.421C240.506 174.599 240.394 174.81 240.318 175.043C240.241 175.276 240.202 175.525 240.202 175.778V181.6C240.203 181.87 240.248 182.136 240.336 182.382C240.424 182.628 240.552 182.847 240.712 183.025Z" fill="#263238"/>
<path opacity="0.5" d="M240.712 183.025H247.07C247.229 182.846 247.355 182.626 247.441 182.381C247.528 182.135 247.572 181.869 247.571 181.6V175.778C247.571 175.525 247.531 175.276 247.455 175.043C247.378 174.81 247.266 174.599 247.125 174.421C246.984 174.243 246.816 174.103 246.632 174.007C246.447 173.912 246.25 173.863 246.051 173.865H241.722C241.523 173.863 241.325 173.912 241.141 174.007C240.956 174.103 240.789 174.243 240.648 174.421C240.506 174.599 240.394 174.81 240.318 175.043C240.241 175.276 240.202 175.525 240.202 175.778V181.6C240.203 181.87 240.248 182.136 240.336 182.382C240.424 182.628 240.552 182.847 240.712 183.025Z" fill="white"/>
<path opacity="0.5" d="M240.712 183.025H256.69C256.85 182.847 256.978 182.628 257.066 182.382C257.154 182.136 257.199 181.87 257.2 181.6V175.778C257.2 175.525 257.161 175.276 257.084 175.043C257.008 174.81 256.896 174.599 256.755 174.421C256.613 174.243 256.446 174.103 256.261 174.007C256.077 173.912 255.88 173.863 255.68 173.865H241.722C241.523 173.863 241.325 173.912 241.141 174.007C240.956 174.103 240.789 174.243 240.648 174.421C240.506 174.599 240.394 174.81 240.318 175.043C240.241 175.276 240.202 175.525 240.202 175.778V181.6C240.203 181.87 240.248 182.136 240.336 182.382C240.424 182.628 240.552 182.847 240.712 183.025Z" fill="white"/>
<path opacity="0.2" d="M266.118 178.774C265.575 178.774 265.053 178.501 264.669 178.014C264.285 177.528 264.069 176.868 264.069 176.18V104.857C264.069 104.517 264.122 104.18 264.225 103.866C264.328 103.552 264.479 103.267 264.67 103.027C264.86 102.787 265.086 102.597 265.335 102.468C265.583 102.339 265.849 102.273 266.118 102.275C266.659 102.275 267.178 102.547 267.56 103.031C267.943 103.516 268.157 104.173 268.157 104.857V176.18C268.159 176.52 268.107 176.857 268.005 177.172C267.903 177.486 267.753 177.772 267.564 178.013C267.374 178.255 267.149 178.446 266.901 178.576C266.653 178.707 266.387 178.774 266.118 178.774Z" fill="black"/>
<path d="M266.118 130.012C265.849 130.014 265.583 129.948 265.335 129.819C265.086 129.69 264.86 129.5 264.67 129.26C264.479 129.02 264.328 128.735 264.225 128.421C264.122 128.107 264.069 127.77 264.069 127.43V104.857C264.069 104.517 264.122 104.18 264.225 103.866C264.328 103.552 264.479 103.267 264.67 103.027C264.86 102.787 265.086 102.597 265.335 102.468C265.583 102.339 265.849 102.273 266.118 102.275C266.659 102.275 267.178 102.547 267.56 103.031C267.943 103.516 268.157 104.173 268.157 104.857V127.43C268.157 128.114 267.943 128.771 267.56 129.256C267.178 129.74 266.659 130.012 266.118 130.012Z" fill="white"/>
<path d="M215.969 183.939V187.593" stroke="#38BDF8" stroke-linecap="round" stroke-linejoin="round"/>
<path d="M215.969 190.03V207.084" stroke="#38BDF8" stroke-linecap="round" stroke-linejoin="round" stroke-dasharray="5 2"/>
<path d="M215.969 208.302V211.347H218.374" stroke="#38BDF8" stroke-linecap="round" stroke-linejoin="round"/>
<path d="M220.298 211.347H286.676" stroke="#38BDF8" stroke-linecap="round" stroke-linejoin="round" stroke-dasharray="5 2"/>
<path d="M287.638 211.347H290.524" stroke="#38BDF8" stroke-linecap="round" stroke-linejoin="round"/>
<path d="M291.948 212.748C292.559 212.748 293.054 212.121 293.054 211.347C293.054 210.574 292.559 209.946 291.948 209.946C291.337 209.946 290.841 210.574 290.841 211.347C290.841 212.121 291.337 212.748 291.948 212.748Z" fill="#38BDF8"/>
</g>
</svg>
